<svg width="91" height="80" viewBox="0 0 91 80" fill="none" xmlns="http://www.w3.org/2000/svg">
<g clip-path="url(#clip0_17367_12667)">
<path fill-rule="evenodd" clip-rule="evenodd" d="M10.0808 35.5444L3.15203 27.2193C13.7426 14.4922 22.9259 14.9852 28.0309 19.4658C33.1359 23.9535 32.102 29.9777 30.8886 36.0375C29.668 42.0973 30.867 45.3631 34.3709 45.7704C37.5086 46.1349 39.878 44.3769 41.953 40.1393C43.7382 36.5124 43.6709 30.2541 43.62 25.5071C43.6115 24.7171 43.6034 23.969 43.6045 23.2818C43.6045 19.5659 43.6188 12.1697 43.626 8.98256C40.675 10.2233 39.1511 9.71472 38.07 9.35387C37.9805 9.32401 37.8941 9.29517 37.8102 9.26841C36.8767 8.97542 34.0622 7.18176 34.4571 3.70878C34.8089 0.607398 37.6091 -0.385903 39.3251 0.121467C41.0412 0.628836 41.7089 2.48681 41.7089 2.48681C41.7089 2.48681 42.8864 0.686004 45.3995 0.714588C48.372 0.743173 50.3322 4.80927 50.3322 4.80927C50.3322 4.80927 50.3178 4.81642 50.3106 4.82357L58.0364 1.7865L56.6937 6.68154L60.2909 8.14648L57.8281 10.4118C61.2674 12.4484 60.7002 16.2572 57.7563 17.0004L57.6702 17.0219C57.6702 17.0219 65.1159 30.678 68.6269 39.8249C76.2593 59.7052 59.1062 71.5105 46.9791 72.4823L46.2683 80H40.9837L40.2514 72.3037C39.7488 72.2465 39.2318 72.1679 38.6933 72.0679C31.6856 70.753 25.1517 67.0371 22.3371 62.5636C20.1257 59.0478 18.7758 54.6244 19.3072 49.1576C19.4041 48.1579 19.6516 46.9867 19.9167 45.7321C20.7905 41.5968 21.8558 36.5557 18.3522 33.7651C13.7857 30.1277 10.0808 35.5444 10.0808 35.5444ZM53.2257 8.6467C52.7734 7.76059 51.7682 7.3747 50.9784 7.77488C50.1957 8.17506 49.9229 9.21838 50.3681 10.0973C50.8204 10.9835 51.8256 11.3693 52.6154 10.9692C53.4052 10.569 53.6781 9.52566 53.2257 8.6467ZM90.8391 30.8316L90.842 30.821L90.852 30.7852C90.8583 30.7621 90.8647 30.739 90.8711 30.7156C90.8758 30.6984 90.8805 30.6811 90.8851 30.6637C90.9569 30.3921 91.0072 30.1134 90.9928 29.8562C90.9641 29.0987 90.5046 28.4127 89.9158 27.941C89.3343 27.4694 88.6234 27.1693 87.927 26.8763C87.6957 26.7792 87.4657 26.6802 87.2361 26.5814C86.2826 26.1711 85.3352 25.7634 84.3226 25.5042C83.833 25.3738 83.3633 25.1644 82.9007 24.9581L82.8435 24.9325C82.5 24.7806 82.159 24.6262 81.819 24.4722L81.8165 24.471L81.816 24.4708L81.8155 24.4706C81.581 24.3644 81.3471 24.2584 81.1131 24.1536C80.9247 24.07 80.7469 23.9724 80.5702 23.8754L80.5701 23.8754C80.3089 23.732 80.0501 23.5899 79.7632 23.4962C78.5642 23.1032 77.3436 22.7744 76.1229 22.46C75.9538 22.4154 75.7182 22.3354 75.4442 22.2424C74.3574 21.8735 72.6655 21.2991 72.1093 21.9098C71.5254 22.5542 72.2355 24.1391 72.6918 25.1574L72.6919 25.1575L72.6923 25.1584C72.8025 25.4044 72.8979 25.6173 72.9566 25.7758C72.9745 25.8186 72.9906 25.8597 73.0068 25.9008L73.007 25.9012C73.0231 25.9422 73.0392 25.9832 73.0571 26.0259C73.1145 26.1688 73.172 26.3117 73.215 26.4546C73.2725 26.6404 73.2653 26.7762 73.2509 26.9477V27.0335C73.0253 26.9722 72.7542 27.0341 72.5924 27.071L72.5688 27.0764C72.311 27.1405 72.0764 27.2277 71.8493 27.312C71.8234 27.3217 71.7976 27.3312 71.7718 27.3408C71.6067 27.4051 71.4416 27.4694 71.2764 27.5194C70.9123 27.6323 70.8161 27.6513 70.4681 27.7202C70.4337 27.7271 70.3967 27.7344 70.3567 27.7423C70.3149 27.7507 70.2699 27.7597 70.2209 27.7695C68.9635 28.0323 68.3715 28.2482 67.2158 28.6697L67.2157 28.6697L67.0976 28.7128C66.954 28.7628 66.8104 28.8271 66.7243 28.9486C66.6022 29.1273 66.6525 29.3631 66.7027 29.5703C66.7386 29.7061 66.7817 29.849 66.9038 29.9133C66.9756 29.9491 67.0545 29.9491 67.1335 29.9419C68.087 29.8876 68.7103 29.624 69.3401 29.3576C69.9527 29.0985 70.5714 28.8368 71.5062 28.7628C71.5924 28.7561 71.6997 28.7504 71.8222 28.7438L71.8226 28.7438L71.8229 28.7438L71.8231 28.7438C72.7413 28.6947 74.51 28.6002 74.6367 27.7052C74.6798 27.4122 74.5577 27.0692 74.4572 26.7977C74.4517 26.7801 74.446 26.7626 74.4402 26.7455C74.4337 26.726 74.4272 26.7068 74.4208 26.6881L74.4201 26.686L74.4198 26.6853L74.4197 26.6852L74.4197 26.6849L74.4195 26.6846L74.4195 26.6844C74.3953 26.6138 74.3733 26.5494 74.3638 26.4975C74.249 25.9544 74.1413 25.4685 73.8684 24.9683C73.8501 24.9352 73.8286 24.8975 73.8049 24.8559L73.8047 24.8556C73.5315 24.3761 72.9669 23.3853 73.5812 23.096C73.8828 22.9531 74.2418 23.0317 74.5649 23.1246C76.0561 23.5469 77.4295 24.1831 78.8193 24.8269C79.0756 24.9457 79.3326 25.0647 79.5909 25.1827C80.8717 25.7647 82.1818 26.2917 83.4905 26.8182L83.4906 26.8182L83.4907 26.8182L83.4908 26.8183L83.4909 26.8183C84.1262 27.0739 84.7612 27.3293 85.3924 27.5909C85.451 27.6156 85.5097 27.6402 85.5684 27.6649C86.4437 28.0329 87.321 28.4017 88.1352 28.8772C88.5875 29.1416 89.2265 29.6132 89.3702 30.1492C89.5265 30.7357 89.295 31.5779 89.1144 32.235L89.1143 32.2355L89.1137 32.2375C89.079 32.364 89.0461 32.4836 89.0183 32.5931C88.6734 33.9263 88.1673 35.2091 87.6623 36.4892L87.6623 36.4893L87.6623 36.4893C87.5366 36.8079 87.411 37.1263 87.2879 37.4453C86.9089 38.4295 86.3 39.611 85.7176 40.7408L85.7176 40.741L85.7175 40.741L85.7174 40.7412C85.3401 41.4734 84.9739 42.1838 84.6888 42.8048C84.3226 43.5909 83.9564 44.3698 83.5615 45.1416C83.5396 45.1843 83.5166 45.2309 83.4924 45.28C83.31 45.6496 83.0569 46.1626 82.664 46.2635C82.323 46.3483 82.1296 46.0275 81.9795 45.7784L81.9747 45.7704C81.7306 45.3702 81.4936 44.9486 81.4075 44.4841C81.3069 43.9196 81.0915 43.4694 80.8474 42.9763C80.8115 42.8977 80.7756 42.7977 80.7397 42.6833C80.6464 42.4046 80.5315 42.0616 80.3161 41.8544C80.2012 41.7472 80.072 41.6829 79.8997 41.6686C79.7489 41.6543 79.6196 41.69 79.5119 41.7543C79.3827 41.8401 79.2965 41.9687 79.2606 42.1402C79.2032 42.4475 79.3324 42.8405 79.4832 43.0478C79.555 43.1478 79.6268 43.2264 79.6986 43.305L79.6986 43.305C79.8135 43.4337 79.9068 43.5408 79.9786 43.7124C80.0302 43.8341 80.0701 43.9674 80.1089 44.0967L80.1222 44.1411C80.1366 44.1839 80.1491 44.2266 80.1616 44.2694L80.1617 44.2698C80.1743 44.3126 80.1869 44.3555 80.2012 44.3984C80.4023 45.0272 80.6177 45.6489 80.8402 46.2706C80.8588 46.3169 80.8744 46.3722 80.8909 46.4306L80.891 46.4308C80.8999 46.4625 80.9091 46.4952 80.9192 46.5279C81.0628 47.0281 81.2782 47.7713 81.8885 47.8785C82.0752 47.9071 82.2475 47.8785 82.384 47.7927C82.4342 47.7856 82.4845 47.7785 82.5347 47.7642C82.7071 47.707 82.865 47.5927 83.0086 47.4783C83.5758 47.0281 84.1502 46.4779 84.4949 45.8347C84.8467 45.1844 85.1985 44.527 85.5288 43.8624C86.9936 40.9183 88.7598 37.2881 89.6789 34.1367C89.8431 33.5757 90.05 33.036 90.2573 32.4955L90.2573 32.4954L90.2573 32.4954L90.2573 32.4953L90.2574 32.4953C90.4487 31.9961 90.6404 31.4962 90.799 30.9781C90.8124 30.9282 90.8257 30.8798 90.8391 30.8316ZM16.111 43.4036L16.111 43.4036L16.1049 43.4051C16.0765 43.4113 16.0496 43.4176 16.0252 43.4233L16.0031 43.4284C15.9916 43.4311 15.9808 43.4335 15.971 43.4357C15.9622 43.4376 15.9541 43.4394 15.9469 43.4408C15.6453 43.498 15.3366 43.5694 15.0422 43.648L15.0421 43.6481L15.0419 43.6481L15.0418 43.6482L15.0415 43.6483L15.0414 43.6483C14.998 43.6627 14.9124 43.6911 14.8196 43.7266C14.7837 43.7409 14.7317 43.7606 14.6796 43.7802C14.6276 43.7999 14.5755 43.8195 14.5396 43.8338C14.4678 43.7624 14.3386 43.598 14.2811 43.5194L14.2744 43.5108L14.2666 43.5007C14.2582 43.4899 14.2503 43.4795 14.2427 43.4696L14.2321 43.4555L14.2156 43.4337L14.2155 43.4336L14.2155 43.4335C14.2053 43.42 14.196 43.4076 14.1872 43.3962C14.184 43.3919 14.1808 43.3878 14.1777 43.3838C14.1737 43.3788 14.1699 43.3739 14.1662 43.3693C14.1092 43.3035 14.0522 43.2384 13.9953 43.1735L13.9953 43.1735L13.9953 43.1734L13.9953 43.1734L13.9953 43.1734L13.995 43.1731C13.8732 43.034 13.7524 42.896 13.6349 42.7548C13.4123 42.4975 13.1969 42.2331 12.9815 41.9687L12.9279 41.9038C12.5138 41.4021 12.0856 40.8835 11.6245 40.4109C11.3588 40.1393 11.0932 40.0107 10.7701 40.0036C10.6337 39.9964 10.4829 40.0178 10.289 40.0536C10.1777 40.0788 10.0663 40.0969 9.95241 40.1153C9.90476 40.1231 9.85667 40.1309 9.80795 40.1393C9.77136 40.1456 9.73463 40.1519 9.69779 40.1581C9.35873 40.2157 9.01027 40.2748 8.6735 40.4037C8.14218 40.6038 7.51752 40.711 6.90721 40.8039C6.54821 40.8611 6.18921 40.9182 5.85174 40.9969L5.19836 41.1469C4.48753 41.3184 3.74799 41.4899 3.01562 41.6114C2.6638 41.6686 2.32634 41.7758 1.97451 41.8901C1.83091 41.933 1.67295 41.9759 1.50063 42.0187C1.10573 42.1116 0.696465 42.2117 0.380543 42.4118C0.143601 42.5618 0 42.8262 0 43.1335C0 43.4337 0.143601 43.7052 0.380543 43.8553C0.452343 43.8982 0.531324 43.9267 0.617485 43.9482C0.509784 43.9839 0.409263 44.0482 0.330282 44.134C0.085581 44.4053 0.147232 44.7309 0.190414 44.959L0.193861 44.9772C0.265662 45.3488 0.437983 45.699 0.696465 45.9848C1.00025 46.3322 1.29239 46.7027 1.57813 47.0651L1.57852 47.0656C1.61008 47.1056 1.64155 47.1456 1.67295 47.1853C1.93861 47.5283 2.20428 47.8642 2.4843 48.2001C2.90792 48.7074 3.28128 49.272 3.64029 49.8151L3.66498 49.8524C4.0448 50.4265 4.43282 51.013 4.88962 51.5516C5.09035 51.7836 5.33197 52.004 5.57233 52.2232C5.59849 52.2471 5.62463 52.2709 5.6507 52.2948L5.66235 52.3052C6.26194 52.8451 6.88613 53.4072 6.95747 54.1456C7.04363 54.9674 6.59129 56.0679 6.31845 56.7253C6.2177 56.9726 6.14209 57.2262 6.0681 57.4744L6.05278 57.5257L6.0416 57.5642C5.95242 57.8719 5.86667 58.1677 5.70814 58.4832C5.66453 58.5731 5.62077 58.6631 5.57691 58.7534C4.99984 59.9411 4.4054 61.1645 3.89159 62.4064L3.86298 62.4759L3.86292 62.4761C3.63004 63.0417 3.41783 63.5571 3.24538 64.0857L3.24227 64.0954C3.17592 64.3004 3.02834 64.7565 3.37462 65.1434C3.53977 65.3291 3.72645 65.422 3.95621 65.4292C4.10699 65.4363 4.24341 65.4006 4.37983 65.3649C4.43727 65.3506 4.49471 65.3363 4.55933 65.322C4.98296 65.2434 5.52864 65.1148 6.02407 64.8432C6.30729 64.6851 6.59715 64.6328 6.90006 64.5781L6.93593 64.5717C7.11543 64.5431 7.28775 64.5073 7.46726 64.4645C7.89088 64.3501 8.30014 64.1715 8.70222 63.9928C8.73157 63.9801 8.76079 63.9673 8.78991 63.9546C8.98884 63.8676 9.18299 63.7827 9.37715 63.7141L9.81513 63.5498L9.94283 63.5013C11.238 63.009 12.5664 62.504 13.9149 62.2135C14.4175 62.1063 14.8843 61.7204 15.1068 61.2416C15.2863 60.8486 15.272 60.4412 15.0709 60.084C14.9417 59.8481 14.676 59.598 14.3386 59.5909C14.2165 59.5909 14.1016 59.6123 13.9939 59.6695C13.7724 59.7866 13.671 59.9967 13.5804 60.1846L13.5703 60.2054C13.52 60.3198 13.4626 60.4341 13.4052 60.4913C13.1519 60.7223 12.7608 60.775 12.3467 60.8308L12.321 60.8343L12.2844 60.8397L12.2704 60.8418L12.2336 60.8472L12.2111 60.8505C12.0092 60.8798 11.8045 60.9096 11.6101 60.9701C10.9209 61.1773 10.2459 61.4417 9.54947 61.7204C8.88891 61.9776 8.22834 62.2706 7.5965 62.5565C6.90721 62.8638 6.20357 63.171 5.49274 63.4497C5.78711 62.6994 6.08866 61.9491 6.3902 61.1988L6.39025 61.1987C6.77797 60.2555 7.17287 59.2836 7.53906 58.3117C7.76882 57.7043 7.91242 57.0826 8.04884 56.4823C8.11346 56.1965 8.17808 55.9107 8.25706 55.6248C8.3145 55.4104 8.40066 55.1889 8.48682 54.9817L8.4941 54.9636C8.70734 54.4332 8.92948 53.8806 8.7094 53.2023C8.5835 52.8055 8.25996 52.524 7.9778 52.2784L7.9555 52.259C7.87656 52.1936 7.79761 52.1221 7.72419 52.0556L7.72399 52.0554L7.7042 52.0375C7.25185 51.6087 6.89285 51.2443 6.57693 50.887C6.41179 50.7012 6.26101 50.5082 6.11741 50.3082C6.08567 50.2671 6.05429 50.226 6.02302 50.1851L6.02295 50.185L6.02286 50.1849C5.9127 50.0408 5.804 49.8986 5.6866 49.7651C5.55736 49.615 5.42094 49.4792 5.27734 49.3434L5.27378 49.34L5.2737 49.3399C5.06686 49.1412 4.87434 48.9562 4.7173 48.7217C4.3983 48.2455 4.03241 47.8159 3.68433 47.4073L3.68424 47.4072L3.64747 47.364C3.59749 47.3052 3.5472 47.2464 3.49679 47.1875L3.49636 47.187L3.49577 47.1863L3.4955 47.186L3.49542 47.1859C3.30727 46.966 3.11751 46.7442 2.93664 46.5136C2.86484 46.4278 2.79304 46.3349 2.72124 46.2421C2.70324 46.2192 2.68519 46.1963 2.66713 46.1735C2.47626 45.9318 2.28458 45.6892 2.14684 45.4346L2.02478 45.2059C1.81655 44.82 1.61551 44.4484 1.27805 44.1054C1.21343 44.0411 1.14163 43.9982 1.06265 43.9625C1.38575 43.9124 1.72321 43.7838 2.01041 43.6695C2.06785 43.648 2.1217 43.6266 2.17107 43.607C2.22043 43.5873 2.26531 43.5694 2.3048 43.5551C3.58276 43.1334 4.91113 42.8434 6.20137 42.5616L6.20516 42.5608C6.29097 42.5421 6.3766 42.5234 6.46205 42.5047C6.59122 42.4765 6.72019 42.4486 6.84901 42.4206L6.84924 42.4206C7.4722 42.2856 8.09193 42.1512 8.71659 41.9973C9.26227 41.8615 9.71461 41.7829 10.1526 41.7329C10.1628 41.7329 10.172 41.732 10.1807 41.7312C10.1966 41.7296 10.2105 41.7283 10.2244 41.7329C10.3106 41.7329 10.3393 41.7543 10.4685 41.9258C10.4842 41.9446 10.4999 41.9647 10.5162 41.9856C10.5372 42.0124 10.5591 42.0406 10.5834 42.0688C11.1434 42.7262 11.725 43.3622 12.1774 43.8481C12.2326 43.9092 12.2984 43.9912 12.3701 44.0807L12.4071 44.1268L12.42 44.1431C12.6539 44.4395 12.9221 44.7793 13.2041 44.8986C13.319 44.9486 13.4626 44.9772 13.6277 45.0058C13.6601 45.0129 13.6906 45.0201 13.7211 45.0272C13.7516 45.0344 13.7821 45.0415 13.8144 45.0487C13.9293 45.0773 14.0442 45.1058 14.1662 45.113L14.1845 45.1146L14.1846 45.1147C14.2565 45.1212 14.3232 45.1273 14.396 45.1273C15.2962 45.1486 16.1751 44.7737 16.877 44.4743L16.8875 44.4698C17.189 44.3412 17.5121 44.1697 17.5696 43.8839C17.5983 43.7409 17.5552 43.5909 17.4403 43.4765C17.3255 43.3408 17.1603 43.2836 16.9449 43.2764C16.6673 43.2694 16.3474 43.3466 16.111 43.4036ZM76.9989 42.3832C77.141 42.3307 77.1982 42.3238 77.2729 42.3149C77.3304 42.308 77.3982 42.2999 77.523 42.2689L77.5309 42.267C77.779 42.2089 78.3291 42.0799 78.5067 42.4547C78.5857 42.619 78.5785 42.8548 78.32 43.0192C78.2267 43.0764 78.1118 43.1192 78.0328 43.1407L77.9826 43.1621L77.6738 43.2836C77.4705 43.3652 77.455 43.3816 77.4408 43.3967C77.4263 43.412 77.4131 43.426 77.2071 43.5051C76.9134 43.6193 76.7165 43.6722 76.4907 43.7328C76.3633 43.767 76.2267 43.8037 76.0583 43.8553C75.5983 43.9896 75.2745 44.1291 74.8766 44.3005L74.8763 44.3007L74.8757 44.3009C74.8081 44.33 74.7383 44.3601 74.6654 44.3912C74.6307 44.405 74.6154 44.407 74.5715 44.4126C74.4791 44.4244 74.26 44.4523 73.4663 44.6413C73.373 44.6628 73.2653 44.6842 73.1719 44.6628C73.014 44.6199 72.9278 44.4555 72.8632 44.3126C72.7842 44.1483 72.7052 43.941 72.8129 43.791C72.8755 43.701 72.9853 43.6646 73.09 43.6299L73.1001 43.6266C73.3501 43.5464 73.4431 43.5266 73.468 43.5289C73.5158 43.5002 73.6013 43.4525 73.7463 43.3765C73.8247 43.336 73.8904 43.3005 73.9491 43.2689L73.9492 43.2688C74.1701 43.1496 74.2918 43.0839 74.6151 43.0049C74.7699 42.9638 74.9246 42.9301 75.082 42.8959L75.0821 42.8959L75.0822 42.8958L75.0823 42.8958L75.0824 42.8958C75.144 42.8824 75.206 42.8689 75.2685 42.8548C75.3017 42.8479 75.333 42.8421 75.363 42.8366L75.3633 42.8365C75.489 42.8131 75.592 42.794 75.7137 42.7191C75.976 42.6662 76.0725 42.6607 76.1437 42.6566C76.2265 42.6519 76.2752 42.6491 76.5107 42.5761C76.6686 42.5118 76.8338 42.4475 76.9989 42.3832ZM39.8278 36.3877C39.7991 36.2876 39.756 36.2019 39.7057 36.1375C39.6052 36.0089 39.4544 35.9446 39.2749 35.9446C39.071 35.9446 38.8533 36.02 38.6892 36.0768L38.679 36.0804L38.5713 36.1161C38.1907 36.2376 37.8174 36.3591 37.4368 36.4877C37.0491 36.6235 36.5968 36.795 36.1875 37.0522C35.8644 37.2595 35.5126 37.3166 35.1464 37.3738C34.9956 37.3952 34.8377 37.4238 34.6869 37.4596C34.0119 37.6096 33.4304 37.9669 33.0426 38.4672L33.0346 38.4778C32.9625 38.5727 32.7734 38.8217 32.8631 39.1103C32.9565 39.4247 33.2796 39.4676 33.574 39.4819H33.696C34.2561 39.4819 34.7874 39.3032 35.3259 39.1032C35.929 38.8816 36.4891 38.7244 37.0994 38.5958C37.7097 38.4672 38.2051 38.3314 38.6646 38.1527L38.7364 38.1241L38.7418 38.1221C39.1363 37.9722 39.685 37.7637 39.8565 37.0808C39.8924 36.945 39.8924 36.8021 39.878 36.6878C39.8709 36.6235 39.8565 36.5091 39.8278 36.3877ZM79.0116 33.3519L79.1098 33.3291C79.1888 33.3148 79.2749 33.2934 79.3467 33.2648C79.5119 33.222 79.6842 33.1719 79.8063 33.0576C79.9283 32.9361 79.9786 32.7217 79.8637 32.6002C79.7919 32.5216 79.6842 32.5002 79.5765 32.4788C78.9806 32.3573 78.4133 32.1286 77.8964 31.8142C77.8884 31.8086 77.8802 31.803 77.8719 31.7974L77.8715 31.7971L77.871 31.7968C77.8054 31.7521 77.7351 31.7042 77.7097 31.6284C77.6594 31.4998 77.7528 31.3497 77.8748 31.2854C77.9969 31.2211 78.1405 31.2211 78.2841 31.2282C79.9858 31.2854 81.6157 31.414 83.2742 31.8642C83.3819 31.8928 83.504 31.9285 83.583 32.0143C83.7697 32.2144 83.6261 32.5359 83.4753 32.7646C83.33 32.9815 83.161 33.195 82.9908 33.4102L82.9907 33.4103C82.6731 33.8116 82.3508 34.2189 82.1685 34.6655C81.8885 35.3443 81.5008 35.9017 80.912 36.3662C80.711 36.5306 80.4884 36.6735 80.2299 36.6949C79.9714 36.7164 79.6914 36.5663 79.6411 36.3162C79.6196 36.1947 79.6483 36.0732 79.6842 35.9589C79.7282 35.809 79.7973 35.646 79.8659 35.4845L79.8659 35.4844C80.088 34.9607 80.3034 34.4528 79.6339 34.4582C79.2358 34.4636 77.4832 35.1287 76.4432 35.5234L76.443 35.5234L76.4429 35.5234C76.1138 35.6483 75.856 35.7462 75.7352 35.7874C75.6827 35.8066 75.6354 35.8241 75.5919 35.8401C75.2306 35.9734 75.1336 36.0092 74.5505 36.1304C73.9043 36.2662 73.3011 36.4305 72.6621 36.6449C72.4638 36.7112 72.3155 36.7617 72.1986 36.8015L72.1985 36.8016C72.0002 36.8691 71.8919 36.906 71.7819 36.9369C71.6494 36.9741 71.5145 37.0026 71.217 37.0654L71.2159 37.0656C71.1205 37.0857 71.0083 37.1094 70.8743 37.138C70.7235 37.1737 70.5512 37.2023 70.4219 37.1165C70.2999 37.0379 70.2496 36.8807 70.2065 36.7378C70.1921 36.6874 70.1771 36.6365 70.162 36.5852C70.1523 36.5526 70.1426 36.5199 70.1328 36.487L70.1327 36.4867C70.0969 36.3665 70.0608 36.2449 70.027 36.1232C70.0127 36.0732 69.9983 36.0089 70.027 35.966C70.0486 35.9303 70.0845 35.916 70.1204 35.9017C70.2844 35.834 70.4142 35.7795 70.5204 35.7349L70.5206 35.7348C70.757 35.6356 70.877 35.5851 71.0007 35.5457C71.1282 35.505 71.2596 35.4759 71.5265 35.4169L71.5265 35.4168L71.5272 35.4167C71.6327 35.3934 71.7594 35.3653 71.9154 35.33C72.0805 35.2943 72.2455 35.2658 72.4106 35.2372L72.4108 35.2371L72.4289 35.2339C72.8169 35.1637 73.1772 35.0985 73.5165 34.9156C73.9369 34.6855 74.4051 34.5302 74.8077 34.3967L74.8377 34.3868C75.6125 34.1389 78.0868 33.566 79.0115 33.3519L79.0116 33.3519ZM12.3497 50.9013C12.0625 51.0085 11.7681 51.1371 11.5814 51.3801C11.2655 51.8017 11.3948 52.3877 11.5384 52.895C11.5671 52.9951 11.603 53.0951 11.6891 53.1523C11.7753 53.2023 11.8902 53.1809 11.9907 53.1594L14.5324 52.5592C15.2792 52.3805 16.0905 50.9656 15.3941 50.3153C14.857 49.8164 13.5761 50.3738 12.7713 50.724C12.6077 50.7952 12.4637 50.8578 12.3497 50.9013Z" fill="#FF7D00"/>
</g>
<defs>
<clipPath id="clip0_17367_12667">
<rect width="91" height="80" fill="white"/>
</clipPath>
</defs>
</svg>
