<svg width="128" height="128" viewBox="0 0 128 128" fill="none" xmlns="http://www.w3.org/2000/svg">
<path d="M12 14.8726V113.123C12.0007 113.336 12.0642 113.544 12.1828 113.721C12.3013 113.898 12.4695 114.037 12.6662 114.119C12.863 114.201 13.0796 114.223 13.2889 114.182C13.4981 114.141 13.6907 114.04 13.8425 113.89L65 64.0001L13.8425 14.1051C13.6907 13.9555 13.4981 13.8539 13.2889 13.8133C13.0796 13.7727 12.863 13.7947 12.6662 13.8767C12.4695 13.9587 12.3013 14.0969 12.1828 14.2741C12.0642 14.4512 12.0007 14.6595 12 14.8726Z" fill="white"/>
<path d="M86.4501 43.4998L22.3051 8.15977L22.2651 8.13727C21.1601 7.53727 20.1101 9.03227 21.0151 9.90227L71.2976 57.9823L86.4501 43.4998Z" fill="white"/>
<path d="M21.02 118.098C20.11 118.968 21.16 120.463 22.27 119.863L22.31 119.84L86.45 84.5002L71.2975 70.0127L21.02 118.098Z" fill="white"/>
<path d="M112.345 57.7498L94.4326 47.8848L77.5901 63.9998L94.4326 80.1073L112.345 70.2498C117.218 67.5573 117.218 60.4423 112.345 57.7498Z" fill="white"/>
</svg>
