<svg width="21" height="21" viewBox="0 0 21 21" fill="none" xmlns="http://www.w3.org/2000/svg">
<g clip-path="url(#clip0_2121_9142)">
<path fill-rule="evenodd" clip-rule="evenodd" d="M20.58 10.7387C20.58 9.99412 20.5132 9.27822 20.3891 8.59094H10.5V12.6525H16.1509C15.9075 13.965 15.1677 15.0771 14.0557 15.8216V18.4562H17.4491C19.4345 16.6282 20.58 13.9364 20.58 10.7387Z" fill="#4285F4"/>
<path fill-rule="evenodd" clip-rule="evenodd" d="M10.4998 21C13.3348 21 15.7116 20.0598 17.4488 18.4561L14.0554 15.8216C13.1152 16.4516 11.9125 16.8239 10.4998 16.8239C7.76499 16.8239 5.45021 14.9768 4.62453 12.495H1.11658V15.2155C2.8443 18.647 6.39521 21 10.4998 21Z" fill="#34A853"/>
<path fill-rule="evenodd" clip-rule="evenodd" d="M4.62477 12.495C4.41477 11.865 4.29545 11.192 4.29545 10.5C4.29545 9.80795 4.41477 9.135 4.62477 8.505V5.78455H1.11682C0.405682 7.20205 0 8.80568 0 10.5C0 12.1943 0.405682 13.798 1.11682 15.2155L4.62477 12.495Z" fill="#FBBC05"/>
<path fill-rule="evenodd" clip-rule="evenodd" d="M10.4998 4.17614C12.0413 4.17614 13.4254 4.70591 14.5136 5.74636L17.5252 2.73477C15.7068 1.04045 13.33 0 10.4998 0C6.39521 0 2.8443 2.35295 1.11658 5.78455L4.62453 8.505C5.45021 6.02318 7.76499 4.17614 10.4998 4.17614Z" fill="#EA4335"/>
</g>
<defs>
<clipPath id="clip0_2121_9142">
<rect width="21" height="21" fill="white"/>
</clipPath>
</defs>
</svg>
