<svg width="201" height="106" viewBox="0 0 201 106" fill="none" xmlns="http://www.w3.org/2000/svg">
<g clip-path="url(#clip0_13_2)">
<path d="M0 60.8534H15.2653L23.748 18.6596H8.48072L0 60.8534ZM9.3218 13.6271H24.651L27.1703 1.0029H11.847L9.3218 13.6271ZM21.2028 72.7264H36.4701L45.7979 27.1403H57.2473L58.9355 18.6596H47.7058L48.1313 16.7517C48.7666 13.1556 50.0392 9.11802 55.763 9.11802C59.1593 9.11802 62.3378 9.32979 65.5163 10.8142L67.2144 1.90991C63.6721 0.660025 59.9449 0.014396 56.1885 0C43.89 0 35.4112 7.2101 32.2287 18.6596H26.9285L25.2324 27.1403H30.5326L21.2028 72.7264Z" fill="white"/>
<path d="M69.5459 61.7025C87.5682 61.7025 100.078 45.3743 100.078 32.017C100.078 22.0519 90.9605 17.8105 82.0562 17.8105C62.3318 17.8105 51.5236 35.4192 51.5236 47.496C51.5236 57.4611 60.8534 61.7025 69.5459 61.7025ZM117.893 61.7025C135.915 61.7025 148.426 45.3743 148.426 32.017C148.426 22.0519 139.096 17.8105 130.19 17.8105C110.471 17.8105 99.659 35.4092 99.659 47.496C99.659 57.4611 109.201 61.7025 117.893 61.7025ZM173.232 60.8534H188.286L200.581 0.857056H185.315L181.709 18.6676L175.348 18.0323C160.506 18.0323 146.937 37.1134 146.937 50.6845C146.937 56.1965 150.533 61.7105 156.691 61.7105C165.383 61.7105 171.532 57.4691 174.072 53.2277H174.919L173.232 60.8534ZM126.158 92.4468C114.309 102.265 99.0893 107.059 83.7524 105.804C63.6084 104.532 49.1902 89.0525 46.647 72.7264H47.494C52.1589 82.9153 63.3966 92.4468 77.1796 93.9292C91.1643 95.6253 107.924 89.2663 117.04 80.5718L106.863 72.7264H137.607L130.815 105.381L126.362 92.6586L126.158 92.4468Z" fill="white"/>
</g>
<defs>
<clipPath id="clip0_13_2">
<rect width="200.58" height="106" fill="white"/>
</clipPath>
</defs>
</svg>
