<svg width="66" height="64" viewBox="0 0 66 64" fill="none" xmlns="http://www.w3.org/2000/svg">
<path d="M51.1081 36.9457C51.6251 36.3332 52.049 36.325 52.8451 35.9924C53.8221 35.5867 53.7187 35.2297 54.0754 34.5076C54.6182 33.4203 54.8509 34.4102 55.8124 34.0573C56.0812 33.9558 56.014 33.5217 56.2311 33.3676C56.5 33.185 56.7688 33.2378 57.0583 33.1323C57.9991 32.7996 58.0663 32.3818 58.7952 31.8179C59.5345 31.2458 60.5839 31.0957 61.3748 30.5765C61.928 30.2154 62.7551 29.5744 62.1606 28.9943C61.8091 28.6494 61.0905 28.5926 60.4236 28.4993C59.9894 28.4385 59.8602 28.0044 60.2065 27.7894C60.9303 27.3391 61.38 26.8198 61.0802 26.0774C60.9923 25.8624 61.1319 25.6311 61.411 25.5621C62.0986 25.3918 62.5794 25.1727 62.7396 24.5926C62.7913 24.4059 62.9877 24.2639 63.2307 24.2721C63.5822 24.2802 63.9338 24.1463 64.1354 23.8867C64.5076 23.3958 63.9286 22.986 63.6701 22.556C63.1945 21.769 63.2928 21.7406 64.2543 21.3633C64.7454 21.1726 65.557 21.0347 65.831 20.6168C66.4875 19.6229 65.0762 19.0955 64.2491 18.6776C63.3703 18.2314 62.8172 17.8054 62.4243 17.1888C62.2071 16.8439 62.4449 16.4382 62.9102 16.3044C63.7994 16.0407 64.5024 15.3469 64.5748 14.5964C64.6782 13.5741 63.4168 13.3225 63.2979 12.5152C63.1894 11.7647 64.8488 11.1075 64.7454 10.2921C64.6162 9.28595 62.7965 9.54153 61.9693 9.19264C61.2404 8.88432 61.3128 8.4908 60.8734 8.0486C60.4443 7.61857 59.6896 7.36299 59.0796 7.11552C57.9319 6.65304 56.4741 6.55567 55.7297 5.72401C55.2127 5.14794 55.3316 5.20067 54.4787 4.9532C53.7136 4.73008 53.8738 4.7747 53.4758 4.24325C52.9898 3.59009 52.9898 3.31017 53.2225 2.83957C53.3775 2.52313 53.0932 2.17019 52.659 2.14584C51.532 2.08905 50.281 2.80712 49.2367 2.13773C48.7456 1.82535 48.6991 1.17219 48.0994 0.957179C47.4326 0.72188 46.5641 1.1154 46.104 1.44806C45.5612 1.83752 45.3699 2.58804 44.6203 2.799C43.8397 3.01807 43.2556 2.46634 42.5318 2.30001C41.653 2.10122 38.4737 2.01197 38.5047 2.96533C38.5306 3.7402 40.0866 4.17023 38.9907 4.76659C38.3083 5.13982 37.1451 4.83556 36.3852 4.90047C35.2272 5.00189 32.5908 5.8944 32.3323 6.96947C32.1307 7.82142 34.8757 8.82347 32.8648 9.11962C31.1019 9.37926 30.006 7.48875 28.9928 9.08311C28.6516 9.62267 27.9227 10.2474 27.7107 10.8032C27.4677 11.4402 28.0984 11.927 27.3902 12.4747C26.6923 13.0183 25.4516 12.8317 24.7692 13.424C24.1902 13.927 24.1282 14.8601 23.9111 15.497C23.42 16.9413 22.8668 18.702 21.2488 19.5985C20.6181 19.9515 19.7909 19.9271 19.4549 20.5478C18.9587 21.4769 19.9667 21.6391 20.6181 22.1463C20.2872 22.4181 20.0856 22.7994 19.7134 23.0428C19.3154 23.2984 18.8604 23.3228 18.4831 23.623C17.8162 24.1544 17.4957 25.1037 17.2527 25.7934C17.0459 26.3776 16.5858 27.1403 16.6996 27.761C16.8185 28.4344 17.6611 28.6697 17.8627 29.2336C18.4831 30.9781 15.6863 31.2377 15.0556 32.5035C14.7765 33.0593 15.2056 33.3757 15.8569 33.5136C16.5238 33.6556 17.1493 33.7692 17.8317 33.6029C18.4469 33.4487 19.0414 33.7084 18.9948 34.2804C18.9742 34.682 18.6123 35.0309 18.3538 35.3433C17.9351 35.8463 17.3199 36.39 17.0304 36.9498C16.7357 37.5299 16.7616 38.1141 17.0201 38.7186C17.1286 38.9742 17.6404 39.4042 17.6714 39.6355C17.7386 40.0939 17.2424 40.4793 16.7926 40.9255C15.4175 42.2927 13.8253 43.4733 12.2744 44.7147C11.256 45.5301 9.93261 47.0961 8.22149 46.7999C6.71198 46.5403 5.65739 45.7086 4.00313 45.7695C2.71591 45.8181 0.477495 46.2887 0.0587611 47.3841C-0.106665 47.8182 0.125965 48.2482 0.162152 48.6782C0.208678 49.2016 0.0587611 49.733 0.0380829 50.2564C-0.0239518 52.159 1.36149 53.7737 2.40574 55.4045C2.64354 55.7778 2.90202 56.1429 3.176 56.4999C3.47067 56.8853 3.47067 56.8853 3.47067 56.8853C2.94854 57.6318 3.04159 58.4269 3.0571 58.9422C3.07261 59.4574 3.28973 59.9685 3.55855 60.4351C4.39602 61.8956 5.71942 62.7799 7.74589 63.0315C10.8735 63.4209 14.3991 62.4473 15.4227 59.8955C15.7845 58.9989 15.738 58.0496 15.371 57.1571C15.0608 56.3985 14.5128 55.7129 15.1332 54.9421C16.7874 52.8893 18.4262 50.8406 19.9822 48.7513C20.2355 48.4105 21.6313 46.8283 21.0058 46.4186C20.22 45.9074 18.5554 47.1813 18.1005 47.6113C17.0459 48.6093 16.0895 49.6681 15.0608 50.6823C14.0941 51.6316 12.8586 52.4755 12.14 53.5587C9.28642 51.8913 7.63733 53.5749 5.44027 54.8893C4.06517 53.2706 3.42414 51.7371 3.73948 49.7614C3.87906 48.9054 4.58212 48.2523 5.82798 48.5444C6.64477 48.735 7.16173 49.4369 8.02504 49.6032C9.26057 49.8385 9.52421 49.2705 10.1601 48.6214C10.9355 47.8263 12.2486 47.1934 13.2308 46.5565C14.5904 45.6802 15.9448 44.7958 17.1907 43.8181C17.8058 43.3353 18.4262 42.8282 18.9483 42.2805C19.4291 41.7775 19.8271 41.2176 20.463 40.816C20.9334 40.5158 20.9851 40.2967 21.5331 40.8444C21.9208 41.2339 21.8639 41.7694 21.926 42.2278C22.1586 43.8384 22.7324 46.2157 25.5705 45.7695C26.6561 45.5991 27.3437 44.8323 28.4034 44.6051C29.8612 44.2928 30.3265 44.3536 31.1433 43.1933C31.7223 42.3698 31.9342 41.5868 33.2938 41.4489C34.1675 41.3596 34.9016 41.7734 35.4133 41.5219C35.708 41.3759 36.0906 41.388 36.2973 41.6071C36.6385 41.9682 36.8608 42.4306 37.4863 42.5889C38.3652 42.812 38.8201 42.4023 39.4559 42.0168C40.0608 41.6477 40.9448 41.5949 41.4876 41.1974C42.0097 40.816 41.9632 40.1872 42.2527 39.7491C44.1292 36.9092 49.1902 39.2176 51.1081 36.9457ZM57.5132 9.3468C57.8751 8.7261 59.2708 9.30624 58.8883 9.88637C58.4954 10.4787 57.1358 9.9959 57.5132 9.3468ZM51.47 33.822C51.1495 32.9903 52.7624 33.0471 52.7417 33.7936C52.5349 34.2682 51.6974 34.4143 51.47 33.822ZM51.6302 16.3611C51.8835 15.6755 53.2845 15.355 53.2535 16.3287C53.2225 17.1036 51.2735 17.3307 51.6302 16.3611ZM52.9743 22.487C52.6693 23.1767 51.3097 23.7731 51.0512 22.6939C50.7618 21.5134 53.574 21.1158 52.9743 22.487ZM10.4806 54.9542C12.1659 55.6642 11.7781 56.4472 11.9746 57.7048C12.047 58.1632 12.4192 58.6825 11.7316 59.0111C11.1268 59.3032 10.0722 58.8772 9.52422 58.6703C7.88547 58.0537 7.04283 57.0354 6.17434 55.8346C6.93944 54.5039 8.95556 54.3092 10.4806 54.9542ZM9.88091 61.3114C9.94812 61.3357 10.0153 61.36 10.0825 61.3844C7.9992 61.5548 5.76078 60.5487 5.554 58.857C6.83088 59.8428 8.30937 60.6541 9.88091 61.3114ZM20.0236 37.0472C19.6359 37.3636 19.0827 37.8667 18.8863 37.1973C18.7467 36.7145 19.517 35.9964 20.0029 35.7571C20.3493 35.5826 20.6336 35.822 20.6543 36.0857C20.6801 36.4224 20.2976 36.8078 20.0236 37.0472ZM26.8991 43.4773C26.5062 43.6518 26.2477 43.6234 25.9324 43.5463C25.7308 43.4976 25.6274 43.3191 25.7153 43.169C26.4287 41.9438 27.5608 43.1852 26.8991 43.4773ZM27.566 38.8119C27.4367 38.9864 27.1938 39.0918 26.956 39.1689C26.6871 39.2582 26.2426 39.3353 26.1754 39.0188C26.165 38.9782 26.165 38.9377 26.165 38.8931C26.1702 38.7064 26.2477 38.4914 26.2736 38.321C26.377 37.6395 28.0209 38.2034 27.566 38.8119ZM28.8015 24.3451C28.4189 24.7386 27.7055 24.4059 27.6745 23.9516C27.6073 23.055 29.5407 23.5864 28.8015 24.3451ZM28.9514 18.5356C28.7601 18.6168 28.543 18.6817 28.3362 18.7466C28.0209 18.844 27.6642 18.7101 27.5711 18.4545C27.3902 17.9636 27.6228 17.5295 28.2328 17.3105C28.512 17.209 28.8377 17.3226 28.9669 17.5417C29.0548 17.6877 29.1427 17.8419 29.2099 17.992C29.3081 18.1989 29.1995 18.4342 28.9514 18.5356ZM31.2312 32.8848C30.1507 32.2398 31.3863 31.1728 32.0221 32.3615C32.3271 32.9213 31.8722 33.2662 31.2312 32.8848ZM33.3507 39.9154C32.9526 39.9844 32.5597 39.9194 32.172 39.7207C31.8929 39.5584 31.7223 39.2014 31.6913 38.8728C31.6758 38.6943 31.9394 38.5766 32.1255 38.6861C32.5908 38.9539 33.0302 39.246 33.4696 39.5422C33.6402 39.6517 33.5678 39.8748 33.3507 39.9154ZM37.3829 6.41368C37.4915 7.01004 36.3749 7.95124 35.7183 7.40356C34.762 6.61247 37.1917 5.38729 37.3829 6.41368ZM35.2479 19.773C34.4156 18.0407 39.3008 16.8196 38.7012 18.4383C38.3858 19.2943 38.0291 19.9028 36.8453 20.1746C36.1836 20.3288 35.5374 20.3734 35.2479 19.773ZM38.1842 34.4386C38.1687 34.4548 38.148 34.4711 38.1274 34.4832C37.0934 35.2216 36.1784 34.4143 37.0366 33.6353C37.1865 33.5015 37.4553 33.5015 37.6001 33.6353C37.8069 33.8301 38.024 34.0126 38.1739 34.2358C38.2049 34.2804 38.2308 34.3291 38.2152 34.3777C38.2152 34.4061 38.2049 34.4224 38.1842 34.4386ZM40.8569 39.6963C40.5519 40.0249 40.1797 40.3008 39.7765 40.5685C39.3422 40.8566 38.7167 40.2237 38.8149 39.9235C38.9442 39.5219 39.854 39.3961 40.5622 39.319C40.8259 39.2906 41.0171 39.5259 40.8569 39.6963ZM39.1819 31.5339C39.0217 31.3716 39.1044 30.6535 38.9855 30.3858C38.7942 29.9679 38.4117 29.6677 38.1015 29.3107C37.8689 29.047 37.6931 28.8685 37.6156 28.6494C37.5225 28.3898 37.7965 28.1342 38.1377 28.1667C38.5461 28.2032 38.8408 28.3452 39.2233 28.6494C39.6679 29.0024 40.9965 30.1099 41.012 30.5805C41.0378 31.3391 39.8953 32.2641 39.1819 31.5339ZM47.5256 26.2762C48.1149 25.3471 49.123 26.621 49.0713 27.2701C49.0093 28.0815 46.9828 27.1322 47.5256 26.2762Z" fill="#FF7D00"/>
</svg>
