<svg width="320" height="320" viewBox="0 0 320 320" fill="none" xmlns="http://www.w3.org/2000/svg">
<path d="M242.751 249.1C242.972 244.756 242.869 240.362 243.105 236.024C243.347 231.638 243.628 225.372 243.941 224.414C244.248 223.504 244.402 222.535 244.612 221.6C245.033 219.58 245.382 217.556 245.654 215.504C246.273 211.025 246.63 206.483 246.9 201.932C247.131 198.119 246.442 194.05 244.725 190.159C244.26 189.101 243.694 187.877 242.63 186.988C241.965 186.442 239.944 185.182 239.293 185.306C238.865 185.39 237.809 187.391 237.485 187.855C236.978 188.612 236.686 189.453 236.554 190.343C236.252 192.384 236.159 194.519 236.088 196.612C236.006 198.839 236.124 201.068 236.747 203.355C237.321 205.409 238.158 207.491 237.752 209.479C237.492 210.809 237.148 211.83 237.233 213.243C237.312 214.629 237.562 216.044 237.57 217.427C237.58 219.062 237.024 220.616 236.911 222.241C236.747 224.411 236.824 226.612 236.798 228.798C236.709 233.431 235.815 238.054 236.848 242.796C237.352 245.138 236.548 247.26 236.435 249.513C236.311 251.748 236.49 254.039 237 256.332C238.064 261.124 236.973 265.846 236.703 270.51C236.449 275.029 236.231 279.588 236.595 284.196C236.761 286.369 237.55 288.582 237.54 290.736C237.526 292.751 236.746 294.607 236.891 296.671C237.196 300.994 237.311 305.254 237.988 309.607C238.143 310.584 237.308 313.949 239.677 313.7C242.046 313.452 241.626 309.876 241.432 308.571C241.044 305.923 240.182 303.305 239.66 300.668C239.222 298.378 240.193 296.508 240.754 294.429C242.085 289.486 241.787 284.339 241.815 279.167C241.838 276.692 242.092 274.306 241.631 271.768C241.17 269.23 240.941 266.744 240.99 264.254C241.029 261.784 241.17 259.329 241.327 256.88C241.532 254.224 242.628 251.775 242.751 249.1Z" fill="#FF7D00"/>
<path d="M186.362 182.728C188.814 181.305 191.276 181.686 193.75 181.568C194.982 181.497 196.219 181.506 197.45 181.532C203.389 181.618 209.358 181.25 215.235 181.544C218.537 181.705 221.868 181.508 225.17 181.011C227.921 180.592 230.651 180.321 233.397 179.959C235.069 179.727 236.771 179.604 238.399 178.64C239.191 178.169 240.26 178.288 241.134 178.119C242.958 177.772 244.811 177.629 246.642 177.594C247.694 177.571 248.626 177.25 249.528 176.821C250.252 176.478 250.596 175.487 250.123 174.842C249.93 174.593 249.736 174.538 249.451 174.623C245.487 175.816 241.619 175.536 237.724 175.516C236.952 175.511 236.102 175.476 235.391 175.785C233.553 176.591 231.734 176.457 229.909 176.571C227.955 176.695 225.981 176.636 224.028 176.992C220.312 177.68 216.694 177.592 213.06 177.266C208.918 176.9 204.729 176.71 200.532 176.536C196.597 176.385 192.586 176.573 188.665 176.195C186.044 175.947 183.447 175.824 180.786 176.102C178.542 176.327 176.298 176.456 174.055 176.585C169.659 176.838 165.267 177.035 160.864 177.305C158.614 177.45 156.352 177.862 154.1 177.872C151.552 177.903 149.046 178.105 146.505 178.682C144.018 179.259 141.497 179.688 138.942 179.175C137.788 178.946 136.541 179.011 135.34 179.093C132.292 179.301 129.271 179.442 126.3 178.556C125.044 178.172 123.671 177.859 122.341 177.951C120.5 178.059 118.909 177.566 117.251 177.009C114.696 176.167 112.087 175.652 109.29 176.285C107.974 176.575 106.577 176.466 105.227 176.375C100.093 176.017 94.9777 176.46 89.8553 177.248C89.4299 177.279 88.7459 177.327 88.3362 177.364C80.9907 177.146 63.1025 179.05 61.457 179.214C60.0919 179.35 58.7194 179.599 57.3581 179.678C57.3424 179.672 57.336 179.689 57.3203 179.683C55.9969 179.757 55.1389 178.286 55.7685 177.017C56.2699 175.989 55.7137 174.247 55.6677 173.145C55.631 172.396 55.4585 171.671 55.2196 170.98C53.7317 166.596 53.7861 161.99 53.2665 157.474C52.6906 152.587 53.4031 147.672 53.6523 142.791C53.8959 138.161 53.9633 133.521 52.1321 129.141C51.9688 128.769 51.9607 128.321 51.8638 127.916C50.9923 124.601 51.0779 120.994 48.3678 118.253C47.3168 117.192 50.4609 113.865 51.0986 114.032C54.0167 114.82 56.1135 114.558 59.0918 114.342C60.5574 114.226 62.921 114.395 64.3542 114.692C68.1352 115.481 71.9135 116.23 75.738 116.764C79.6003 117.294 83.1865 118.028 87.3057 116.759C89.4664 116.095 92.0551 116.757 94.0098 116.866C97.3461 117.078 100.669 117.325 103.996 117.61C108.826 118.007 113.627 118.528 118.505 118.189C118.802 118.167 119.264 118.227 119.537 118.313C121.5 118.87 123.524 118.658 125.541 118.558C128.897 118.391 132.208 118.245 135.407 119.238C136.547 119.596 137.863 119.636 139.111 119.571C144.111 119.336 149.11 118.965 154.092 118.684C154.48 118.658 154.876 118.655 155.267 118.669C158.711 118.787 162.149 118.922 165.574 119.091C166.6 119.135 167.664 119.175 168.629 119.428C171.186 120.077 173.839 120.241 176.477 119.741C180.058 119.079 183.606 118.927 187.079 119.675C190.24 120.343 193.495 120.253 196.805 119.875C201.039 119.385 205.377 118.955 209.423 119.71C213.871 120.541 218.346 121.208 222.77 122.011C228.051 122.968 233.319 123.164 238.758 122.768C242.124 122.527 245.489 122.383 248.763 122.9C250.052 123.103 251.42 123.007 252.758 123.035C254.043 123.062 255.34 123.056 256.968 123.079C256.889 122.158 257.029 121.417 256.743 121.037C255.449 119.341 253.327 118.916 251.316 118.437C247.605 117.559 243.657 117.77 239.745 117.841C237.045 117.892 234.446 117.633 231.9 116.813C227.794 115.512 223.49 114.678 219.023 114.459C217.415 114.385 215.773 114.493 214.155 114.396C208.769 114.135 203.391 113.664 197.953 113.538C192.172 113.416 186.412 112.818 180.516 113.465C178.977 113.631 177.44 113.701 175.897 113.691C173.399 113.684 170.883 113.631 168.393 113.51C163.193 113.281 157.956 113.194 152.685 114.041C152.414 114.092 152.157 114.246 151.886 114.297C151.479 114.373 151.056 114.444 150.653 114.464C145.022 114.748 116.969 112.335 111.85 112.505C92.0206 113.181 74.7681 111.263 72.2321 110.699C69.6111 110.121 67.1461 109.371 64.4149 110.727C63.4181 111.216 58.3414 105.73 57.0982 105.641C55.8394 105.547 54.5935 105.089 53.3522 105.137C51.0901 105.22 48.8197 105.512 46.565 105.811C43.8026 106.167 43.0881 107.094 42.5302 109.726C41.8632 112.878 45.5569 121.32 44.4498 124.4C44.1229 125.301 44.0969 126.356 44.1788 127.317C44.317 128.976 44.5778 130.644 44.9051 132.28C45.6972 136.32 45.8034 140.271 44.9194 144.366C43.9522 148.913 43.7963 153.597 44.3178 158.249C44.6753 161.31 45.1399 164.372 45.3839 167.447C45.5855 170.022 46.1507 172.445 47.363 174.729C47.8022 175.555 48.233 176.592 48.1267 177.48C47.7255 180.831 49.3179 183.531 50.6768 186.278C51.5726 188.073 53.0979 189.257 55.3784 189.549C55.912 188.766 56.5555 188.025 56.9544 187.171C57.3403 186.35 56.8411 185.211 57.6544 184.496C58.8043 184.452 59.6922 184.811 60.47 185.457C61.4823 186.29 62.827 186.631 64.1209 186.352C64.4144 186.29 64.6885 186.278 64.9173 186.385C66.9365 187.313 68.7993 185.219 70.7299 186.19C70.7769 186.208 78.8515 185.93 85.3138 185.635C86.676 185.789 88.0429 185.789 89.3821 185.721C94.424 185.425 99.3929 185.836 104.375 185.884C105.184 185.884 106.054 186.198 106.768 185.929C108.525 185.285 110.264 185.583 112.009 185.535C114.709 185.484 117.412 185.376 120.089 185.336C121.554 185.316 123.018 185.392 124.479 185.429C126.352 185.468 128.307 185.907 130.069 185.439C136.867 183.608 143.666 183.984 150.42 183.82C156.283 183.683 162.064 184.463 167.931 184.076C168.593 184.039 169.284 183.974 169.918 184.101C174.362 185.085 178.844 184.09 183.333 183.311C184.286 183.173 185.46 183.254 186.362 182.728Z" fill="#FF7D00"/>
<path d="M278.202 95.2153C277.307 94.2645 275.975 94.3077 274.701 94.0967C273.306 93.8756 271.883 93.7976 270.42 93.934C268.92 94.0732 267.593 94.6348 266.489 95.4679C266.303 95.6037 266.016 96.0097 265.735 96.4025C265.353 96.944 264.615 97.2304 263.884 97.0936C263.853 97.0832 263.837 97.0779 263.868 97.0884C260.744 97.1584 257.265 96.8068 254.12 96.5965C250.605 96.3693 247.122 95.7426 243.709 94.9569C237.333 93.505 231.125 91.4703 224.631 90.4501C217.69 89.3421 210.458 89.6718 203.511 90.2939C200.027 90.6089 196.58 91.0428 193.139 91.5852C192.158 91.7299 191.187 91.8931 190.21 92.0695C189.879 92.1266 189.548 92.1837 189.217 92.2408C188.458 92.657 187.966 92.5084 187.735 91.8085C186.428 90.9786 186.247 90.2044 184.608 89.8416C182.018 89.2689 178.842 88.9265 176.369 90.049C172.616 91.7488 172.988 95.1094 174.422 98.1846C175.368 100.201 178.774 103.249 181.257 103.573C184.368 103.985 187.403 102.077 188.463 99.7095C188.738 99.0866 188.765 98.2902 189.09 97.7146C189.845 96.37 188.444 97.1806 190.193 96.9265C191.595 96.7243 193.821 97.3885 195.255 97.5618C199.2 98.0382 203.153 98.4564 207.112 98.8614C215.748 99.7129 224.386 100.398 233.049 100.985C234.08 101.054 235.11 101.123 236.125 101.187C236.77 101.235 239.861 101.078 240.254 101.451C240.816 101.973 240.063 105.886 240.025 106.709C239.931 108.881 240.076 110.92 240.556 112.933C240.901 114.355 243.319 114.339 243.552 112.912C243.689 112.152 243.767 111.403 243.9 110.733C244.338 108.31 244.675 105.87 244.938 103.435C244.965 103.17 244.904 101.919 245.117 101.762C245.331 101.605 246.852 101.868 247.169 101.882C248.607 101.966 250.046 102.049 251.482 102.056C253.527 102.067 255.574 101.912 257.619 101.802C259.149 101.718 260.497 102.699 260.678 104.005C260.83 105.089 261.031 106.143 260.948 107.271C260.8 109.486 260.598 111.698 260.466 113.918C260.196 118.205 260.705 122.522 260.282 126.789C259.552 134.083 259.111 141.412 259.317 148.744C259.423 152.381 259.371 156.011 259.447 159.637C259.476 160.878 259.497 161.523 258.956 162.589C258.484 163.496 257.907 164.276 257.618 165.259C256.502 168.976 256.474 173.449 256.509 177.29C256.536 179.229 256.922 181.09 257.178 182.998C257.477 185.179 258.167 187.369 257.762 189.514C257.307 191.976 257.11 194.464 257.268 196.963C257.48 200.239 256.509 203.381 256.313 206.644C256.065 210.801 256.05 214.96 255.521 219.099C255.068 222.702 255.28 226.343 255.663 229.966C255.869 231.949 255.304 233.843 255.055 235.796C254.778 237.938 254.706 240.102 254.851 242.263C254.991 244.436 255.692 246.6 255.695 248.758C255.696 251.084 255.186 253.467 254.975 255.782C254.164 264.402 252.755 273.522 253.993 282.185C254.325 284.453 254.568 286.555 254.163 288.822C253.766 291.03 253.498 293.068 253.677 295.315C254.065 299.988 253.685 304.527 254.184 309.191C254.289 310.259 253.354 314.096 255.515 314.01C257.309 313.938 257.902 310.427 257.919 309.369C258.012 304.462 255.473 298.344 259.53 298.28C261.03 298.263 260.653 301.283 262.324 301.778C263.167 302.028 263.557 301.96 264.154 301.216C264.79 300.425 264.589 300.024 264.604 299.011C264.623 297.497 265.148 296.061 265.204 294.545C265.302 291.341 264.74 287.841 265.84 284.773C267.005 281.514 265.84 277.707 266.038 274.278C266.23 270.984 267.686 267.228 266.476 264.015C265.269 260.832 264.949 257.231 264.522 253.913C263.588 246.643 264.519 238.975 264.847 231.698C265.007 228.15 266.147 224.746 266.401 221.229C266.655 217.712 266.868 214.166 266.895 210.634C266.933 207.076 266.221 203.588 266.09 200.049C265.959 196.343 266.269 192.617 266.213 188.906C266.164 185.425 266.583 181.902 267.062 178.445C267.508 175.311 268.932 172.199 268.892 169.024C268.844 165.498 267.556 161.848 267.17 158.316C267.079 157.541 266.973 156.761 267.01 155.983C267.017 155.682 267.205 155.213 267.154 154.922C267.098 154.599 266.87 154.463 266.807 154.199C266.641 153.308 266.814 152.834 267.067 151.975C267.361 150.979 267.137 150.753 266.831 149.815C266.236 148.022 266.938 146.265 266.465 144.481C265.971 142.661 265.288 141.355 265.261 139.416C265.217 135.146 265.543 130.894 265.817 126.639C266.085 122.519 265.069 118.412 265.253 114.279C265.46 110.094 263.783 101.406 266.853 103.992C267.837 104.821 268.831 105.79 269.914 106.515C270.998 107.24 271.907 107.953 273.244 108.063C274.564 108.168 275.898 107.836 277.001 107.292C279.321 106.149 280.213 104.409 280.726 102.224C281.38 99.3115 280.324 97.5017 278.202 95.2153Z" fill="#FF7D00"/>
<path d="M237.406 81.7223C238.884 82.9356 240.042 84.422 241.548 85.6099C243.161 86.893 244.82 88.1037 246.495 89.3203C247.911 90.3661 249.356 91.8545 251.157 91.8962C252.676 91.9203 254.2 91.3704 255.712 91.3197C257.502 91.2493 258.904 91.3 260.623 90.5193C261.6 90.0836 262.524 89.502 263.426 88.9301C264.165 88.4573 265.396 87.1662 266.243 87.0225C267.31 86.8194 268.335 87.5714 269.495 86.9364C270.972 86.1344 271.369 84.344 271.753 82.872C272.733 79.1823 276.622 76.3539 277.302 72.6032C278.052 68.4833 275.084 63.6421 273.86 59.558C272.658 55.5546 270.301 52.5481 267.619 49.4528C266.638 48.3038 265.726 47.0195 264.331 46.3415C263.404 45.8968 262.574 45.903 261.711 45.9502C260.96 45.9864 260.41 45.3082 260.564 44.5759C261.427 40.5354 259.681 36.8272 255.23 36.2386C253.257 35.9872 250.903 36.453 249.384 37.7423C247.804 39.098 247.889 41.2711 248.399 43.2289C248.581 43.9281 248.067 44.6128 247.343 44.6236C243.517 44.7057 240.105 45.3963 236.724 47.5557C233.584 49.5556 229.935 52.5114 229.407 56.4284C228.801 60.7832 230.135 66.3663 231.15 70.6221C232.142 74.7971 233.992 78.9406 237.406 81.7223ZM236.212 68.2067C235.624 63.9165 237.802 58.1311 240.311 54.6307C243.505 50.1873 249.176 50.3615 254.151 50.5212C259.174 50.6989 263.715 50.2068 267.095 54.4865C269.286 57.2677 270.712 60.6376 271.261 64.1391C271.637 66.5856 270.337 68.9479 268.13 70.0635C266.216 71.0217 264.299 72.4106 262.488 71.0337C260.898 69.8314 261.35 67.5223 260.215 66.1167C258.842 64.44 256.602 65.2191 254.934 65.9117C252.484 66.9528 250.093 68.2677 249.241 70.9634C248.109 74.5773 253.092 81.7188 247.607 82.1377C246.775 82.1969 246.041 81.718 245.267 81.4395C244.523 81.1729 243.764 80.9004 243.091 80.4986C238.734 77.8776 236.856 72.9141 236.212 68.2067Z" fill="#FF7D00"/>
<path d="M237.148 145.848C235.629 145.221 233.799 144.522 232.609 143.972C231.452 143.435 231.042 142.898 231.044 142.095C231.044 141.03 232.164 140.451 233.558 140.473C235.7 140.497 237.368 141.494 238.871 143.125L243.652 138.243C241.643 135.499 238.185 133.742 233.728 133.709C227.71 133.651 222.983 136.515 222.93 142.254C222.89 146.784 225.053 148.983 229.279 150.842C230.476 151.374 232.086 151.847 233.282 152.379C234.335 152.842 234.991 153.316 234.988 154.175C234.986 154.978 234.273 155.625 232.243 155.604C230.363 155.579 227.681 154.805 225.722 153.518L222.798 159.39C225.517 161.392 228.828 162.238 232.203 162.264C237.457 162.315 243.099 160.091 243.153 153.978C243.172 149.348 240.245 147.142 237.148 145.848ZM73.6912 132.056C70.5032 131.87 65.082 132.135 62.7701 132.276L62.8934 139.162L65.1046 139.041L64.9092 160.511L73.4433 160.592L73.4963 155.226C85.9668 154.747 88.9523 148.112 88.9887 143.432C89.0457 136.777 83.6457 132.618 73.6912 132.056ZM73.5484 148.533L73.6269 139.156C79.0557 139.456 80.3457 141.797 80.3318 143.7C80.3219 146.388 78.5031 148.479 73.5484 148.533ZM158.938 133.14C150.7 133.068 144.937 138.989 144.865 147.228C144.794 155.466 150.122 161.638 159.554 161.718C163.782 161.764 167.48 160.763 170.468 158.485L167.197 152.363C165.009 153.856 162.664 154.678 159.997 154.657C156.439 154.622 154.362 152.976 153.576 150.157L171.749 150.316C171.907 149.493 172.073 147.906 172.062 146.5C172.045 140.642 169.017 133.241 158.938 133.14ZM153.541 144.405C154.221 141.672 155.997 139.809 158.903 139.839C161.681 139.862 163.668 141.495 163.865 144.499L153.541 144.405ZM104.172 132.837C96.3402 132.778 89.7596 138.524 89.699 146.785C89.6217 155.04 96.0985 160.924 103.93 160.983C111.762 161.043 118.342 155.297 118.403 147.036C118.463 138.775 112.02 132.902 104.172 132.837ZM104.057 153.437C100.253 153.41 97.8517 150.453 97.8993 146.805C97.9303 143.152 100.37 140.251 104.175 140.279C107.979 140.307 110.38 143.263 110.332 146.911C110.318 150.57 107.878 153.471 104.057 153.437ZM189.154 134.408L183.697 145.895L178.679 134.317L169.414 134.24L179.12 154.028L179.06 161.541L187.952 161.618L188.011 154.104L198.587 134.487L189.154 134.408ZM129.064 132.814C125.909 132.641 120.533 132.883 118.255 133.036L118.379 139.867L120.573 139.74L120.382 160.986L128.827 161.055L128.879 155.745C141.238 155.264 144.177 148.706 144.219 144.065C144.269 137.483 138.924 133.38 129.064 132.814ZM128.935 149.147L129.017 139.865C134.39 140.164 135.67 142.483 135.651 144.346C135.63 147.012 133.817 149.086 128.935 149.147ZM209.112 133.586C200.873 133.514 195.11 139.435 195.038 147.674C194.967 155.912 200.407 162.086 209.655 162.157C213.515 162.186 216.864 161.381 219.673 159.507L216.662 153.177C214.644 154.45 212.535 155.13 210.076 155.107C206.668 155.069 204.552 153.428 203.749 150.603L221.906 150.757C222.064 149.934 222.229 148.346 222.218 146.94C222.223 141.072 219.196 133.67 209.112 133.586ZM203.736 144.84C204.416 142.107 206.193 140.244 209.099 140.274C211.876 140.297 213.875 141.952 214.061 144.934L203.736 144.84Z" fill="#FF7D00"/>
</svg>
