<svg width="92" height="68" viewBox="0 0 92 68" fill="none" xmlns="http://www.w3.org/2000/svg">
<path fill-rule="evenodd" clip-rule="evenodd" d="M17.1355 2.7055C17.0993 5.22358 17.292 11.741 19.6504 20.6505C18.6309 19.8143 17.5466 19.0005 16.4 18.2368C16.0589 18.0096 15.5992 18.0978 15.3731 18.4337C15.147 18.7696 15.2404 19.2262 15.5814 19.4533C20.8088 22.9352 26.6833 28.9901 28.9783 34.021C27.86 32.9596 24.7299 30.2429 20.9171 27.9074L10.3917 16.6223C11.1329 16.9393 11.8738 17.2928 12.6073 17.6797C12.9698 17.871 13.4176 17.7361 13.6072 17.3786C13.7974 17.0207 13.6566 16.5759 13.294 16.3848C11.9733 15.688 10.6277 15.0937 9.29482 14.6184C8.82198 14.4498 8.30004 14.621 8.02566 15.0347C7.7507 15.4491 7.79795 15.9948 8.14021 16.3619L16.8497 25.7C14.3132 24.5 11.5645 23.528 8.65876 22.9808C8.09468 22.8746 7.54116 23.1635 7.31264 23.6831C7.08351 24.2042 7.24554 24.8079 7.70611 25.1522L21.7137 35.621C25.3565 38.3435 28.3443 41.9261 30.3543 45.9814C32.6238 50.5606 36.8789 47.2631 35.8906 45.269C35.7705 45.0267 34.0906 41.0879 34.1103 41.1274C32.812 38.508 32.5901 33.9665 33.4688 27.9941C33.5278 27.5933 33.2473 27.2181 32.8424 27.156C32.4374 27.0938 32.061 27.3682 32.0025 27.7691C31.4903 31.2499 31.3372 34.2364 31.5418 36.7074C30.9854 34.7798 30.1918 32.9074 29.1184 31.1145C29.0616 28.9752 29.1647 26.7841 29.511 24.6475C29.9506 21.9343 31.4001 19.5043 33.5919 17.8049L34.2765 17.2743C33.7988 18.9826 33.1545 21.4828 32.5975 24.32C32.5194 24.7173 32.7818 25.1051 33.1835 25.1862C33.5851 25.2672 33.974 25.0108 34.052 24.6134C34.7695 20.9593 35.6338 17.8738 36.0852 16.3595C36.3698 15.4042 35.2373 14.6584 34.4764 15.2464C34.315 15.3715 34.1426 15.5019 33.9616 15.6387L33.9616 15.6387C31.9382 17.1688 28.8401 19.5116 28.0477 24.4017C27.9373 25.0826 27.8485 25.7835 27.7809 26.5019C24.6666 19.0176 21.0091 9.63402 19.0407 2.48263C18.7456 1.41027 17.1517 1.59683 17.1355 2.7055ZM34.4692 45.1916L32.1494 46.3046L31.6733 45.3442C29.5608 41.0824 26.4205 37.3175 22.5918 34.4564L9.48269 24.6604C15.5813 26.0577 21.2888 29.4571 26.0657 33.4307C30.5176 37.1387 31.6281 39.4033 33.7909 43.8138C34.0052 44.2508 34.2299 44.7089 34.4692 45.1916ZM21.6788 22.4091C23.399 23.9947 25.1386 25.8391 26.7138 27.7615C24.0385 21.3642 20.8999 13.4344 18.7461 6.64834C19.0021 10.2965 19.7314 15.7497 21.6788 22.4091Z" fill="#FF7D00"/>
<path d="M70.5713 36.0884L71.6685 37.353L47.1643 58.6953L46.0672 57.4307L70.5713 36.0884Z" fill="#FF7D00"/>
<path d="M82.3924 25.6281L83.6378 25.7069L83.5423 26.9536C83.0502 33.3801 77.4467 38.2606 71.0266 37.8546L69.7812 37.7758L69.8766 36.5291C70.3688 30.1026 75.9723 25.222 82.3924 25.6281Z" fill="#FF7D00"/>
<path d="M54.0879 51.5884C53.0623 50.4153 52.6608 48.8176 53.0061 47.2832L54.6261 47.6213C54.2293 49.416 55.3582 51.1737 57.1477 51.5471C57.4547 51.6112 57.7698 51.6312 58.0836 51.6065L58.1923 53.2609C56.6278 53.3898 55.1047 52.7691 54.0879 51.5884Z" fill="#FF7D00"/>
<path d="M45.9033 58.7178C44.8778 57.5446 44.4764 55.947 44.8215 54.4126L46.4415 54.7507C46.0447 56.5453 47.1737 58.3031 48.9631 58.6765C49.2701 58.7406 49.5853 58.7606 49.8991 58.7359L50.0078 60.3903C48.4432 60.5192 46.9201 59.8985 45.9033 58.7178Z" fill="#FF7D00"/>
<path d="M62.2724 44.46C61.247 43.2868 60.8455 41.6892 61.1906 40.1548L62.8107 40.4929C62.4138 42.2876 63.5428 44.0453 65.3322 44.4187C65.6392 44.4828 65.9544 44.5028 66.2682 44.4781L66.3769 46.1325C64.8124 46.2614 63.2892 45.6407 62.2724 44.46Z" fill="#FF7D00"/>
<path d="M78.0354 44.8464L79.1135 46.0891L77.8523 47.1876C74.3693 50.2212 69.1323 49.8985 66.155 46.4668L65.0769 45.2241L66.3381 44.1256C69.8211 41.092 75.0581 41.4147 78.0354 44.8464Z" fill="#FF7D00"/>
<path d="M69.7981 52.0197L70.8762 53.2624L69.6149 54.361C66.132 57.3946 60.895 57.0719 57.9177 53.6402L56.8396 52.3975L58.1008 51.2989C61.5838 48.2653 66.8208 48.588 69.7981 52.0197Z" fill="#FF7D00"/>
<path d="M61.6008 59.1603L62.679 60.403L61.4177 61.5016C57.9347 64.5352 52.6978 64.2125 49.7205 60.7808L48.6423 59.5381L49.9036 58.4395C53.3865 55.406 58.6235 55.7287 61.6008 59.1603Z" fill="#FF7D00"/>
<path d="M61.8447 41.5012L60.7665 40.2585C57.7892 36.8268 58.1991 31.5858 61.6821 28.5522L62.9434 27.4536L64.0215 28.6963C66.9988 32.128 66.5889 37.3691 63.106 40.4027L61.8447 41.5012Z" fill="#FF7D00"/>
<path d="M53.6035 48.6687L52.5253 47.426C49.548 43.9943 49.9579 38.7532 53.4409 35.7196L54.7021 34.6211L55.7803 35.8638C58.7576 39.2955 58.3477 44.5365 54.8648 47.5701L53.6035 48.6687Z" fill="#FF7D00"/>
<path d="M45.4062 55.8083L44.328 54.5656C41.3508 51.134 41.7607 45.8929 45.2436 42.8593L46.5049 41.7607L47.5831 43.0035C50.5603 46.4351 50.1504 51.6762 46.6675 54.7098L45.4062 55.8083Z" fill="#FF7D00"/>
<path d="M44.5027 63.6467C44.2936 63.6467 44.0844 63.566 43.9251 63.4055C43.6057 63.0836 43.6057 62.5633 43.9251 62.2415L47.3563 58.7839C47.6757 58.462 48.192 58.462 48.5114 58.7839C48.8308 59.1058 48.8308 59.6261 48.5114 59.9479L45.0803 63.4055C44.921 63.566 44.7118 63.6467 44.5027 63.6467Z" fill="white"/>
<path d="M48.0757 64.8377C47.6088 64.8377 47.2314 64.4666 47.2314 64.0094V59.3708C47.2314 58.9136 47.6088 58.5425 48.0757 58.5425C48.5426 58.5425 48.9199 58.9136 48.9199 59.3708V64.0094C48.9199 64.4666 48.5426 64.8377 48.0757 64.8377Z" fill="white"/>
<path d="M51.4797 63.6467C51.2706 63.6467 51.0615 63.566 50.9022 63.4055L47.471 59.9479C47.1516 59.6261 47.1516 59.1058 47.471 58.7839C47.7904 58.462 48.3067 58.462 48.6262 58.7839L52.0573 62.2415C52.3767 62.5633 52.3767 63.0836 52.0573 63.4055C51.898 63.566 51.6889 63.6467 51.4797 63.6467Z" fill="white"/>
<path d="M53.6854 61.2647C53.633 61.2647 53.5797 61.2599 53.5265 61.2487L47.8798 60.1282C47.4434 60.0417 47.1595 59.6199 47.2474 59.1861C47.3337 58.7531 47.754 58.4705 48.1969 58.5586L53.8435 59.6791C54.2799 59.7656 54.5638 60.1874 54.4759 60.6212C54.3993 61.0014 54.0621 61.2647 53.6854 61.2647Z" fill="white"/>
<path d="M42.296 61.0946C41.9088 61.0946 41.5667 60.815 41.5014 60.4217C41.428 59.9826 41.7249 59.5676 42.1645 59.4942L47.8118 58.5538C48.2531 58.4797 48.6677 58.777 48.7395 59.2162C48.8129 59.6554 48.5161 60.0704 48.0764 60.1437L42.4291 61.0841C42.3848 61.0906 42.3404 61.0946 42.296 61.0946Z" fill="white"/>
<path d="M48.7039 24.2187V19.2397L45.4526 20.8786V24.2851C36.5677 25.3242 29.7107 33.0713 30.0188 42.3778C30.3163 51.3565 37.4691 58.798 46.3629 59.3577C56.5232 59.9968 64.9603 51.8793 64.9603 41.7747C64.9603 32.4591 57.7839 24.8522 48.7039 24.2187Z" fill="#FF7D00"/>
<path d="M47.9379 60.4139C47.8542 60.4139 47.7697 60.4008 47.6851 60.3729C42.7225 58.7389 38.115 54.2215 35.9493 48.8621C33.9048 43.806 34.1372 38.3973 36.6019 33.6323C36.8099 33.2314 37.2975 33.0748 37.6989 33.2847C38.0963 33.4945 38.2507 33.9897 38.0434 34.3906C35.1725 39.9419 36.1387 44.9874 37.4543 48.2431C39.4476 53.1745 43.6619 57.3239 48.1906 58.8144C48.6164 58.9546 48.8504 59.4178 48.7115 59.8482C48.5993 60.1942 48.28 60.4139 47.9379 60.4139Z" fill="white"/>
<path d="M48.2319 60.5853C47.8898 60.5853 47.5712 60.3656 47.4591 60.0196C47.3201 59.5892 47.5534 59.1268 47.98 58.9858C52.5088 57.4953 56.7231 53.3459 58.7165 48.4144C60.0322 45.1588 60.9992 40.1133 58.1273 34.562C57.9201 34.1611 58.0745 33.6659 58.4719 33.456C58.8717 33.2462 59.3617 33.4027 59.569 33.8037C62.0337 38.5687 62.2653 43.9773 60.2215 49.0334C58.0558 54.3921 53.4482 58.9103 48.4855 60.5443C48.4001 60.5722 48.3156 60.5853 48.2319 60.5853Z" fill="white"/>
<path d="M48.2821 60.4137C48.146 60.4137 48.0083 60.3792 47.8818 60.3044C42.6393 57.2323 38.6366 42.7148 41.7267 32.0778C41.8523 31.6432 42.301 31.3958 42.728 31.5232C43.1541 31.6522 43.3974 32.109 43.2717 32.5445C40.209 43.087 44.4784 56.4148 48.6841 58.8789C49.07 59.1048 49.2037 59.6068 48.9813 60.0004C48.8331 60.2658 48.5617 60.4137 48.2821 60.4137Z" fill="white"/>
<path d="M47.5309 60.4137C47.2513 60.4137 46.9798 60.2658 46.8316 60.0012C46.6101 59.6077 46.7438 59.1056 47.1289 58.8797C51.3349 56.4155 55.6045 43.0875 52.5416 32.5448C52.416 32.1093 52.6592 31.6525 53.0854 31.5235C53.5124 31.3953 53.9611 31.6435 54.0867 32.0781C57.177 42.7153 53.174 57.2331 47.9312 60.3052C47.8048 60.3784 47.667 60.4137 47.5309 60.4137Z" fill="white"/>
<path d="M48.0757 60.2433C47.6088 60.2433 47.2314 59.8759 47.2314 59.4232V29.077C47.2314 28.6243 47.6088 28.2568 48.0757 28.2568C48.5426 28.2568 48.9199 28.6243 48.9199 29.077V59.4232C48.9199 59.8759 48.5426 60.2433 48.0757 60.2433Z" fill="white"/>
<path d="M25.4518 61.8952L23.6516 61.5365H24.7897C24.8545 61.5365 24.9193 61.5309 24.9841 61.5248C25.0115 61.522 25.0389 61.5181 25.064 61.5181C25.254 61.5442 25.4484 61.5576 25.6417 61.5576C25.6423 61.5576 25.6423 61.5576 25.6428 61.5576C27.9336 61.5576 30.1702 59.7137 31.3413 56.8602C32.7051 53.5374 32.6353 48.5018 28.3616 44.3471C25.3847 41.2631 24.7388 38.9366 23.4515 34.3015L22.9325 32.4471C22.8319 32.0872 22.4291 31.9056 22.0899 32.0661L20.7943 32.6815L20.8825 33.1074C20.9043 33.2124 23.0152 43.7067 18.6711 49.6481C16.6882 52.36 16.3155 55.4068 17.6481 58.0076C18.4582 59.5882 19.8042 60.7539 21.3072 61.2593L17.8615 61.8314C17.557 61.8819 17.3514 62.1679 17.4022 62.4706C17.4481 62.7422 17.6844 62.9343 17.9526 62.9343C17.9833 62.9343 18.014 62.9321 18.0453 62.9266L19.9478 62.6105L19.036 63.5186C18.8175 63.7357 18.818 64.0873 19.0365 64.3039C19.1455 64.4122 19.2885 64.4661 19.4315 64.4661C19.5746 64.4661 19.7182 64.4116 19.8271 64.3033L21.0893 63.0465V64.6471C21.0893 64.9537 21.3396 65.2025 21.648 65.2025C21.9564 65.2025 22.2067 64.9537 22.2067 64.6471V63.0465L23.4689 64.3033C23.5778 64.4122 23.7208 64.4661 23.8644 64.4661C24.0075 64.4661 24.1499 64.4122 24.2594 64.3039C24.4779 64.0873 24.4785 63.7357 24.26 63.5186L23.3459 62.6083L25.2327 62.9843C25.2696 62.9915 25.3065 62.9954 25.3428 62.9954C25.6037 62.9954 25.8367 62.8133 25.8898 62.5489C25.9507 62.2479 25.7546 61.9558 25.4518 61.8952Z" fill="#FF7D00"/>
<path d="M30.874 43.1605C30.3263 42.7536 29.9796 42.3859 29.4907 42.0381C28.5646 41.3791 27.764 40.8057 27.0381 40.1782C27.6347 41.3465 27.6347 41.3465 28.6986 43.1043C32.7038 48.0966 33.3327 53.6139 31.8557 57.2552C31.1204 59.0681 30.8363 60.5222 29.5121 61.4572C31.3235 61.4572 32.8138 60.8318 33.9521 59.5995C35.9516 57.4338 36.1556 54.1226 36.1737 53.5785C36.3024 51.6042 35.8859 46.6354 30.874 43.1605Z" fill="#FF7D00"/>
<path d="M18.9816 61.4246C18.0262 60.7174 17.2075 59.7636 16.6304 58.6252C15.1091 55.6267 15.5129 52.143 17.7385 49.0681C20.1929 45.6775 20.4012 40.5813 20.1902 37.1143C19.0277 39.8333 18.4261 41.2121 15.8045 43.1587C10.7273 46.6753 10.4785 51.6879 10.6068 53.6796H10.6084C10.6262 54.2307 10.8295 57.5616 12.849 59.7496C13.9993 60.9957 15.5062 61.6276 17.3275 61.6276L17.4569 61.6265C17.9807 61.6176 18.4889 61.5467 18.9816 61.4246Z" fill="#FF7D00"/>
<path d="M9.63517 54.8264H9.61044L9.57278 54.259C9.55761 54.0836 9.54918 53.9395 9.54412 53.833L9.54075 53.778C9.39798 51.5853 9.67227 46.0679 15.284 42.2067C15.9315 41.729 16.4385 41.2928 16.8606 40.8589C16.7291 40.9262 16.5993 40.9929 16.4661 41.0607C15.2323 41.6892 13.957 42.339 12.8851 43.1295C8.69876 46.0102 6.13908 50.15 6.3566 53.6838C6.34817 54.1329 6.37571 57.1531 8.44021 59.3716C9.64642 60.6673 11.2972 61.4186 13.3477 61.6271C12.9042 61.3283 12.4883 60.9796 12.1066 60.5692C10.4002 58.7325 9.8274 56.2729 9.63517 54.8264Z" fill="#FF7D00"/>
</svg>
