<svg width="207" height="313" viewBox="0 0 207 313" fill="none" xmlns="http://www.w3.org/2000/svg">
<g clip-path="url(#clip0_2_2078)">
<path d="M70.783 27.5559C73.4252 28.6777 76.1923 29.3258 78.4606 31.1455C78.8096 31.4446 79.1836 31.7188 79.5824 31.9432C79.8066 32.0677 80.031 32.1427 80.2056 32.3171C80.3552 32.4418 80.4798 32.6163 80.5796 32.7908C81.0033 33.439 81.427 34.0869 81.8507 34.7351C81.9255 34.8597 82.0253 34.9844 82.1499 35.0841C82.1997 35.1091 82.2248 35.1339 82.2746 35.1339C82.9477 35.383 83.521 34.1368 83.6705 33.6632C83.8949 32.8405 83.7951 31.9682 83.6455 31.1455C83.3215 29.5003 82.6485 27.9547 81.9754 26.4591C81.1778 24.6893 80.2554 22.9941 79.2832 21.299C78.1365 19.3297 76.5661 18.1334 75.2449 16.3136C74.7464 15.6405 74.2978 14.9176 73.9985 14.1449C73.4501 12.724 73.4501 11.1286 72.7522 9.78257C72.503 9.30895 72.1539 8.88518 71.9795 8.38664C71.2067 6.24287 70.9324 3.17678 70.6583 0.908369C70.6084 0.534455 70.4838 0.0857965 70.1349 0.0110139C69.6613 -0.0886962 69.4119 0.509578 69.2374 0.958272C68.7389 2.35422 67.4675 3.20169 66.5952 4.32343C65.5231 5.71938 64.875 7.41447 64.252 9.03477C64.0026 9.68288 63.7535 10.331 63.5041 10.9791C63.3296 11.4278 63.155 11.8516 63.0802 12.3252C62.9806 12.7739 62.9805 13.2475 62.9805 13.6962C62.8809 20.1524 64.6508 24.9135 70.783 27.5559Z" fill="#FF7D00"/>
<path d="M160.147 25.4625C160.248 25.5373 160.946 28.1296 161.095 28.329C161.593 29.0519 162.815 29.6003 163.488 30.2235C164.709 31.3701 165.805 32.7412 167.027 33.9128C168.523 35.3585 170.342 36.605 172.063 37.7766C173.035 38.4497 174.107 39.1974 175.254 39.5714C176.425 39.9453 177.249 39.1475 176.824 37.8263C175.727 34.4612 173.808 31.42 171.813 28.5035C171.241 27.681 170.692 26.8583 170.143 26.0357C168.125 22.9198 166.48 19.5296 165.258 16.0148C164.984 15.242 164.734 14.4693 164.385 13.7215C163.712 12.3256 162.616 11.1041 162.142 9.60846C162.017 9.20962 161.918 8.76092 161.644 8.43687C161.369 8.11281 160.845 7.93833 160.521 8.21253C160.097 8.58644 160.122 9.90759 159.973 10.456C159.774 11.1789 159.699 11.9516 159.599 12.6995C159.374 14.4444 159.25 16.2143 159.2 17.9841C159.15 19.6044 159.15 21.2496 159.349 22.8449C159.425 23.5927 159.475 24.9887 160.147 25.4625Z" fill="#FF7D00"/>
<path d="M44.0107 76.1894C44.3596 76.6879 44.7087 77.3859 45.1823 77.7598C45.2321 77.8096 45.3069 77.8595 45.3568 77.9094C46.2043 78.5326 47.6003 79.0311 48.5225 79.38C49.8437 79.8536 51.2896 79.9784 52.6854 80.1031C54.4303 80.2526 56.1504 80.3772 57.8954 80.5268C58.369 80.5767 58.8675 80.6016 59.3411 80.7263C59.9643 80.8758 60.5625 81.1499 61.1359 81.4491C63.9028 82.7703 66.6698 84.0915 69.4369 85.4127C69.8855 85.612 70.4339 85.9112 70.8826 85.6618C70.4589 84.0416 69.2623 82.2967 68.3898 80.9007C67.7666 79.9036 67.0686 78.9314 66.296 78.0091C65.9967 77.6351 65.6229 77.3111 65.3486 76.9373C65.0496 76.5383 64.8252 76.1146 64.4761 75.7407C63.9277 75.1924 63.2797 74.7435 62.6316 74.3198C62.1331 73.9709 61.6094 73.6469 61.1109 73.2978C60.7121 73.0486 60.3132 72.7744 59.8895 72.5749C59.3411 72.3006 58.7428 72.1261 58.1695 71.9018C57.2223 71.5029 56.3498 71.0793 55.3527 70.8051C54.2308 70.506 53.1093 70.2567 51.9625 70.107C51.3891 70.0322 50.8158 69.9825 50.2674 69.8329C49.8686 69.7332 49.4946 69.5836 49.1208 69.434C48.1237 69.0601 47.1514 68.6364 46.1793 68.2624C45.1324 67.8636 44.0604 67.4647 43.1381 66.8167C42.49 66.3679 42.0663 65.7448 41.3932 65.3461C41.144 65.1964 39.773 64.3738 39.4738 64.6728C38.1027 66.1187 40.8947 70.7303 41.5678 72.0016C42.2656 73.4474 43.0883 74.8682 44.0107 76.1894Z" fill="#FF7D00"/>
<path d="M206.688 86.3106C206.663 86.1859 206.613 86.0612 206.589 85.9365C206.34 85.0891 206.065 84.2167 205.816 83.3691C205.342 81.8237 204.544 80.9762 203.722 79.68C202.75 78.1344 202.65 76.19 201.478 74.7192C201.055 74.1957 200.531 73.7223 200.232 73.124C200.058 72.75 199.957 72.3263 199.758 71.9772C199.509 71.5286 199.11 71.1547 198.736 70.8058C196.642 68.9113 194.549 66.9917 192.43 65.0971C191.458 64.2248 190.859 63.3023 189.762 62.6045C188.715 61.9564 187.619 61.3831 186.472 60.9095C184.304 60.0369 181.911 59.5633 180.04 58.1424C179.268 57.5441 178.595 56.7963 177.797 56.2229C175.828 54.8271 173.26 54.6276 171.316 53.2067C169.497 51.8855 167.253 50.7389 165.633 49.1685C165.059 48.6201 164.535 47.972 163.887 47.5233C163.24 47.0746 162.467 46.8253 161.769 46.4514C157.93 44.4323 155.761 39.1726 153.443 35.7326C153.119 35.259 152.446 34.7354 152.072 35.1841C151.922 35.3586 151.922 35.6079 151.922 35.8322C152.072 41.8148 153.368 47.7476 155.711 53.2566C157.605 57.7436 160.198 63.0781 159.55 68.0886C159.126 71.2044 158.527 73.9715 158.479 77.1872C158.429 79.8793 158.603 86.3604 154.889 86.8092C148.956 87.5569 146.737 75.0433 146.588 71.0799C146.413 66.7674 146.563 63.6016 144.519 59.688C143.272 57.3199 142.051 54.9268 140.804 52.5587C140.181 51.3373 139.533 50.1157 138.71 49.0189C137.813 47.7974 136.716 46.7505 135.669 45.6786C133.675 43.6097 132.204 40.8926 130.135 38.9482C128.515 37.4277 126.521 36.0317 124.751 34.6358C123.355 33.539 121.884 32.5418 120.439 31.4949C117.123 29.1268 113.933 26.5842 110.866 23.8921C110.168 23.2689 103.712 16.8624 103.538 18.9313C103.513 19.1806 103.588 19.4299 103.662 19.6544C105.931 26.6839 109.795 33.0154 112.886 39.6711C116.026 46.4014 117.622 53.481 118.594 60.8097C118.868 62.8289 118.993 64.8479 119.117 66.8921C119.367 70.8306 119.591 74.7443 119.84 78.6828C119.865 79.2311 119.865 79.8543 119.442 80.1783C118.519 76.4641 116.949 72.8996 114.83 69.6839C112.636 66.3437 110.218 64.4739 107.077 62.1058C103.463 59.3639 98.1035 60.012 93.8907 58.9401C89.2293 57.7685 85.0913 55.1262 80.38 54.1539C77.3139 53.5059 74.1232 53.6057 71.057 54.2039C69.4617 54.503 64.3267 55.0515 64.2769 57.3947C64.2769 57.8184 64.6258 58.1673 65.0246 58.3169C65.4234 58.4665 65.8722 58.4416 66.2959 58.4915C67.1435 58.5413 67.966 58.7905 68.7139 59.1644C70.8079 60.2362 73.2008 61.084 75.1451 62.3803C77.0646 63.6764 78.4357 65.5958 79.7319 67.4903C81.9006 70.681 84.5429 72.6503 87.1105 75.3922C89.9024 78.3835 89.5533 81.4497 89.7278 85.2138C89.9024 88.7784 89.8774 92.368 89.7278 95.9575C89.6031 99.3227 89.653 102.688 89.7278 106.078C89.7777 108.446 89.8276 110.814 90.1765 113.133C90.351 114.304 90.6004 115.451 90.6253 116.622C90.6502 117.545 90.5505 118.517 90.9493 119.365C91.1735 119.838 91.5475 120.237 91.7969 120.686C92.445 121.783 92.445 123.129 92.769 124.375C93.2176 126.12 94.2398 127.64 95.2618 129.111C96.3087 130.607 97.3059 132.651 98.7267 133.823C100.098 134.969 102.192 135.742 103.787 136.565C104.759 137.063 105.731 137.562 106.753 137.961C108.124 138.484 109.57 138.833 111.016 139.157C114.88 140.054 118.769 139.955 122.707 140.204C124.552 140.329 126.172 139.855 127.917 139.855C128.316 139.855 131.382 140.728 131.855 140.279C134.273 138.06 128.839 137.213 127.568 137.013C124.003 136.44 120.488 136.889 117.597 134.346C115.852 132.801 114.556 130.856 112.911 129.211C109.495 125.821 105.881 123.278 103.887 118.716C103.488 117.769 103.139 116.822 102.765 115.875C101.17 111.986 98.7516 108.446 97.2062 104.533C96.7573 103.386 96.3835 102.189 95.9099 101.043C94.5638 97.8521 92.7191 95.0602 92.071 91.6201C91.3979 88.0056 91.9214 84.2664 91.2733 80.6519C90.9493 78.9319 90.4009 77.262 89.8276 75.5917C89.3041 74.0213 88.4316 73.0491 87.4096 71.7777C87.3348 71.7029 87.2849 71.6034 87.26 71.5036C87.2101 70.8804 88.5812 71.1795 88.8305 71.3041C89.1545 71.4538 89.4535 71.6532 89.8026 71.7031C91.6223 71.9273 93.3673 72.4757 95.0124 73.3233C97.2559 74.47 99.3 75.9656 101.693 76.7882C103.538 77.4364 105.557 77.6857 107.127 78.8324C109.321 80.4277 110.218 83.4938 112.611 84.79C114.207 85.6626 114.979 87.4821 115.802 89.1024C116.849 91.1714 119.766 94.5368 120.14 90.2492C120.189 89.7008 120.339 89.1772 120.513 88.6537C121.211 86.4352 121.884 84.1918 122.582 81.9733C122.882 80.9761 123.206 79.979 123.33 78.9569C123.505 77.8102 123.455 76.6386 123.405 75.492C123.355 73.9214 123.305 72.3762 123.23 70.8058C123.056 66.219 122.906 61.5824 121.86 57.1204C121.336 54.8519 120.588 52.6334 119.84 50.4149C119.217 48.5702 118.594 46.7006 117.946 44.856C117.821 44.4821 117.747 43.9337 118.12 43.7592C118.444 43.6096 118.768 43.9088 118.993 44.1829C120.987 46.551 124.103 47.7477 126.521 49.6919C128.914 51.6363 130.858 54.0044 132.204 56.7466C133.999 60.3611 135.246 64.2497 137.19 67.7894C138.362 69.9083 140.007 71.6532 140.755 73.9216C141.702 76.7635 140.879 79.8294 142.524 82.4966C144.519 85.6874 148.931 88.1552 152.67 88.1801C156.259 88.2051 158.703 86.3355 159.9 83.0202C161.245 79.281 162.068 74.8438 162.293 70.8804C162.517 67.1911 162.142 63.502 161.57 59.8625C161.519 59.5633 161.245 58.8404 161.519 58.6161C161.719 58.4416 162.043 58.4415 162.293 58.5412C162.542 58.6409 162.741 58.8404 162.965 59.0149C163.713 59.5883 164.661 59.8376 165.583 60.0369C169.222 60.7599 173.086 60.5853 176.576 61.8317C177.448 62.1557 178.296 62.5546 179.143 62.9285C179.916 63.2776 180.838 63.4769 181.586 63.9008C182.808 64.5988 184.079 65.5958 185.001 66.6677C185.924 67.7395 186.596 68.9111 187.644 69.8832C188.166 70.3817 188.74 70.8555 189.239 71.354C191.556 73.6972 192.554 76.9628 193.775 79.9541C194.075 80.7019 194.374 81.5245 194.798 82.2225C195.121 82.7958 195.645 83.1449 195.994 83.6933C196.967 85.2387 197.763 87.0584 198.038 88.8532C198.188 89.8255 198.188 90.8225 198.312 91.8196C198.461 92.8417 198.761 93.8386 198.985 94.8358C199.584 97.6775 199.833 101.317 199.085 104.159C198.438 106.651 196.493 108.745 194.498 110.241C192.279 111.911 189.538 112.41 187.344 114.155C184.926 116.074 183.057 118.841 182.009 121.783C181.71 122.605 182.533 123.378 183.331 123.029C184.677 122.481 185.999 121.832 187.269 121.109C187.493 120.985 187.718 120.86 187.918 120.736C193.402 117.495 198.163 112.958 201.652 107.624C203.322 105.056 204.819 102.239 205.741 99.3227C206.438 97.1042 206.489 94.761 206.589 92.4428C206.763 90.2991 207.361 88.5043 206.688 86.3106Z" fill="#FF7D00"/>
<path d="M183.755 130.457C181.186 129.734 178.644 128.912 176.077 128.114L174.082 127.441C173.758 127.341 173.508 127.017 173.533 126.643C173.609 125.098 174.631 123.278 174.656 121.733C174.705 119.838 174.855 117.644 174.183 116.149C173.508 114.678 172.312 112.833 171.341 111.537C170.145 109.942 167.951 107.773 165.931 107.299C164.186 106.901 161.495 108.471 159.849 107.549C158.029 106.527 159.425 104.383 159.525 102.813C159.674 100.669 158.951 99.5222 157.505 98.0514C156.309 96.83 154.689 95.2844 153.268 94.3871C152.196 93.714 151.149 93.9135 150.027 93.4896C149.23 93.1905 148.382 92.4427 147.559 92.0688C145.64 91.1963 143.546 89.8004 141.402 89.7755C138.885 89.7256 137.638 91.0716 139.732 92.9911C136.367 93.1905 135.245 94.3123 133.351 96.9796C132.279 98.5001 131.406 98.6746 130.335 99.8961C128.39 102.09 129.911 103.884 130.484 106.053C131.307 109.169 130.384 112.933 131.656 115.949C132.279 117.395 133.575 118.218 134.522 119.414C135.719 120.935 136.367 122.48 138.062 123.602C140.58 125.272 143.77 124.599 146.263 125.871C147.285 126.394 146.911 125.497 147.036 126.793C147.136 127.64 145.864 128.712 145.515 129.46C144.518 131.604 144.169 133.548 142.724 135.567C139.333 140.229 135.445 144.118 132.653 149.153C130.933 152.244 128.241 154.338 126.645 157.528L126.296 158.151C122.607 163.461 122.358 163.088 118.195 167.973C113.683 173.257 108.972 179.016 103.388 183.204C99.7734 185.897 95.087 187.068 91.2481 189.411C87.484 191.704 84.4678 195.742 79.7565 196.54C74.0232 197.487 67.3925 195.742 62.7558 192.278C62.681 192.228 62.6562 192.177 62.5814 192.129C61.7338 191.28 60.9113 190.358 60.1385 189.411C60.0637 189.311 59.9889 189.212 59.8892 189.112C58.7176 187.068 58.3437 184.724 58.4185 182.107C58.4684 180.761 58.4435 179.34 58.568 177.97C58.6428 177.446 58.7176 176.922 58.8672 176.424C59.5153 174.005 61.1854 171.862 62.2573 169.619C62.8058 168.471 63.4039 167.25 63.4787 165.954C63.5286 165.082 63.5286 164.483 63.9026 163.637C65.9715 158.874 70.4586 155.36 71.9043 150.299C72.0289 149.826 72.1038 149.352 72.1536 148.879C72.378 147.258 72.8765 146.211 73.6243 144.865C74.2973 143.644 74.6464 142.871 74.5965 141.425C74.5467 140.304 74.6713 139.157 74.9455 138.06C75.5686 135.667 75.5936 133.199 75.9676 130.756C76.1918 129.111 76.7153 127.615 76.142 125.97C75.7432 124.849 74.9704 123.876 74.3971 122.829C73.6492 121.508 73.4499 120.337 73.2005 118.916C72.4776 114.653 71.6052 111.238 67.7912 108.82C62.3321 105.33 55.7263 104.233 50.0179 101.242C46.5281 99.4223 43.2127 99.5969 39.4238 99.3725C37.6041 99.2727 35.8093 98.8241 33.9646 98.8739C32.0202 98.8989 30.026 99.223 28.1315 99.5719C21.7251 100.694 15.1442 102.613 9.38594 105.704C7.39175 106.776 5.42254 107.973 3.37848 108.895C1.18485 109.892 -1.55722 111.064 1.0851 113.706C2.95467 115.575 1.58368 116.298 2.35643 118.268C3.00456 119.888 4.15121 119.364 5.47237 120.212C5.72165 120.386 5.94595 120.536 6.12044 120.686C8.03986 122.406 4.50021 123.328 2.97962 124.699C2.506 125.123 2.03233 125.696 2.30653 126.369C2.38132 126.544 2.50602 126.693 2.68051 126.818C3.17905 127.167 3.75233 127.167 4.32566 127.167C6.66885 127.092 8.93732 126.818 11.3304 126.893C11.6295 126.893 12.0283 127.067 11.9536 127.341C11.9286 127.441 11.8538 127.516 11.7541 127.566C9.98424 128.937 7.3918 128.488 5.69672 129.709C3.57787 131.255 5.64685 135.891 5.44742 138.185C6.04569 138.334 6.56918 138.758 6.61903 139.406C6.66888 140.054 6.3947 140.678 6.24513 141.301C6.0457 142.223 6.64395 143.245 7.54134 143.544C9.21148 144.093 11.8788 143.943 13.175 143.768C15.6179 143.444 18.0109 142.672 20.5037 142.821C24.5668 143.07 29.7768 145.065 32.2696 148.43C34.513 151.446 33.6155 154.388 32.5188 157.728C31.5217 160.793 29.7768 164.259 30.001 167.574C30.0758 168.896 30.001 169.668 29.5025 170.94C28.9541 172.31 28.2811 173.657 27.5581 174.953C26.2868 177.172 24.8411 179.29 23.4451 181.434C21.775 183.902 20.1049 186.37 18.7089 188.963C17.8116 190.507 16.939 192.079 16.2161 193.724C15.4434 195.469 15.1443 197.089 14.8202 198.983C13.7234 201.775 12.3275 204.392 11.6295 207.434C10.5327 212.244 10.3831 217.03 10.782 221.942C11.3054 228.249 12.5269 236.698 16.4654 241.809C17.338 242.93 18.6091 243.978 19.3071 245.249C20.1797 246.844 19.4318 246.719 20.2046 247.817C20.5286 248.265 21.2765 247.991 21.5755 248.365C23.8688 251.281 26.3616 253.799 29.1287 256.316C31.1228 258.137 32.9674 260.105 34.7123 262.15C36.2579 263.969 38.6759 265.266 40.0719 267.011C41.4677 268.755 40.9194 269.528 40.3959 272.047C39.972 274.015 39.4984 276.009 39.1744 278.004C38.9002 279.599 39.0498 281.518 38.5762 283.014C37.953 284.959 36.3824 286.902 35.8091 289.171C35.1113 292.038 33.0672 303.879 39.0498 297.348C39.1744 297.197 39.4236 297.272 39.4735 297.471C39.9472 300.514 41.8167 303.355 43.9107 299.716C43.9855 299.59 44.1848 299.541 44.2845 299.64C45.5558 300.862 42.9635 302.232 45.9797 303.529C48.1234 304.451 49.4945 303.58 51.1646 302.408C54.2806 300.239 56.4991 296.451 58.9669 293.607C61.0608 291.214 63.5286 289.345 65.847 287.201C67.2429 285.906 68.8631 283.138 70.5832 282.989C72.1786 282.864 76.2417 284.984 78.0864 285.407C83.2712 286.579 88.0823 286.13 93.3669 286.38C94.9624 286.453 96.8068 286.604 98.4273 287.675C100.87 289.32 102.889 292.411 104.983 294.555C108.722 298.345 111.813 302.706 115.752 306.296C117.123 307.542 122.856 311.855 124.327 310.933C125.474 310.21 123.255 308.665 124.177 308.215C126.047 307.618 125.449 310.484 127.318 310.608C128.764 310.708 129.437 309.363 129.736 308.091C129.836 307.668 130.36 307.517 130.659 307.842C132.229 309.587 134.124 310.908 135.345 308.439C136.616 305.947 132.827 297.846 131.756 295.353C130.509 292.461 129.512 288.697 128.714 285.407C128.39 284.085 128.315 282.665 128.116 281.319C127.642 278.228 127.767 278.951 129.936 277.082C132.528 274.863 135.819 273.815 138.137 271.173C140.655 268.332 142.798 264.717 144.967 261.576C147.385 258.087 149.155 254.147 150.75 250.21C151.274 248.888 151.747 247.542 152.371 246.27C153.392 244.177 154.414 243.005 154.938 240.663C155.835 236.698 156.832 232.811 157.88 228.896C158.427 226.852 158.951 224.808 159.45 222.763C159.849 221.143 159.948 218.377 160.82 216.981C162.392 210.075 161.818 202.722 162.965 195.718C163.688 191.255 165.133 186.918 165.832 182.481C166.256 179.714 165.981 171.463 168.175 169.594C169.495 168.471 173.609 170.267 175.901 169.194C177.722 168.347 179.168 166.403 180.239 164.758C183.281 160.022 182.408 157.055 180.115 152.817C179.965 152.543 180.19 152.219 180.488 152.244C182.982 152.643 188.216 153.042 188.59 151.421C188.889 150.075 186.397 147.009 185.773 145.987C185.574 145.663 184.951 144.915 184.551 144.267C184.302 143.868 184.377 143.345 184.702 143.046C185.425 142.398 186.596 141.126 186.796 140.802C188.491 138.908 190.485 137.487 192.305 135.991C193.6 134.919 195.246 134.72 194.025 132.85C193.078 131.355 185.599 130.981 183.755 130.457ZM59.0417 110.515C59.5901 110.964 60.1385 111.388 60.7119 111.836C62.1328 112.908 63.5785 113.955 64.7251 115.251C66.5947 117.32 67.5419 120.037 68.4394 122.655C69.5611 125.945 72.0788 129.66 69.8352 132.8C68.3396 130.981 67.7663 128.662 66.9686 126.444C66.3703 124.774 65.7471 123.104 64.6254 121.733C63.9523 120.91 63.1049 120.237 62.4069 119.414C61.659 118.517 61.1605 117.47 60.5124 116.498C59.3408 114.678 57.7704 112.933 56.1251 111.562C55.4522 111.014 54.804 110.565 54.1808 109.967C53.732 109.543 52.5355 107.574 51.9372 107.524C54.5298 107.624 57.0475 108.87 59.0417 110.515ZM56.3744 266.861C50.5913 265.515 45.3815 262.997 42.1657 257.787C48.6718 258.386 54.7791 262.274 59.6649 266.412C59.0916 267.334 57.1971 267.06 56.3744 266.861ZM125.299 299.366C124.826 298.993 120.887 290.418 118.668 285.955C123.754 284.385 125.773 299.716 125.299 299.366ZM154.564 224.559C154.315 225.406 153.243 228.199 153.417 227.176C153.592 226.154 153.816 218.227 154.689 213.815C155.486 209.702 157.256 200.354 157.48 201.576C158.727 208.331 156.683 217.778 154.564 224.559ZM172.538 140.478C171.964 143.195 168.823 146.087 165.981 145.414C161.694 144.392 161.245 137.736 163.289 134.695C165.333 131.654 168.473 131.629 171.115 134.072C173.284 136.091 173.11 137.686 172.538 140.478Z" fill="#FF7D00"/>
</g>
<defs>
<clipPath id="clip0_2_2078">
<rect width="207" height="312.068" fill="white"/>
</clipPath>
</defs>
</svg>
