<svg width="100" height="121" viewBox="0 0 100 121" fill="none" xmlns="http://www.w3.org/2000/svg">
<path fill-rule="evenodd" clip-rule="evenodd" d="M69.3065 101.906C71.0654 100.966 73.2745 101.349 75.2365 101.688C75.6 101.751 75.955 101.812 76.2972 101.864C76.5285 101.898 76.7603 101.934 76.9926 101.969C79.5823 102.366 82.227 102.772 84.804 102.087C85.975 101.775 87.1414 101.216 87.8189 100.214C91.2502 95.186 78.3568 90.9299 75.3414 90.2414C75.2425 90.2187 75.1419 90.1963 75.0401 90.1737C74.0315 89.9493 72.9098 89.6997 72.2688 88.8431C71.5714 87.9221 71.7562 86.5848 72.281 85.5582C73.2666 83.6447 74.7373 82.1629 76.2109 80.6781C77.1966 79.6849 78.1837 78.6904 79.0277 77.5645C80.563 75.524 82.7748 70.7946 78.5939 70.8028C75.965 70.8059 73.256 71.8665 70.7803 72.8359C70.4521 72.9644 70.1279 73.0914 69.8086 73.214C69.0727 73.4954 68.3156 73.828 67.5448 74.1667C65.6345 75.0061 63.6399 75.8825 61.6764 76.1066C56.5664 76.6904 53.9537 74.3456 50.6086 71.3434C50.1066 70.8928 49.5876 70.4271 49.0416 69.9546C48.129 69.1609 47.3068 68.2802 46.4843 67.3991C45.87 66.7411 45.2551 66.0825 44.6025 65.4601C44.533 65.3936 44.4603 65.3235 44.3848 65.2507C43.1882 64.0966 41.2679 62.2446 39.6285 62.9083C39.3363 63.0297 39.0216 63.1407 38.7122 63.081C38.2731 63.0032 37.9655 62.6198 37.6838 62.2687L37.6542 62.2318C37.2716 61.7558 36.0971 60.7438 35.4812 61.3732C35.3272 61.5305 35.2456 61.7484 35.1825 61.9656C34.3719 64.743 35.7347 67.5289 36.9853 70.0855C37.2878 70.704 37.5838 71.3091 37.8408 71.8973C38.0064 72.2755 38.1947 72.6801 38.3921 73.1045C39.5041 75.4952 40.9071 78.5114 40.1989 80.935C39.5852 83.0139 35.9949 85.3234 33.4248 86.9765C32.6796 87.4559 32.0199 87.8803 31.5437 88.2277C30.4086 89.058 29.1849 89.8418 27.9533 90.6306C25.7844 92.0199 23.5908 93.4249 21.8125 95.1277C15.6396 101.053 22.5708 100.69 27.3453 100.439C27.7716 100.417 28.1808 100.396 28.562 100.38C29.6781 100.333 30.8304 100.247 31.9964 100.16L31.9972 100.16C34.6017 99.9653 37.2741 99.7657 39.7628 99.9865C39.8578 99.9952 39.959 100.004 40.0648 100.012C40.9018 100.08 42.0247 100.172 42.6315 100.717C43.505 101.507 42.7576 102.744 42.234 103.611C42.1945 103.676 42.1562 103.74 42.12 103.801C39.9854 107.408 38.5685 111.435 37.9629 115.578C37.779 116.834 37.539 118.848 38.6406 119.781C39.708 120.689 41.3835 119.852 42.4054 119.291C43.5095 118.68 45.4218 116.892 47.5845 114.87C51.5824 111.133 56.4359 106.595 58.622 107.212C59.8616 107.56 61.3469 110.115 62.9116 112.806C65.3062 116.925 67.8869 121.364 70.0578 118.703C71.4284 117.025 70.4078 114.081 69.7058 112.056L69.7056 112.056L69.7046 112.053C69.6108 111.782 69.5227 111.528 69.4468 111.296C69.3333 110.945 69.1857 110.541 69.0249 110.101C68.144 107.689 66.8639 104.184 68.5862 102.406C68.8061 102.224 69.0484 102.053 69.3065 101.906ZM64.4886 106.007C64.5899 106.819 64.4891 108.788 63.3434 107.752C63.0659 107.496 62.9332 107.136 62.8029 106.783L62.7792 106.719C62.254 105.303 61.5389 103.963 60.7152 102.702C59.7512 101.23 58.3158 99.397 56.3411 99.5954C52.1809 100.026 48.3948 105.264 46.0659 108.486L45.904 108.71L45.8071 108.844C45.5064 109.262 43.5421 111.763 43.3048 110.095C43.0598 108.408 44.3204 106.44 45.2518 104.985C45.3449 104.839 45.4347 104.699 45.5194 104.565C45.7316 104.226 45.9776 103.856 46.2391 103.464C48.0271 100.778 50.543 97.0001 47.9703 94.3665C46.1457 92.4933 42.6383 92.911 40.1718 93.2047L40.1698 93.205C39.9929 93.2261 39.8214 93.2465 39.6563 93.2654C38.6852 93.3773 37.7245 93.5753 36.7645 93.7733C35.0367 94.1295 33.3107 94.4854 31.5298 94.3376C31.1436 94.3065 30.7267 94.2432 30.4399 93.9751C29.3613 92.9523 31.9602 91.709 32.6243 91.4116C33.8842 90.8577 35.1183 90.178 36.3555 89.4965C38.2291 88.4646 40.1103 87.4284 42.0995 86.8189C42.3033 86.7563 42.5095 86.6977 42.716 86.639L42.7167 86.6388C43.4753 86.4232 44.2377 86.2066 44.9018 85.7873C47.9812 83.8525 45.5695 78.9651 44.3388 76.6056C44.1674 76.2743 43.9915 75.9446 43.8156 75.6148C43.3129 74.6722 42.8091 73.7277 42.4057 72.7395C42.3661 72.6423 42.3172 72.5321 42.2646 72.4135C42.0443 71.9167 41.759 71.2735 41.8159 70.8286C41.9055 70.0767 42.7778 69.5829 43.397 70.1583C44.5798 71.2549 45.8078 72.2936 47.0372 73.3335C47.7266 73.9166 48.4164 74.5001 49.0989 75.0944C50.0353 75.9081 50.8494 76.8798 51.6622 77.8499C53.2564 79.7527 54.8453 81.6492 57.3408 82.3334C59.4155 82.91 61.6501 82.621 63.6855 81.9126C66.2263 81.0346 68.6889 79.5922 70.9359 78.1239C71.006 78.078 71.0839 78.0245 71.1678 77.967C71.7211 77.5874 72.5365 77.028 73.1328 77.2615C73.8496 77.5443 73.6816 78.388 73.3967 78.9503C72.3771 81.0172 70.9732 82.89 69.289 84.4611C68.9319 84.7914 68.5645 85.1116 68.1975 85.4315C66.8439 86.6114 65.4948 87.7874 64.6823 89.4517C64.4781 89.8777 64.3237 90.3539 64.4166 90.8066C64.4933 91.1946 64.7326 91.5147 64.9727 91.8361C65.1793 92.1125 65.3865 92.3898 65.4915 92.7118C65.7771 93.5945 65.2306 94.115 64.678 94.6411C64.5674 94.7465 64.4565 94.8522 64.352 94.9609C62.2071 97.2244 63.0911 100.496 63.872 103.385C64.1108 104.269 64.3399 105.117 64.4698 105.889C64.4742 105.91 64.4767 105.929 64.4792 105.948C64.4817 105.968 64.4842 105.987 64.4886 106.007ZM92.4173 22.4255C92.7132 21.6452 93.4019 21.0839 94.047 20.558C94.166 20.461 94.2835 20.3653 94.3968 20.2695C94.8187 19.907 95.255 19.5613 95.6913 19.2155C96.2639 18.7618 96.837 18.3077 97.3774 17.8155C98.6176 16.6973 99.9806 15.1523 99.7574 13.3546C99.5796 11.915 98.3005 11.4294 97.003 11.5004C95.2875 11.5897 93.6845 12.2683 92.1741 13.0622C92.0305 13.1375 91.8747 13.2348 91.7114 13.3369C91.0308 13.7622 90.2201 14.2687 89.6181 13.596C88.9087 12.8012 88.9381 11.4671 88.9601 10.4682L88.9607 10.4418C88.9858 9.41646 89.1151 8.39599 89.2442 7.37679C89.4773 5.53765 89.7098 3.70262 89.3285 1.85058C89.2578 1.50828 89.157 1.15219 88.9078 0.90136C87.671 -0.308777 86.0701 2.9438 85.4188 4.26708C85.3321 4.44312 85.2623 4.58501 85.2123 4.67771C84.6748 5.69723 84.1688 6.73128 83.6646 7.76184C83.5189 8.0597 83.3733 8.35725 83.2271 8.65409C83.1392 8.83402 83.0525 9.01858 82.9649 9.20494C82.6175 9.94429 82.2567 10.7122 81.754 11.3337C80.5666 12.8134 79.1002 13.591 77.1908 13.5276C75.9393 13.4873 74.7092 13.2796 73.4798 13.0719C73.1322 13.0132 72.7847 12.9545 72.4367 12.8996L72.3771 12.8901C70.996 12.671 69.58 12.4463 68.2439 12.9935C67.3488 13.3582 65.8559 14.2331 66.269 15.3977C66.465 15.9432 66.9301 16.3385 67.3829 16.7009C68.1235 17.2354 68.8188 17.8287 69.5137 18.4216C70.0188 18.8525 70.5239 19.2835 71.0458 19.6913L71.1747 19.7925C72.1954 20.5928 73.2747 21.4392 73.7606 22.685C74.2785 24.0259 73.9208 25.3106 73.5602 26.6059C73.4859 26.8725 73.4116 27.1395 73.3447 27.4075C73.1885 28.037 73.0009 28.6548 72.8133 29.2723L72.813 29.2731C72.6519 29.8033 72.4907 30.3339 72.3497 30.8713C72.1027 31.8129 71.8038 32.7665 71.5028 33.7264C70.9716 35.4211 70.434 37.136 70.1648 38.8398C70.1584 38.8808 70.1511 38.9257 70.1433 38.974L70.1427 38.9774C70.0059 39.8219 69.7018 41.698 70.6069 42.0868C70.9789 42.2481 71.3934 42.0186 71.7149 41.7739C72.8524 40.9231 73.7829 39.8299 74.7071 38.744C74.7839 38.6538 74.8606 38.5636 74.9374 38.4737C76.0922 37.1249 77.2961 35.8078 78.5383 34.5264C78.6443 34.4181 78.7537 34.2908 78.8678 34.158C79.2512 33.7119 79.6878 33.2038 80.2254 33.148C80.9599 33.0742 81.2446 33.7242 81.2588 34.3688C81.325 37.3433 81.7875 40.4264 82.8181 43.2229C82.8379 43.2762 82.8589 43.3342 82.8812 43.3959C83.1206 44.0584 83.5125 45.1427 84.1998 45.3324C85.0599 45.5691 85.5534 44.2135 85.7871 43.5718L85.8159 43.4931C86.1122 42.6858 86.4186 40.8842 86.7652 38.8456C87.407 35.0714 88.1869 30.485 89.2972 29.8927C90.0093 29.5145 91.3985 30.3532 92.8336 31.2197C94.8155 32.4163 96.8851 33.6658 97.3802 31.836C97.6502 30.8294 97.1167 29.8284 96.5057 29.0564C95.9894 28.4022 95.4017 27.8102 94.8147 27.219C94.2232 26.6232 93.6323 26.0281 93.1159 25.3707C92.524 24.6164 92.0952 23.6452 92.3156 22.7071L92.4173 22.4255ZM91.0557 26.8881C91.013 27.1602 90.7543 27.2878 90.3079 27.2292C89.8639 27.167 89.4397 26.9625 89.0291 26.7646C88.9889 26.7453 88.9489 26.726 88.9091 26.7069C88.4386 26.4823 87.9572 26.2618 87.4334 26.2133C86.2372 26.1029 85.7619 27.061 85.4393 28.0435C84.8242 29.9191 84.5789 31.8903 84.3343 33.8552C84.2689 34.381 84.2035 34.9063 84.1311 35.4292C84.0981 35.6602 83.9275 36.6486 83.7783 36.8354C83.1407 37.5916 82.969 35.5623 82.9554 35.155C82.9361 34.58 82.9364 34.0025 82.9367 33.4248C82.9374 32.1425 82.9381 30.8588 82.7249 29.5986C82.5631 28.6403 82.1658 27.5012 81.0994 27.2862C79.805 27.0276 78.834 28.217 78.0519 29.175C77.9171 29.3401 77.7879 29.4983 77.6637 29.6411C77.161 30.225 76.7005 30.8395 76.2403 31.4535C75.6855 32.1936 75.1313 32.9331 74.5045 33.6175C74.495 33.6274 74.4811 33.6426 74.4635 33.6621C74.4519 33.675 74.4387 33.6897 74.4239 33.7061C74.1329 34.0305 73.2648 34.9978 73.0733 34.6756C73.0339 34.6028 73.0273 34.5178 73.0317 34.4287C73.0803 33.667 73.3878 32.8964 73.6868 32.2038C73.828 31.8773 73.9795 31.5536 74.1311 31.2297L74.1315 31.2289C74.3082 30.8512 74.485 30.4734 74.6456 30.0908C75.0258 29.201 75.4242 28.1868 75.8221 27.1738L75.8224 27.173C76.2187 26.1642 76.6145 25.1566 76.9914 24.2742C77.3381 23.4577 77.6535 22.5904 77.3196 21.69C76.9919 20.8195 76.351 20.3923 75.6327 19.9134C75.4512 19.7924 75.2648 19.6681 75.0772 19.5326L74.8789 19.3897C73.8025 18.6142 72.7288 17.8408 71.8036 16.8846C71.6309 16.7052 71.4576 16.5073 71.3941 16.2686C70.9106 14.388 76.3671 16.0353 78.4566 16.6661L78.4571 16.6662C78.8698 16.7908 79.1511 16.8757 79.229 16.8859C80.0697 16.9975 80.9597 16.9221 81.7329 16.5653C82.528 16.2002 83.0926 15.365 83.5609 14.6407C84.49 13.1858 85.1605 11.5796 85.8248 9.98799C85.943 9.70485 86.061 9.42215 86.1803 9.14085C86.5747 8.20035 87.5856 8.41728 87.6758 9.45216C87.7843 10.7832 87.5205 12.1348 87.2634 13.4525C87.2077 13.7376 87.1524 14.0212 87.1012 14.3026C87.0673 14.4911 87.0127 14.7129 86.9534 14.9536C86.6633 16.1321 86.2615 17.7637 87.6342 18.1655C87.9453 18.2547 88.2765 18.2367 88.6069 18.2187C88.7292 18.212 88.8514 18.2054 88.9725 18.2042C89.4204 18.1997 89.9166 18.3085 90.166 18.678C90.3493 18.9533 90.3432 19.3243 90.2428 19.6429C90.1655 19.8879 90.0438 20.1126 89.922 20.3372C89.8855 20.4047 89.8489 20.4721 89.8136 20.5401C89.3681 21.3934 89.0561 22.4719 89.1294 23.4444C89.1741 24.0591 89.696 24.6744 90.1345 25.1916L90.1353 25.1925C90.2346 25.3096 90.3297 25.4217 90.4139 25.5276C90.4529 25.5788 90.493 25.6295 90.5331 25.6803C90.6801 25.8665 90.8281 26.054 90.9312 26.2659C91.0399 26.5253 91.0837 26.7277 91.0557 26.8881ZM9.91848 16.0929C10.6188 16.7692 11.1611 16.8171 11.5848 16.528C12.0736 16.1959 12.4031 15.4171 12.6002 14.6688C12.8005 14.013 13.139 13.3933 13.5956 12.8732C14.0096 12.4066 14.7101 11.8706 15.2114 12.4649C15.4579 12.7633 15.5007 13.2422 15.5397 13.6782C15.5562 13.8635 15.5721 14.041 15.6026 14.1936C15.7494 14.9263 15.8666 15.6636 15.9654 16.4016C15.997 16.6451 16.0167 16.9106 16.0372 17.1856C16.1298 18.4316 16.2369 19.8722 17.527 20.3437C17.6161 20.3766 17.7762 20.4236 17.9813 20.4838C19.1911 20.8392 21.9659 21.6541 20.9699 22.7411C20.7912 22.9327 20.5278 23.0308 20.2783 23.0988C19.994 23.1779 19.6434 23.2441 19.27 23.3145C17.6434 23.6214 15.5858 24.0096 16.7095 25.9032C16.7291 25.9365 16.7577 25.9836 16.7934 26.0427C17.3075 26.8922 19.3136 30.2067 17.8354 30.22C17.5985 30.2208 17.3693 30.125 17.1512 30.025C16.0113 29.4938 14.961 28.7666 14.0504 27.8937C13.9862 27.8319 13.9192 27.7657 13.8495 27.6968C13.2135 27.0678 12.3589 26.2226 11.4371 26.6055C11.1593 26.7153 10.9175 26.9053 10.6833 27.0988C9.77108 27.8386 8.82472 28.5537 7.76402 29.0613C7.45801 29.2129 7.11031 29.3362 6.77146 29.2812C5.03089 28.975 6.87105 25.674 7.33461 24.8425L7.36187 24.7936C7.50177 24.5477 7.64859 24.2868 7.67628 24.0078C7.73449 23.4238 7.19696 23.1867 6.70545 23.1074C5.95299 22.9798 5.1839 22.9522 4.41559 22.9246C3.31281 22.885 2.21165 22.8454 1.16363 22.5104C-0.176649 22.0788 0.798292 21.2219 1.56236 20.9247C2.28253 20.6439 3.06598 20.4832 3.82935 20.3862C4.35568 20.3171 4.88592 20.2783 5.41585 20.2395C6.08505 20.1905 6.75376 20.1416 7.41351 20.0317C7.95493 19.9425 8.18891 19.6304 7.98659 19.1184C7.81342 18.6891 7.62614 18.2641 7.4387 17.8387C6.95729 16.7462 6.47482 15.6512 6.22753 14.4751C6.10893 13.9195 5.90774 12.8885 6.72279 12.8972C7.44536 12.9092 8.1892 13.8879 8.56895 14.39C8.69096 14.5501 8.80906 14.714 8.92731 14.8781C9.23333 15.3029 9.54034 15.729 9.91848 16.0929Z" fill="#911987"/>
</svg>
