<svg width="63" height="62" viewBox="0 0 63 62" fill="none" xmlns="http://www.w3.org/2000/svg">
<path d="M58.1575 0.944268C57.6119 1.91552 57.585 3.06639 57.3762 4.13078C57.0596 5.76062 56.3052 7.31064 55.4093 8.70099C55.1399 9.11344 53.5638 11.7944 52.944 11.7545C52.944 11.7545 48.0605 11.4351 45.9387 12.3997C45.5278 12.586 44.8542 13.1515 44.3962 13.5639C44.1066 13.8234 44.1941 14.1094 44.5646 14.2092C45.8713 14.5418 48.8284 15.247 50.5258 16.5509C53.8129 19.0788 55.3151 21.8595 55.8606 23.0968C56.0155 23.4494 56.2984 23.4893 56.5005 23.1634C56.9653 22.4116 57.713 21.0545 57.8881 19.8305C58.0902 18.3869 57.4974 16.9766 56.8508 15.6927C56.7296 15.4532 56.4534 14.8944 56.2244 14.4487C56.0492 14.1028 56.0829 13.6903 56.2783 13.504C56.4467 13.3444 56.6218 13.1781 56.6353 13.1648C57.8275 12.0339 58.9457 10.8165 59.9695 9.53255C61.2628 7.90936 62.3877 6.02007 62.8323 3.97777C63.0276 3.08635 63.0209 2.08183 62.4753 1.3035C61.5794 0.0328859 59.0669 -0.685576 58.1575 0.944268Z" fill="#FF7D00"/>
<path fill-rule="evenodd" clip-rule="evenodd" d="M10.2722 60.9412C7.09804 61.2897 3.89742 60.7505 1.17954 59.0212C-0.328194 58.0611 -0.301676 56.8842 0.756313 55.5232C1.4705 54.6027 2.27727 53.7544 3.09726 52.9194C3.48972 52.5183 3.88239 52.1174 4.27502 51.7167C6.95208 48.9839 9.62698 46.2534 12.2164 43.4379C19.5897 35.4226 25.647 25.8227 27.4722 20.4705C29.7008 13.9347 43.158 14.2897 49.202 18.6689C55.2463 23.048 58.3543 33.6539 51.4372 39.3152C44.5268 44.9764 24.7081 55.5232 15.6749 59.4289C13.9754 60.1652 12.1238 60.7373 10.2722 60.9412ZM20.5641 40.0885C18.9094 42.1745 17.2287 44.2277 15.4302 46.1955C14.3031 47.4402 13.1116 48.6799 11.929 49.9102C11.7529 50.0935 11.577 50.2765 11.4015 50.4593C11.8898 49.9533 13.9096 48.7031 15.6554 47.6224C16.7387 46.9518 17.7166 46.3465 18.1573 46.025C22.4541 42.8895 26.6266 39.4785 30.2433 35.5624C32.4407 33.1812 35.1613 30.19 36.2077 26.8512C36.6721 25.3686 36.8094 23.8206 36.4236 22.2266C35.848 19.8717 33.2124 19.8455 31.8129 21.4723C31.3942 21.9549 30.9397 22.9958 30.3838 24.2691C29.776 25.6611 29.0471 27.3307 28.1112 28.8519C25.7503 32.6827 23.3566 36.5594 20.5641 40.0885Z" fill="#FF7D00"/>
</svg>
