<svg width="78" height="81" viewBox="0 0 78 81" fill="none" xmlns="http://www.w3.org/2000/svg">
<path d="M59.096 27.1592C57.8974 25.702 56.3623 27.5268 55.626 25.3151C55.295 24.3058 55.4797 23.579 54.4849 22.9901C53.6658 22.5101 52.316 22.4146 51.4102 22.1474C49.7391 21.6414 47.5422 21.0498 46.6345 19.4526C46.2004 18.6841 46.3557 17.7001 45.3988 17.3283C44.1336 16.8313 43.7391 18.0077 42.9964 18.6529C41.7602 17.3242 41.032 15.868 39.23 15.1889C38.3412 14.8413 36.9837 14.336 36.0234 14.2776C34.8583 14.1987 34.6663 14.8613 33.7047 15.3051C30.8605 16.5926 30.9103 13.4305 28.9501 12.51C26.2578 11.2423 28.0008 14.4325 26.2858 15.0274C25.9711 15.1311 25.9858 15.2598 26.1373 15.3847C26.5715 15.7553 26.4432 16.4623 25.8709 16.5976C25.4073 16.7131 24.9782 16.6157 24.3317 16.1602C23.7291 15.745 22.7631 14.7222 22.0531 14.568C21.1906 14.3933 19.7952 15.1576 19.2458 15.7792C17.903 17.287 19.6687 18.7335 18.9416 19.8007C18.6679 20.2059 17.5334 20.2797 17.1552 20.6847C16.8055 21.0536 16.775 21.6442 16.5251 22.0857C15.845 23.2776 14.6621 23.729 13.4095 24.3128C11.8982 25.0327 8.83333 26.2756 9.11136 28.4782C9.37211 30.4155 11.8277 30.1277 12.6568 31.552C13.3203 32.6705 12.1928 34.3474 12.5424 35.1197C12.6837 35.4415 12.6274 35.8071 12.3597 36.0355C11.3778 36.8732 9.90683 37.2034 10.6481 38.9449C10.8284 39.3793 11.3245 39.6054 11.509 40.0196C11.6777 40.4098 11.5841 40.9038 11.7491 41.2618C12.2759 42.384 12.8304 42.0358 13.7703 42.4879C15.4783 43.3154 15.9775 45.5104 15.8461 47.2741C15.6907 49.3994 15.0124 51.178 16.6576 52.6001C17.4861 53.3332 17.34 53.8271 17.8447 54.7564C18.4913 55.9553 19.5269 55.3589 20.2271 56.0556C20.9273 56.7523 19.83 57.0954 20.0994 57.8515C20.1969 58.1329 20.8932 58.0541 21.0156 58.2673C21.197 58.5972 21.1008 58.9547 21.2384 59.2443C21.7024 60.2177 22.3707 60.5205 23.0328 61.3979C23.6273 62.1989 23.6884 63.2478 24.2666 64.0768C25.9894 66.5197 26.6612 64.2268 27.4941 62.6576C27.6827 62.3084 28.1816 62.2734 28.3952 62.5994C29.0002 63.549 29.7223 64.093 30.8718 63.75C31.1743 63.6543 31.4899 63.8438 31.5388 64.1574C31.7098 65.0819 32.0294 65.6492 33.3196 65.6802C32.1593 67.4135 34.3572 67.1572 35.1567 66.8376C36.3601 66.338 36.392 65.9884 37.0451 66.9582C37.4607 67.5659 37.2971 68.5902 37.9599 69.0176C39.1937 69.812 40.112 68.5322 40.776 67.7139C41.7212 66.5548 42.5299 65.7449 43.7497 65.2172C44.1738 65.0414 44.6413 65.3036 44.7329 65.7619C44.8862 66.4735 45.3657 67.1255 46.0254 67.4686C47.8568 68.4049 48.3773 66.7303 49.8118 66.4241C50.7628 66.2294 51.3202 67.1067 52.1562 67.5063C54.2843 68.5237 54.2247 66.5746 55.0401 65.138C55.7245 63.926 57.0084 63.7883 57.8637 62.7576C58.9673 61.4421 59.4574 59.2171 60.6992 58.139C61.2348 57.6821 61.9095 57.7559 62.3623 57.1461C62.7538 56.6287 62.5477 55.9693 63.1513 55.5367C63.4714 55.3083 64.2275 55.2938 64.6188 55.1742C64.8527 55.1064 64.9204 54.7851 65.214 54.7817C65.423 54.7822 65.8268 55.0001 65.9556 54.9843C66.5833 54.9335 66.2011 55.7041 66.8293 54.8577C67.123 54.4565 66.9492 53.7932 66.9378 53.3512C66.9292 51.9046 66.869 51.149 68.1091 50.2276C69.3128 49.3302 70.2211 48.5929 68.9507 47.0793C68.2164 46.1976 67.0513 46.1186 67.3351 44.7732C67.5849 43.5884 68.5667 42.7508 68.6937 41.405C68.7941 40.2842 69.2058 38.6295 67.7413 38.7307C66.5423 38.8124 65.6004 40.7994 65.213 38.6689C64.9583 37.2981 65.7436 36.0542 65.2566 34.5945C64.9799 33.7742 64.0834 31.8756 63.0677 31.7327C62.0077 31.6017 61.1905 33.5929 60.2214 33.2291C59.1283 32.8088 60.6209 30.4415 60.9316 29.96C62.325 27.8656 60.243 28.5642 59.096 27.1592ZM21.8348 53.0937C22.3233 53.6533 21.3551 54.724 20.7762 54.345C19.8257 53.7442 21.2112 52.3811 21.8348 53.0937ZM14.6265 39.1226C14.7506 39.9225 14.8224 40.7222 14.87 41.538C14.3422 41.2636 13.1571 40.4372 13.1844 39.7622C13.208 39.0551 14.0941 38.5227 14.6265 39.1226ZM31.0187 50.3578C29.7892 50.2867 31.9215 47.5149 32.954 48.7186C33.7918 49.705 31.6897 50.3994 31.0187 50.3578ZM38.7863 53.7424C38.9546 54.9281 37.2762 55.1011 36.6568 54.3684C35.4023 52.8789 38.4834 51.608 38.7863 53.7424ZM18.1723 24.8377L18.9994 24.932C19.3446 24.981 19.5334 25.3752 19.3253 25.6681C19.1784 25.8686 19.0316 26.0692 18.8689 26.2457C18.6613 26.4863 18.2795 26.4614 18.1176 26.1878L17.7105 25.54C17.5047 25.2261 17.7748 24.7886 18.1723 24.8377ZM47.0087 54.8216C46.2782 55.4588 45.0407 54.6323 45.4963 53.7614C46.1611 52.4931 47.9705 53.9799 47.0087 54.8216ZM56.0369 60.2622C56.1353 60.837 55.2648 61.7913 54.6742 61.3681C53.5133 60.5257 55.8211 59.004 56.0369 60.2622ZM31.4984 37.8181C31.349 38.6254 31.2506 38.794 30.5851 39.3712C29.9438 39.9323 28.6165 41.1186 27.7664 41.2815C26.9565 41.4524 25.226 40.4842 26.0322 39.5377C26.366 39.1447 26.7291 39.4067 27.1684 39.3072C28.0591 39.1002 28.7376 38.8084 29.5029 38.3039C30.0088 37.9876 31.3626 36.974 31.4984 37.8181ZM27.2815 30.588C27.0542 31.1701 25.5556 31.8298 25.4266 31.1023C25.2403 30.1013 27.7035 29.4799 27.2815 30.588ZM20.8668 17.2173C20.4254 16.3846 23.284 16.7646 23.38 17.9462C23.4952 19.5818 21.0915 17.6397 20.8668 17.2173ZM46.7455 36.9279C47.8166 39.7832 43.6316 38.9984 43.2897 36.7515C42.8384 33.8333 46.0454 35.0901 46.7455 36.9279ZM39.8781 26.7949C40.1675 27.5549 38.9205 28.3598 38.4416 27.6555C37.8756 26.8185 39.565 25.9986 39.8781 26.7949ZM63.4562 35.6433C65.4846 37.3314 61.0642 38.2579 61.8363 35.9853C62.0563 35.3389 62.8066 35.1034 63.4562 35.6433Z" fill="#FF7D00"/>
</svg>
