<svg width="48" height="48" viewBox="0 0 48 48" fill="#000000" xmlns="http://www.w3.org/2000/svg">
<path d="M35.7632 42.0072C35.6301 42.315 35.7052 42.4869 35.8861 42.5757C36.0943 42.6783 36.4424 42.67 36.7564 42.6256C37.0362 42.5951 37.3263 42.6117 37.5994 42.6783C37.8451 42.7393 38.1659 42.8779 38.0294 43.1136C37.9599 43.2304 37.788 43.3103 37.6314 43.383L37.6314 43.383C37.5649 43.4139 37.5011 43.4435 37.4492 43.4741C37.2001 43.6211 36.9441 43.7598 36.6847 43.8929C36.599 43.9365 36.5029 43.9795 36.4035 44.0241C35.9528 44.2263 35.4318 44.46 35.4766 44.9189C35.4795 44.9506 35.4894 45.006 35.502 45.0769L35.502 45.0769C35.5764 45.4951 35.7472 46.4544 35.1694 46.3026C35.067 46.2749 34.9851 46.2083 34.9168 46.1418C34.8385 46.0662 34.7536 45.9686 34.6632 45.8647C34.2693 45.4119 33.7711 44.8391 33.2548 45.4458C33.2457 45.4564 33.2329 45.4717 33.2169 45.4908C32.9871 45.766 32.0901 46.8399 31.8316 46.3914C31.7907 46.3193 31.7872 46.2361 31.7872 46.1556C31.7907 45.7341 31.8828 45.3126 32.0534 44.9133C32.0655 44.8852 32.0788 44.8556 32.0927 44.8248L32.0927 44.8246C32.2192 44.543 32.389 44.1647 32.0876 43.9372C31.9988 43.8679 31.8862 43.8208 31.7736 43.7764C31.3402 43.6017 30.9101 43.4131 30.5381 43.1608C30.4289 43.0887 30.3231 43 30.2856 42.889C30.1017 42.3159 31.6532 42.4159 32.0441 42.4411L32.0671 42.4426C32.1831 42.4509 32.306 42.4592 32.4152 42.4287C32.6439 42.3649 32.6405 42.1681 32.5859 42.0072C32.5046 41.7601 32.383 41.5219 32.2616 41.284C32.0873 40.9424 31.9132 40.6014 31.8589 40.2353C31.7907 39.7666 32.2787 39.9441 32.521 40.1354C32.7497 40.3157 32.9442 40.532 33.1114 40.751C33.2276 40.9018 33.333 41.0579 33.4385 41.214C33.5716 41.4111 33.7046 41.608 33.8589 41.7937C33.9851 41.9462 34.1421 41.9739 34.2991 41.8408C34.4301 41.7282 34.557 41.6119 34.6841 41.4955L34.6843 41.4953C35.0108 41.1961 35.338 40.8963 35.7359 40.6568C35.9236 40.5431 36.2752 40.3379 36.4117 40.5874C36.5311 40.8093 36.2922 41.1725 36.1694 41.3583C36.1304 41.4178 36.0893 41.4766 36.0482 41.5355L36.0481 41.5357L36.0481 41.5357C35.9415 41.6882 35.8346 41.8412 35.7632 42.0072Z" fill="#000000"/>
<path d="M30.4904 23.6304C31.0232 23.9342 32.1526 23.5359 33.1218 23.194C33.6274 23.0156 34.0894 22.8527 34.4004 22.8127C35.8925 22.62 36.3413 23.0469 37.3071 23.9655L37.3071 23.9655C37.4032 24.057 37.5045 24.1532 37.6123 24.2543C37.7064 24.3423 37.8557 24.5113 38.0421 24.7223C38.7867 25.565 40.1228 27.0771 40.8882 26.7747C41.4724 26.5437 41.1772 25.4188 40.9014 24.3682L40.9014 24.3682C40.6992 23.5977 40.5074 22.8671 40.6806 22.5581C41.1212 21.771 41.8024 22.0695 42.6327 22.4333C43.0867 22.6323 43.5853 22.8507 44.1134 22.9219C45.7149 23.1361 46.4517 23.025 45.3958 21.7102C45.2118 21.4806 44.7568 21.1538 44.2502 20.79L44.2502 20.79C43.3354 20.1331 42.2527 19.3555 42.2949 18.8122C42.3087 18.636 42.9106 18.34 43.5876 18.0072C44.5815 17.5185 45.7373 16.9503 45.4318 16.5642C45.0251 16.0517 43.9223 16.3635 42.9669 16.6337L42.9668 16.6337C42.3925 16.7961 41.8714 16.9434 41.5869 16.8875C40.5648 16.687 40.5823 16.2763 40.6123 15.5684L40.6123 15.5684C40.6252 15.2649 40.6404 14.9067 40.577 14.487C40.391 13.2591 39.988 12.1989 38.6195 13.3351C38.1618 13.7145 37.9603 14.2908 37.7727 14.8274L37.7727 14.8274C37.5254 15.5347 37.3022 16.1729 36.5484 16.1998C35.968 16.2202 35.4421 15.7811 34.9033 15.3313C34.2745 14.8063 33.6282 14.2667 32.8575 14.4259C31.6115 14.6832 32.3294 15.6127 32.9823 16.458C33.2363 16.7869 33.4805 17.1031 33.5953 17.3619C34.4419 19.2807 33.8307 19.8223 32.4325 21.0611C32.3491 21.135 32.2629 21.2113 32.174 21.2906C32.1461 21.3151 32.0841 21.3624 31.9988 21.4275C31.408 21.8782 29.7016 23.1801 30.4904 23.6304Z" fill="#000000"/>
<path fill-rule="evenodd" clip-rule="evenodd" d="M15.4194 38.7243C16.0971 39.2207 16.3416 40.1116 16.5587 40.9028C16.599 41.0494 16.6382 41.1926 16.6792 41.3292C16.7069 41.4216 16.7343 41.5143 16.7618 41.6072C17.0682 42.6429 17.3811 43.7006 18.1053 44.5463C18.4344 44.9305 18.8591 45.2706 19.3687 45.3522C21.9307 45.7739 21.2902 40.2274 21.0213 38.9828C21.0125 38.9419 21.0033 38.9005 20.994 38.8586C20.9018 38.4433 20.7992 37.9814 21.0177 37.5953C21.2513 37.177 21.8033 37.0172 22.2952 37.0376C23.2134 37.0784 24.0502 37.3743 24.8887 37.6708C25.4496 37.8692 26.0112 38.0678 26.5984 38.1904C27.6636 38.4149 29.893 38.4319 29.1463 36.871C28.6776 35.8891 27.7841 35.0584 26.9675 34.2992C26.8593 34.1986 26.7523 34.0991 26.6479 34.0008C26.4078 33.774 26.1441 33.548 25.8755 33.318C25.2099 32.7478 24.515 32.1525 24.0788 31.4571C22.9434 29.6476 23.3891 28.2699 23.9598 26.506C24.0455 26.2413 24.134 25.9677 24.2203 25.6828C24.3662 25.2059 24.5619 24.7479 24.7577 24.2898C24.9039 23.9476 25.0502 23.6051 25.1758 23.2547C25.1893 23.2173 25.2035 23.1782 25.2184 23.1375C25.4537 22.4928 25.8312 21.4583 25.282 20.9593C25.1829 20.8708 25.0838 20.7722 25.052 20.6464C25.0041 20.469 25.0982 20.2884 25.1844 20.1231L25.1935 20.1057C25.3103 19.8812 25.4943 19.2691 25.1404 19.1467C25.052 19.1161 24.9529 19.1229 24.8573 19.1365C23.6349 19.309 22.7957 20.2951 22.0255 21.2C21.8392 21.4189 21.6569 21.6331 21.4742 21.8298C21.3569 21.9564 21.2333 22.096 21.1036 22.2424C20.3732 23.0672 19.4517 24.1077 18.3849 24.2579C17.4686 24.3844 15.9336 23.4381 14.8347 22.7607C14.5161 22.5643 14.234 22.3904 14.0145 22.2719C13.4903 21.9899 12.9684 21.6668 12.4431 21.3416C11.518 20.7689 10.5825 20.1897 9.60515 19.8166C6.20705 18.5242 7.58067 21.052 8.52688 22.7933C8.61138 22.9488 8.69248 23.098 8.76646 23.2377C8.98312 23.6468 9.22144 24.0626 9.46257 24.4834C10.0012 25.4234 10.5541 26.3882 10.911 27.3559C10.9245 27.3929 10.9392 27.4322 10.9547 27.4732C11.077 27.7976 11.2411 28.2329 11.1374 28.5529C10.9861 29.0146 10.3728 28.947 9.94328 28.8997C9.91082 28.8962 9.87941 28.8927 9.84933 28.8896C8.06932 28.7094 6.25392 28.8692 4.53761 29.3521C4.01741 29.4983 3.19287 29.7534 3.02655 30.3247C2.86376 30.879 3.48659 31.3619 3.88647 31.6476C4.32004 31.9556 5.35415 32.3642 6.52367 32.8262C8.68558 33.6804 11.3102 34.7175 11.4595 35.6399C11.5448 36.1627 10.8171 37.155 10.0505 38.2004C8.87725 39.8002 7.61287 41.5243 9.03187 41.8802C9.92727 42.105 10.8887 41.2197 11.5499 40.6108L11.5511 40.6098C11.6395 40.5284 11.7225 40.452 11.7992 40.3839C11.9151 40.2815 12.0457 40.1572 12.1881 40.0216C12.9678 39.2796 14.1009 38.2014 15.0973 38.5407C15.2071 38.5917 15.3168 38.6529 15.4194 38.7243ZM12.9705 37.6259C12.6733 37.8027 11.8912 38.102 12.0894 37.4967C12.1394 37.3492 12.2556 37.238 12.3695 37.1288L12.3902 37.109C12.8467 36.6703 13.2395 36.1738 13.5827 35.6501C13.9826 35.038 14.4391 34.1878 14.0109 33.4839C13.104 32.003 10.3971 31.4848 8.73196 31.1661L8.61624 31.1439L8.54705 31.1306C8.33119 31.0898 7.01122 30.7838 7.61635 30.4097C8.22761 30.0294 9.21616 30.1635 9.94652 30.2626C10.0195 30.2725 10.09 30.282 10.1572 30.2907C10.3265 30.3119 10.5137 30.3406 10.7127 30.3711C12.0731 30.5796 13.9874 30.8731 14.5524 29.4609C14.9551 28.4585 14.1692 27.2193 13.6166 26.348C13.5769 26.2855 13.5381 26.2242 13.5014 26.1657C13.2852 25.822 13.0375 25.4969 12.7899 25.172C12.3444 24.5874 11.8993 24.0033 11.64 23.3125C11.5833 23.1629 11.5338 22.9963 11.5869 22.8432C11.7921 22.2651 12.737 23.0235 12.9705 23.2207C13.4097 23.5967 13.893 23.9415 14.3776 24.2872C15.1114 24.8106 15.8482 25.3362 16.4385 25.9752C16.4991 26.0407 16.5585 26.1077 16.618 26.1748C16.8366 26.4214 17.0565 26.6694 17.3374 26.8458C18.6361 27.6654 20.1047 25.9276 20.8019 25.0639C20.9 24.9431 20.9967 24.821 21.0935 24.6987C21.3701 24.3496 21.6471 23.9997 21.9591 23.6798C21.9897 23.6483 22.0239 23.6112 22.0605 23.5712C22.2142 23.4039 22.4132 23.1872 22.596 23.1323C22.9039 23.0371 23.2507 23.2785 23.1375 23.6084C22.9221 24.2381 22.7372 24.8747 22.5521 25.5121C22.4483 25.8696 22.3444 26.2272 22.2351 26.584C22.0857 27.0731 21.8532 27.5437 21.6212 28.0134C21.1659 28.9349 20.7122 29.8532 20.8903 30.9028C21.0354 31.7768 21.545 32.5623 22.182 33.2017C22.9747 34.0008 23.9726 34.6741 24.9422 35.2625C24.9725 35.2808 25.0071 35.3008 25.0444 35.3223C25.2901 35.464 25.6523 35.673 25.6677 35.9358C25.6854 36.2521 25.328 36.3337 25.059 36.3235C24.0752 36.2963 23.0985 36.0922 22.1891 35.7317C21.9973 35.6549 21.8077 35.5724 21.6182 35.49C20.9194 35.1862 20.223 34.8833 19.4324 34.8646C19.2306 34.8612 19.0183 34.885 18.8591 34.9972C18.7221 35.0923 18.6404 35.2365 18.5583 35.3812C18.4877 35.5057 18.4169 35.6306 18.3106 35.725C18.0187 35.9828 17.7194 35.8676 17.4169 35.7512C17.3563 35.7279 17.2956 35.7046 17.2348 35.6841C15.9746 35.2701 14.8617 36.1604 13.8788 36.9467C13.5782 37.1872 13.2898 37.4179 13.013 37.5987C13.0059 37.6038 12.9988 37.6081 12.9918 37.6123C12.9847 37.6166 12.9776 37.6208 12.9705 37.6259Z" fill="#000000"/>
</svg>
