<svg width="111" height="120" viewBox="0 0 111 120" fill="none" xmlns="http://www.w3.org/2000/svg">
<path d="M33.5897 54.5249C28.771 52.5634 7.02049 44.398 1.49871 49.435C-4.79663 55.1591 11.1125 61.1726 14.3203 62.3852L14.3205 62.3852L14.3795 62.4075C16.4781 63.1955 18.5727 63.9858 20.6648 64.7752L20.665 64.7753C45.1496 74.0139 69.3 83.1263 95.8707 86.8508C98.0293 87.1691 99.447 84.5725 97.7957 83.3206C92.5857 79.2812 85.1775 76.3035 78.5821 73.6525L78.5812 73.6522L78.5777 73.6508C76.0867 72.6496 73.711 71.6947 71.6143 70.7471C59.0776 65.0267 46.3862 59.7351 33.5897 54.5249Z" fill="#911987"/>
<path d="M77.8052 107.468C83.8721 108.539 91.669 115.139 81.079 118.392C73.3243 120.76 65.3701 118.651 58.1568 116.585C57.6721 116.444 57.1254 116.309 56.5476 116.166L56.5412 116.164L56.5385 116.163L56.5384 116.163C53.7193 115.466 50.1625 114.586 49.4256 111.944C48.3937 108.214 50.3194 107.758 52.8186 107.165L52.8186 107.165C53.3006 107.051 53.8038 106.932 54.3113 106.783C60.8663 104.835 71.4334 106.309 77.8052 107.468Z" fill="#911987"/>
<path d="M63.0462 3.30834C69.2655 16.6361 76.5568 29.4936 85.7201 40.7463C90.2539 46.3071 95.0718 51.6354 100.619 56.1704C100.873 56.3779 101.159 56.618 101.469 56.8786L101.476 56.8839L101.476 56.8839C104.684 59.5778 110.467 64.4327 110.25 57.7599C110.138 53.6322 105.685 48.3383 102.111 44.0888C100.725 42.4411 99.4708 40.9505 98.6532 39.7457C97.9001 38.6527 97.1494 37.5583 96.399 36.4643L96.3816 36.4387L96.3807 36.4374C92.7861 31.1962 89.1965 25.9624 85.3538 20.9186C84.5805 19.8929 83.8044 18.8322 83.0181 17.7577L83.0179 17.7575C79.2984 12.6743 75.3519 7.28098 70.3956 3.80535C69.1002 2.85582 60.3666 -2.51164 63.0462 3.30834Z" fill="#911987"/>
</svg>
