<svg width="197" height="197" viewBox="0 0 197 197" fill="none" xmlns="http://www.w3.org/2000/svg">
<g clip-path="url(#clip0_16_5)">
<mask id="mask0_16_5" style="mask-type:luminance" maskUnits="userSpaceOnUse" x="0" y="0" width="197" height="197">
<path d="M0 -4.35114e-06H197V197H0V-4.35114e-06Z" fill="white"/>
</mask>
<g mask="url(#mask0_16_5)">
<path d="M26.577 71.3841C26.185 72.7526 25.8299 74.0821 25.5178 75.3495C25.1249 76.9458 24.7631 78.3957 24.4363 79.6966C24.1141 80.9714 23.8871 81.9969 23.7599 82.7457C23.5001 84.0748 22.6307 84.9129 21.2422 85.1861C20.0467 85.4221 18.7622 85.3242 17.438 84.8937C16.1338 84.4679 14.9461 83.7287 13.9081 82.6958C12.8194 81.6119 12.2667 80.248 12.2667 78.6429C12.2667 77.3361 12.5939 75.2709 13.267 72.3292C13.9217 69.4607 14.8684 66.0574 16.0815 62.2144C17.2849 58.3998 18.7438 54.1984 20.4172 49.7263C21.8567 45.8831 23.4683 42.0153 25.219 38.2016C25.7923 36.9522 26.9765 36.0924 28.3423 35.9337C31.4341 35.5745 34.1164 35.6627 36.3883 36.1992C37.7565 36.5219 38.4927 38.0107 37.9187 39.2943C36.4533 42.5693 35.1012 45.836 33.8942 49.0162C32.9173 51.5917 31.9794 54.1398 31.0964 56.6185C31.0095 56.8621 31.2586 57.0902 31.4939 56.9821C32.6722 56.4392 33.8367 55.7996 34.9738 55.0694C36.8383 53.8716 38.5362 52.441 40.0214 50.8171C41.5015 49.1973 42.715 47.368 43.6276 45.3798C44.5303 43.4136 44.9882 41.2741 44.9882 39.0209C44.9882 36.1235 44.186 33.9843 42.6045 32.6628C41.0037 31.3259 38.7483 30.6484 35.9014 30.6484C32.8692 30.6484 30.097 31.3679 27.6605 32.7872C25.1634 34.2406 23.0028 36.0304 21.2379 38.1077C19.4622 40.1952 18.0633 42.4275 17.0807 44.7422C16.1073 47.0373 15.6131 49.0489 15.6131 50.7216C15.6131 51.9213 14.98 52.7877 13.8307 53.1607C12.8229 53.4886 11.7131 53.4413 10.5729 53.0151C9.47587 52.606 8.46 51.8005 7.55205 50.6209C6.63797 49.4348 6.1748 47.8283 6.1748 45.847C6.1748 44.1177 6.82994 42.0799 8.17698 39.6174C9.49097 37.2179 11.4314 34.8819 13.9449 32.6747C16.4549 30.4702 19.624 28.5576 23.3646 26.9908C27.1288 25.4146 31.4797 24.6156 36.2948 24.6156C39.0375 24.6156 41.7871 24.9369 44.467 25.5708C47.1692 26.2113 49.6179 27.1851 51.7451 28.4652C53.8983 29.7606 55.6665 31.3874 57.0001 33.3007C58.3581 35.2475 59.0461 37.5303 59.0461 40.0858C59.0461 42.8392 58.442 45.4206 57.2501 47.7576C56.0677 50.0737 54.442 52.1884 52.4177 54.0437C50.4127 55.8837 48.036 57.5078 45.3533 58.87C43.1408 59.992 40.7877 60.9485 38.346 61.7195C38.1908 61.7683 38.1348 61.8486 38.1418 62.0108C38.1947 63.2289 38.2819 64.4293 38.4023 65.589C38.5404 66.9187 38.7238 68.2163 38.9473 69.4458C39.1668 70.6543 39.4308 71.8319 39.7313 72.9463C39.9647 73.8083 40.2243 74.6486 40.5038 75.4436C40.6818 75.9518 40.8689 76.4474 41.06 76.9158C41.4415 77.8562 41.8627 78.7554 42.3112 79.59C42.7503 80.4082 43.2268 81.1855 43.7276 81.9001C44.2142 82.5958 44.7373 83.2509 45.283 83.848C45.8136 84.4281 46.3748 84.9635 46.9527 85.4394C47.5159 85.9034 48.1091 86.3224 48.7163 86.6857C49.3071 87.0383 49.927 87.3454 50.558 87.5987C51.1805 87.8476 51.8254 88.0476 52.4737 88.1932C53.1214 88.3388 53.7925 88.4344 54.468 88.4778C55.1437 88.5202 55.8462 88.5106 56.5475 88.448C57.26 88.3854 57.9882 88.267 58.7143 88.0967C59.4548 87.9227 60.2112 87.6906 60.9629 87.4063C61.7327 87.1154 62.5118 86.7641 63.2796 86.3624C63.5736 86.2092 63.8698 86.0468 64.165 85.876C65.1238 85.3227 66.3458 85.5865 66.9902 86.4863C67.6349 87.3864 67.4911 88.6286 66.6582 89.3575C66.2497 89.7154 65.8398 90.0636 65.432 90.3992C64.447 91.2077 63.4576 91.9574 62.4925 92.6275C61.5732 93.2655 60.6409 93.8559 59.7212 94.3814C59.2593 94.6458 58.7751 94.9067 58.2846 95.1563C57.3388 95.6359 56.3809 96.059 55.4386 96.4142C54.4976 96.7675 53.5535 97.0593 52.6327 97.2819C51.7124 97.5047 50.7868 97.6654 49.8808 97.7589C49.2364 97.8245 48.5902 97.858 47.96 97.858C47.705 97.858 47.4507 97.8528 47.1957 97.8418C46.3212 97.8042 45.45 97.7004 44.6071 97.5339C44.1884 97.4518 43.7685 97.3517 43.3572 97.2359C42.9597 97.1263 42.5513 96.9949 42.1433 96.8461C41.3575 96.5596 40.5802 96.2069 39.836 95.7983C39.1044 95.3971 38.3871 94.9328 37.7051 94.4186C37.1546 94.0032 36.6141 93.547 36.1 93.0617C35.4812 92.4784 34.8799 91.8331 34.3101 91.1436C33.7489 90.4644 33.2102 89.7296 32.709 88.9593C32.2079 88.1899 31.7331 87.3708 31.2969 86.524C30.8596 85.6782 30.4478 84.779 30.072 83.8513C29.7008 82.9351 29.3523 81.9597 29.038 80.9528C28.7296 79.9636 28.4457 78.9156 28.1957 77.8374C27.9468 76.7606 27.7305 75.6432 27.5511 74.5155C27.3915 73.5193 27.2562 72.4849 27.1487 71.4346C27.1161 71.1146 26.6656 71.0748 26.577 71.3841Z" fill="white"/>
<path d="M191.013 31.1111C191.013 35.632 187.348 39.2966 182.828 39.2966C178.307 39.2966 174.641 35.632 174.641 31.1111C174.641 26.5903 178.307 22.9255 182.828 22.9255C187.348 22.9255 191.013 26.5903 191.013 31.1111Z" fill="white"/>
<path d="M152.224 53.557C151.967 54.9958 151.56 56.655 151.014 58.4875C150.466 60.3163 149.764 62.2454 148.935 64.2025C148.033 66.1771 147.1 68.0223 146.163 69.6867C145.235 71.3328 144.312 72.749 143.422 73.8958C142.555 75.0132 141.752 75.8393 141.034 76.3521C140.493 76.7391 140.193 76.7807 140.089 76.7807C140.042 76.7807 140.003 76.7731 139.961 76.7542C139.872 76.7142 139.569 76.5062 139.438 75.523C139.315 74.6229 139.381 73.4409 139.632 72.0081C139.887 70.531 140.294 68.8585 140.841 67.0358C141.383 65.2164 142.085 63.288 142.926 61.3037C143.76 59.3364 144.671 57.5003 145.637 55.8457C146.601 54.1929 147.539 52.7918 148.426 51.6801C149.288 50.5948 150.093 49.7812 150.819 49.2616C151.362 48.8741 151.661 48.8323 151.765 48.8323C151.813 48.8323 151.853 48.8404 151.89 48.8573C151.979 48.8973 152.281 49.1059 152.415 50.0896C152.536 50.9906 152.472 52.157 152.224 53.557ZM115.572 53.5573C115.316 54.9967 114.909 56.6556 114.363 58.4875C113.812 60.3255 113.109 62.2544 112.284 64.2025C111.381 66.1804 110.448 68.0258 109.512 69.6867C108.583 71.3339 107.66 72.7501 106.77 73.8958C105.905 75.0125 105.102 75.8384 104.381 76.3523C103.841 76.7391 103.542 76.7807 103.439 76.7807C103.391 76.7807 103.351 76.7731 103.31 76.7542C103.221 76.7142 102.919 76.5071 102.786 75.5228C102.665 74.6268 102.73 73.4442 102.98 72.0081C103.235 70.5362 103.642 68.8637 104.189 67.0358C104.732 65.2155 105.434 63.2869 106.276 61.3035C107.111 59.3315 108.022 57.4953 108.985 55.846C109.952 54.1912 110.89 52.7894 111.774 51.6805C112.639 50.5926 113.445 49.7784 114.168 49.2613C114.711 48.8741 115.01 48.8323 115.113 48.8323C115.162 48.8323 115.202 48.8404 115.238 48.8573C115.328 48.8973 115.631 49.1059 115.764 50.0896C115.885 50.9882 115.82 52.1551 115.572 53.5573ZM75.9169 53.4699C75.7584 54.9293 75.4496 56.5989 74.9995 58.4317C74.5488 60.2577 73.93 62.1815 73.1611 64.1504C72.3943 66.1097 71.5774 67.9525 70.7325 69.6279C69.904 71.2641 69.0663 72.6599 68.2422 73.7769C67.4387 74.8635 66.6839 75.6729 65.9977 76.1838C65.4897 76.5629 65.2091 76.6039 65.1121 76.6039C65.0677 76.6039 65.03 76.596 64.9889 76.5769C64.8956 76.5356 64.5787 76.3219 64.4134 75.3234C64.2584 74.4099 64.2442 73.2308 64.3696 71.8185C64.497 70.3819 64.789 68.7322 65.2369 66.9147C65.6845 65.0956 66.3033 63.1717 67.076 61.1965C67.8533 59.2118 68.6706 57.3688 69.5063 55.7175C70.3309 54.0826 71.1694 52.6697 72.0003 51.5183C72.7995 50.4079 73.5531 49.5855 74.2385 49.0742C74.7467 48.6962 75.028 48.655 75.1256 48.655C75.1714 48.655 75.209 48.6629 75.2449 48.6789C75.3417 48.7229 75.6741 48.9451 75.8773 49.9568C76.059 50.8553 76.0721 52.0375 75.9169 53.4699ZM189.186 64.1283C188.787 63.5095 188.019 63.1094 187.228 63.1094C186.478 63.1094 185.804 63.4609 185.381 64.0744C184.896 64.7768 184.297 65.6108 183.601 66.5534C182.837 67.5869 182.013 68.5783 181.151 69.4989C180.295 70.4152 179.46 71.212 178.67 71.8669C177.853 72.5448 177.325 72.6868 177.026 72.6868C176.816 72.6868 176.427 72.6868 176.338 71.6565C176.247 70.5776 176.406 69.1748 176.814 67.4865C177.23 65.7518 177.833 63.8262 178.606 61.7634C179.393 59.6638 180.185 57.6584 180.955 55.8033C181.757 53.8751 182.445 52.2719 183.059 50.9021C183.672 49.5389 184.055 48.6517 184.201 48.2639C184.691 47.1408 184.512 46.0336 183.684 45.0611C182.923 44.1698 181.905 43.5451 180.66 43.204C179.443 42.8707 178.117 42.8514 176.735 43.1465C175.255 43.4632 174.081 44.3193 173.247 45.6893C172.512 46.8923 171.556 48.7822 170.405 51.3062C169.25 53.8361 168.134 56.6453 167.088 59.6553C166.453 61.4808 165.867 63.3368 165.338 65.205C164.456 68.3123 162.642 71.0743 160.141 73.118C159.245 73.8498 158.303 74.5393 157.323 75.1802C156.89 75.4641 156.454 75.727 156.016 75.9678C155.878 76.0439 155.734 75.8767 155.829 75.7515C156.585 74.7562 157.328 73.6808 158.053 72.5316C159.548 70.1655 160.909 67.3317 162.1 64.1095C163.36 60.6976 164.15 57.5857 164.449 54.859C164.75 52.099 164.645 49.6906 164.136 47.7007C163.609 45.646 162.689 44.0299 161.398 42.8965C160.062 41.7254 158.41 41.1316 156.49 41.1316C154.225 41.1316 152.145 41.7307 150.305 42.9123C149.048 43.7195 147.884 44.6211 146.829 45.6044C146.741 45.686 146.669 45.6764 146.605 45.5755C146.37 45.2021 146.055 44.8505 145.658 44.5213C144.765 43.7839 143.691 43.2901 142.464 43.0537C141.233 42.8201 139.982 42.9046 138.762 43.3052C137.457 43.7337 136.483 44.6196 135.868 45.9393C134.688 48.4814 133.442 51.4485 132.164 54.7579C130.889 58.0624 129.646 61.5167 128.468 65.0253C128.338 65.4145 128.208 65.8037 128.078 66.1928C127.084 69.1851 125.215 71.8106 122.714 73.7312C122.055 74.2377 121.373 74.7216 120.672 75.1802C120.239 75.4641 119.802 75.727 119.364 75.968C119.226 76.0442 119.082 75.8771 119.177 75.7515C119.933 74.7569 120.676 73.6819 121.401 72.5321C122.895 70.1674 124.257 67.3341 125.449 64.1095C126.708 60.6972 127.498 57.5853 127.797 54.859C128.099 52.0979 127.994 49.6893 127.485 47.7007C126.959 45.6468 126.039 44.0306 124.747 42.8965C123.41 41.7252 121.758 41.1316 119.84 41.1316C117.574 41.1316 115.493 41.7307 113.654 42.9118C112.396 43.7195 111.232 44.6211 110.178 45.6037C110.09 45.6854 110.018 45.6759 109.955 45.5746C109.72 45.2018 109.404 44.8503 109.006 44.5217C108.115 43.7841 107.04 43.2905 105.812 43.0537C104.58 42.8197 103.328 42.9048 102.111 43.3052C100.807 43.7329 99.8334 44.6187 99.2159 45.9397C98.0354 48.4858 96.7893 51.4526 95.5131 54.7581C94.3156 57.8635 93.1509 61.0866 92.0459 64.3487C91.2122 66.8108 89.9641 68.7886 88.1011 70.6006C87.62 71.0684 87.1512 71.4919 86.6983 71.8669C85.8812 72.5448 85.3532 72.6868 85.0538 72.6868C84.8443 72.6868 84.4542 72.6868 84.3671 71.6559C84.275 70.5796 84.4345 69.177 84.8417 67.4865C85.2571 65.7527 85.8604 63.8269 86.6339 61.7634C87.4129 59.6853 88.204 57.6798 88.9835 55.8033C89.7706 53.9114 90.4787 52.2621 91.0877 50.9021C91.7115 49.512 92.0847 48.6482 92.2276 48.2634C92.7199 47.1407 92.5411 46.0336 91.7121 45.0611C90.9493 44.168 89.9137 43.5427 88.6322 43.2018C87.381 42.8704 86.058 42.8518 84.7086 43.1473C83.2639 43.465 82.108 44.3204 81.2753 45.6869C81.1085 45.9574 80.9349 46.2558 80.7508 46.5872C80.6854 46.7056 80.5085 46.6791 80.4803 46.5467C80.3218 45.8005 80.0662 45.095 79.7166 44.4394C79.1926 43.4625 78.4168 42.6608 77.4113 42.0562C76.3897 41.4426 75.093 41.1316 73.5577 41.1316C69.9371 41.1316 66.2652 42.8024 62.6444 46.098C59.0896 49.3342 56.1431 54.4969 53.8844 61.4469C52.8246 64.7981 52.2029 67.8956 52.0361 70.654C51.8682 73.4457 52.0937 75.855 52.7048 77.8136C53.3346 79.8333 54.3401 81.4279 55.6955 82.5519C57.0925 83.7138 58.7715 84.303 60.6851 84.303C62.1011 84.303 63.4518 84.0588 64.7004 83.5763C65.9104 83.1088 67.0322 82.5079 68.0347 81.7909C68.8061 81.2395 69.5242 80.6154 70.1765 79.9294C70.6417 79.4404 71.461 79.6381 71.6527 80.2847C71.867 81.0096 72.166 81.6545 72.5484 82.2157C73.4942 83.6004 74.9912 84.303 76.9971 84.303C79.2195 84.303 81.4651 83.4695 83.6713 81.8259C84.6996 81.0606 85.7043 80.226 86.6777 79.3284C86.8966 79.1268 87.2413 79.3426 87.1555 79.6276C86.5871 81.5179 86.0768 83.2692 85.6174 84.9124C84.8425 87.6748 84.2123 90.0539 83.7439 91.9843C83.1168 94.5735 83.036 95.2775 83.036 95.6021C83.036 97.1895 83.529 98.5426 84.5024 99.625C85.4425 100.666 86.5319 101.413 87.7437 101.845C88.5411 102.128 89.3195 102.271 90.0556 102.271C90.4632 102.271 90.865 102.227 91.2512 102.14C92.1195 101.944 93.2218 101.365 93.5429 99.7222L93.5482 99.6905C93.676 98.8257 93.9194 97.654 94.2725 96.2075C94.6387 94.7066 95.0839 92.998 95.5961 91.1289C96.1013 89.2701 96.6794 87.1994 97.3614 84.7984C97.6764 83.6888 98.0146 82.5263 98.374 81.3183C98.4476 81.0727 98.7792 81.0335 98.9075 81.2555C99.0672 81.5317 99.2452 81.8014 99.4413 82.0636C100.547 83.5455 102.311 84.2985 104.685 84.303C105.162 84.3243 105.64 84.3352 106.108 84.3352H106.109C109.599 84.3352 112.878 83.7361 115.852 82.5548C118.695 81.4275 121.298 80.0496 123.618 78.4548C123.845 78.2981 124.143 78.5158 124.063 78.7805C123.397 80.9742 122.797 83.0274 122.269 84.9129C121.49 87.6945 120.859 90.0736 120.394 91.9845C119.768 94.5784 119.687 95.2805 119.687 95.6021C119.687 97.189 120.18 98.542 121.154 99.625C122.094 100.667 123.184 101.413 124.395 101.845C125.193 102.128 125.97 102.271 126.706 102.271C127.113 102.271 127.516 102.227 127.903 102.14C128.772 101.944 129.873 101.365 130.195 99.7222L130.2 99.6901C130.328 98.8224 130.572 97.6507 130.925 96.2071C131.29 94.7071 131.735 92.9988 132.247 91.1289C132.755 89.262 133.333 87.1915 134.013 84.7984C134.329 83.6867 134.667 82.5239 135.025 81.3176C135.099 81.0718 135.43 81.0326 135.559 81.2544C135.719 81.531 135.897 81.8009 136.094 82.0634C137.198 83.545 138.962 84.2985 141.337 84.303C141.813 84.3243 142.292 84.3352 142.76 84.3352H142.76C146.25 84.3352 149.529 83.7361 152.504 82.5548C155.834 81.2344 158.844 79.572 161.449 77.6131C161.893 77.2798 162.324 76.9427 162.745 76.6021C162.937 76.4462 163.225 76.5863 163.221 76.8341C163.219 76.9458 163.218 77.0563 163.218 77.166C163.218 79.2496 163.656 80.9486 164.52 82.2157C165.466 83.6004 166.964 84.303 168.969 84.303C171.188 84.303 173.448 83.471 175.687 81.8298C177.815 80.2711 179.825 78.4279 181.66 76.3515C183.471 74.3046 185.061 72.2648 186.39 70.2889C187.732 68.2887 188.636 66.9211 189.152 66.1073C189.564 65.458 189.576 64.7364 189.186 64.1283Z" fill="white"/>
<path d="M189.233 128.6C179.441 137.173 170.756 137.711 160.327 130.032C155.531 126.506 151.235 122.304 146.427 118.796C142.706 116.083 138.774 113.388 134.528 111.712C127.181 108.804 119.728 109.792 113.019 113.869C108.461 116.639 104.309 120.09 100.082 123.379C99.488 123.836 99.0443 124.086 98.5938 124.067C98.1435 124.086 97.6999 123.836 97.1058 123.379C92.879 120.09 88.7269 116.639 84.169 113.869C77.4662 109.792 70.0067 108.804 62.6599 111.712C58.4141 113.388 54.4813 116.083 50.7609 118.796C45.9523 122.304 41.6569 126.506 36.8612 130.032C26.4314 137.711 17.7467 137.173 7.95497 128.6C7.14837 127.894 6.34176 127.187 5.53516 126.487C6.99208 134.553 10.1371 141.787 14.7767 148.353C20.6978 156.731 28.4638 162.734 38.2118 166.029C60.9963 173.732 89.7778 162.996 98.5938 142.731C107.41 162.996 136.191 173.732 158.976 166.029C168.724 162.734 176.49 156.731 182.411 148.353C187.051 141.787 190.196 134.553 191.653 126.487C190.846 127.187 190.04 127.894 189.233 128.6Z" fill="white"/>
</g>
</g>
<defs>
<clipPath id="clip0_16_5">
<rect width="197" height="197" fill="white"/>
</clipPath>
</defs>
</svg>
