<svg width="25" height="24" viewBox="0 0 25 24" fill="none" xmlns="http://www.w3.org/2000/svg">
<path d="M18.7909 16.12C18.0309 16.12 17.3509 16.42 16.8309 16.89L9.70089 12.74C9.75089 12.51 9.79089 12.28 9.79089 12.04C9.79089 11.8 9.75089 11.57 9.70089 11.34L16.7509 7.23004C17.2909 7.73004 18.0009 8.04004 18.7909 8.04004C20.4509 8.04004 21.7909 6.70004 21.7909 5.04004C21.7909 3.38004 20.4509 2.04004 18.7909 2.04004C17.1309 2.04004 15.7909 3.38004 15.7909 5.04004C15.7909 5.28004 15.8309 5.51004 15.8809 5.74004L8.83089 9.85004C8.29089 9.35004 7.58089 9.04004 6.79089 9.04004C5.13089 9.04004 3.79089 10.38 3.79089 12.04C3.79089 13.7 5.13089 15.04 6.79089 15.04C7.58089 15.04 8.29089 14.73 8.83089 14.23L15.9509 18.39C15.9009 18.6 15.8709 18.82 15.8709 19.04C15.8709 20.65 17.1809 21.96 18.7909 21.96C20.4009 21.96 21.7109 20.65 21.7109 19.04C21.7109 17.43 20.4009 16.12 18.7909 16.12Z" fill="#BDBDBD"/>
</svg>
