<svg width="21" height="21" viewBox="0 0 21 21" fill="none" xmlns="http://www.w3.org/2000/svg">
<path d="M4.22503 17.3228H16.775C18.0584 17.3228 18.8584 15.9312 18.2167 14.8228L11.9417 3.98115C11.3 2.87282 9.70003 2.87282 9.05836 3.98115L2.78336 14.8228C2.1417 15.9312 2.9417 17.3228 4.22503 17.3228ZM10.5 11.4895C10.0417 11.4895 9.6667 11.1145 9.6667 10.6562V8.98949C9.6667 8.53115 10.0417 8.15615 10.5 8.15615C10.9584 8.15615 11.3334 8.53115 11.3334 8.98949V10.6562C11.3334 11.1145 10.9584 11.4895 10.5 11.4895ZM11.3334 14.8228H9.6667V13.1562H11.3334V14.8228Z" fill="#CA8206"/>
</svg>
