<svg width="212" height="54" viewBox="0 0 212 54" fill="none" xmlns="http://www.w3.org/2000/svg">
<path fill-rule="evenodd" clip-rule="evenodd" d="M32.0672 49.2722C32.0672 46.4078 33.7758 44.5536 36.4184 44.5536C39.0611 44.5536 40.7666 46.4047 40.7666 49.2722C40.7666 52.1397 39.0611 53.9909 36.4184 53.9909C33.7758 53.9909 32.0672 52.1367 32.0672 49.2722ZM38.5669 49.2783C38.5669 47.5451 37.7835 46.556 36.4184 46.556C35.0534 46.556 34.2699 47.5481 34.2699 49.2783C34.2699 51.0085 35.0534 52.0006 36.4184 52.0006C37.7835 52.0006 38.5669 51.0115 38.5669 49.2783ZM4.81796 53.8608H2.7207V44.6837H8.82263V46.6861H4.81796V48.3104H8.37968V50.3128H4.81796V53.8608ZM13.1196 44.6837H15.5001V44.7018L18.5465 53.8457H16.3649L15.7622 51.8524H12.8574L12.2548 53.8608H10.0761V53.8336L13.1196 44.6837ZM13.448 49.9165H15.1807L14.3158 47.0672L13.448 49.9165ZM25.1276 50.343L23.0574 44.6988L23.0514 44.6837H20.5202V53.8608H22.4879V48.0442L24.2175 52.7386H26.0406L27.7702 48.0442V53.8608H29.7379V44.6837H27.2067L25.1276 50.343ZM48.3993 49.7441C48.3993 51.2988 47.881 51.9915 46.7209 51.9915C45.5608 51.9915 45.0395 51.3442 45.0395 49.7562V44.6837H42.9302V50.095C42.9302 51.4047 43.2827 52.4029 43.9758 53.0653C44.6206 53.6703 45.5397 53.9909 46.7088 53.9909C47.878 53.9909 48.797 53.6884 49.4389 53.0653C50.1349 52.4029 50.4875 51.4047 50.4875 50.095V44.6837H48.3782L48.3993 49.7441ZM55.9536 48.1016L56.9269 48.3769C58.7379 48.9002 59.5424 49.735 59.5304 51.0962C59.5304 52.8324 58.1955 54 56.2157 54C54.7784 54 53.6725 53.4313 52.7263 52.2063V52.1881H52.7444L54.3987 50.9238V50.9389C55.0104 51.6739 55.6221 52.0157 56.3333 52.0157C56.957 52.0157 57.3759 51.689 57.3759 51.2686C57.3759 50.8481 57.0896 50.6152 56.3272 50.4035L55.4413 50.1555C53.8232 49.6987 53.0307 48.7701 53.0307 47.3152C53.0307 45.6939 54.3023 44.5929 56.1977 44.5929C56.8511 44.5692 57.4956 44.7516 58.0404 45.1146C58.5853 45.4776 59.003 46.0028 59.2351 46.6165H59.22L57.7134 47.7689V47.7417C57.6241 47.4048 57.4296 47.1056 57.1584 46.8878C56.8873 46.6701 56.5537 46.5453 56.2067 46.5318C55.5588 46.5318 55.137 46.8403 55.137 47.2638C55.137 47.6873 55.3901 47.9474 55.9536 48.1016ZM67.5217 44.6837H65.4244V53.8608H71.6439V51.8584H67.5217V44.6837ZM73.3193 49.2722C73.3193 46.4078 75.0248 44.5536 77.6675 44.5536C80.3101 44.5536 82.0187 46.4047 82.0187 49.2722C82.0187 52.1397 80.3101 53.9909 77.6675 53.9909C75.0248 53.9909 73.3193 52.1367 73.3193 49.2722ZM75.522 49.2692C75.522 50.9994 76.3024 51.9915 77.6675 51.9915C79.0325 51.9915 79.8159 51.0024 79.8159 49.2692C79.8159 47.536 79.0325 46.5469 77.6675 46.5469C76.3024 46.5469 75.522 47.539 75.522 49.2692ZM89.9466 49.7441C89.9466 51.2988 89.4283 51.9915 88.2682 51.9915C87.1081 51.9915 86.5868 51.3442 86.5868 49.7562V44.6837H84.4775V50.095C84.4775 51.4047 84.8301 52.4029 85.5231 53.0653C86.168 53.6703 87.087 53.9909 88.2562 53.9909C89.4253 53.9909 90.3444 53.6884 90.9892 53.0653C91.6823 52.4029 92.0348 51.4047 92.0348 50.095V44.6837H89.9255L89.9466 49.7441ZM94.8764 44.6837H96.9736V53.8608H94.8764V44.6837ZM103.651 48.3769L102.678 48.1016C102.114 47.9474 101.861 47.6873 101.861 47.2638C101.861 46.8403 102.28 46.5318 102.931 46.5318C103.278 46.5458 103.611 46.6707 103.882 46.8884C104.153 47.1061 104.348 47.4051 104.438 47.7417V47.7689L105.944 46.6165H105.959C105.728 46.003 105.311 45.4779 104.766 45.1149C104.222 44.7519 103.578 44.5693 102.925 44.5929C101.03 44.5929 99.7579 45.6939 99.7579 47.3152C99.7579 48.7701 100.55 49.6987 102.169 50.1555L103.051 50.4035C103.817 50.6152 104.103 50.8481 104.103 51.2686C104.103 51.689 103.684 52.0157 103.057 52.0157C102.349 52.0157 101.735 51.6739 101.126 50.9389V50.9238L99.4686 52.1881H99.4506L99.4656 52.2063C100.409 53.4313 101.518 54 102.955 54C104.935 54 106.27 52.8324 106.27 51.0962C106.267 49.735 105.462 48.9002 103.651 48.3769ZM108.798 44.6837H110.895V53.8608H108.798V44.6837ZM118.38 44.6837H116.009L112.962 53.8336V53.8608H115.141L115.743 51.8524H118.645L119.248 53.8457H121.427L118.386 44.7018L118.38 44.6837ZM118.061 49.9165H116.328L117.196 47.0672L118.061 49.9165ZM125.865 44.6958L129.056 50.8118V44.6837H131.078V53.8608H128.794L128.788 53.8517L125.594 48.1349V53.8608H123.572V44.6837H125.856L125.865 44.6958ZM138.629 44.6837H136.255L133.209 53.8336V53.8608H135.387L135.99 51.8524H138.895L139.497 53.8457H141.679L138.632 44.7018L138.629 44.6837ZM136.577 49.9165L137.442 47.0672L138.307 49.9165H136.577ZM150.375 51.9915C151.273 51.9915 151.801 51.5257 152.135 50.4398L152.126 50.4247L154.142 50.8633V50.8844C153.654 52.9201 152.346 53.9939 150.366 53.9939C147.766 53.9939 146.148 52.1881 146.148 49.2753C146.148 47.8415 146.573 46.6346 147.371 45.7877C147.762 45.3851 148.231 45.0679 148.75 44.8561C149.268 44.6442 149.825 44.5423 150.384 44.5566C152.515 44.5566 153.657 45.6304 153.877 47.8385V47.8597H153.859L151.882 48.2952V48.271C151.77 47.1337 151.264 46.556 150.375 46.556C150.095 46.5489 149.818 46.6082 149.565 46.7291C149.312 46.8499 149.091 47.029 148.92 47.2517C148.517 47.8508 148.319 48.5654 148.356 49.2874C148.356 50.9782 149.11 51.9915 150.375 51.9915ZM161.76 48.1289H158.584V44.6837H156.483V53.8608H158.584V50.1313H161.76V53.8608H163.86V44.6837H161.76V48.1289ZM166.768 44.6837H168.868V53.8608H166.768V44.6837ZM177.26 50.4398C176.928 51.5257 176.401 51.9915 175.5 51.9915C174.238 51.9915 173.484 50.9782 173.484 49.2874C173.446 48.5657 173.643 47.8511 174.045 47.2517C174.216 47.029 174.437 46.85 174.69 46.7291C174.942 46.6082 175.22 46.5489 175.5 46.556C176.404 46.556 176.895 47.1337 177.007 48.271V48.2952L178.981 47.8597H179.002V47.8385C178.785 45.6304 177.643 44.5566 175.509 44.5566C174.953 44.5444 174.399 44.6475 173.884 44.8593C173.369 45.0711 172.902 45.3871 172.514 45.7877C171.712 46.6346 171.291 47.8415 171.291 49.2753C171.291 52.1881 172.906 53.9939 175.509 53.9939C177.492 53.9939 178.797 52.9201 179.288 50.8844V50.8633L177.269 50.4247L177.26 50.4398ZM188.75 44.6837L188.72 44.723L185.767 48.2831L188.807 53.8608H186.351L186.342 53.8487L184.332 50.0194L183.513 51.0024V53.8608H181.415V44.6837H183.513V48.0472L186.222 44.6837H188.75ZM193.035 50.1827H196.596V48.1803H193.035V46.6861H197.039V44.6837H190.937V53.8608H197.118V51.8584H193.035V50.1827ZM201.788 44.6958L204.979 50.8118V44.6837H207.001V53.8608H204.717L204.711 53.8517L201.517 48.1349V53.8608H199.495V44.6837H201.782L201.788 44.6958Z" fill="#FF7D00"/>
<path fill-rule="evenodd" clip-rule="evenodd" d="M207.905 29.5119C208.232 29.2906 208.617 29.1714 209.011 29.1696C209.274 29.1672 209.534 29.2171 209.777 29.3164C210.021 29.4157 210.242 29.5624 210.428 29.7481C210.614 29.9337 210.762 30.1546 210.863 30.398C210.964 30.6414 211.015 30.9024 211.015 31.166C211.016 31.5619 210.9 31.9493 210.682 32.2792C210.464 32.609 210.154 32.8666 209.79 33.0194C209.426 33.1721 209.025 33.2132 208.638 33.1373C208.251 33.0615 207.895 32.8722 207.615 32.5933C207.335 32.3144 207.144 31.9584 207.065 31.5704C206.987 31.1825 207.025 30.7798 207.174 30.4134C207.323 30.047 207.578 29.7333 207.905 29.5119ZM208.049 32.6248C208.337 32.8045 208.672 32.8937 209.011 32.881C209.232 32.8804 209.451 32.8351 209.654 32.7478C209.857 32.6605 210.041 32.533 210.194 32.3729C210.347 32.2128 210.466 32.0235 210.544 31.8161C210.623 31.6088 210.659 31.3876 210.65 31.166C210.649 30.8256 210.546 30.4934 210.356 30.2119C210.165 29.9305 209.895 29.7126 209.58 29.5863C209.265 29.4599 208.92 29.4309 208.588 29.5028C208.257 29.5748 207.954 29.7444 207.719 29.99C207.485 30.2357 207.328 30.5461 207.27 30.8815C207.212 31.2169 207.256 31.562 207.394 31.8726C207.533 32.1832 207.761 32.4451 208.049 32.6248ZM209.056 30.0045C209.647 30.0045 209.978 30.186 209.978 30.7032C209.982 30.7857 209.968 30.868 209.939 30.945C209.909 31.0221 209.864 31.0922 209.807 31.1511C209.749 31.2101 209.68 31.2566 209.604 31.2877C209.528 31.3189 209.446 31.3341 209.364 31.3324L209.993 32.3638H209.511L208.933 31.3535H208.631V32.3638H208.173V30.0045H209.056ZM208.631 30.3826V31.0057L209.05 31.0087C209.312 31.0087 209.511 30.9482 209.511 30.6851C209.511 30.4219 209.246 30.3826 209.029 30.3826H208.631Z" fill="#FF7D00"/>
<path fill-rule="evenodd" clip-rule="evenodd" d="M12.5323 0.0470889C8.88019 -0.125323 2.6517 0.216476 0 0.416111L0.213944 8.35009L2.75415 8.19281V32.9113H12.5444V26.7286C26.8515 26.045 30.1932 18.3863 30.1932 12.984C30.1932 5.31927 23.9708 0.588523 12.5323 0.0470889ZM12.5323 19.0245V8.22608C18.7698 8.52856 20.2674 11.1964 20.2674 13.3682C20.2795 16.4807 18.2124 18.9066 12.5444 19.0245H12.5323ZM145.009 1.59576L138.874 14.8715L132.998 1.59576H122.376L133.715 24.2785V32.9385H143.906V24.2906L155.833 1.59576H145.009ZM161.935 20.1013C162.887 23.3469 165.319 25.2193 169.236 25.2193C171.915 25.225 174.534 24.4289 176.76 22.9325L180.283 30.192C177.064 32.385 173.226 33.3499 168.808 33.3499C158.207 33.3499 151.9 26.29 151.9 16.8074C151.9 7.3247 158.442 0.443339 167.895 0.443339C179.448 0.443339 183.004 8.94598 183.064 15.6943C183.08 17.1699 182.971 18.6442 182.738 20.1013H161.935ZM173.681 13.4559C173.439 10.0319 171.116 8.13837 167.937 8.13837C164.601 8.13837 162.598 10.3102 161.835 13.4559H173.681ZM76.0677 0.373773C72.4518 0.201361 66.2835 0.540135 63.659 0.736745L63.8699 8.60116L66.386 8.44387V32.9173H76.0677V26.7922C90.2302 26.1116 93.5448 18.5285 93.5448 13.1807C93.5448 5.59151 87.3917 0.909159 76.0677 0.373773ZM76.0677 19.1606V8.46807C82.245 8.77055 83.7275 11.4112 83.7275 13.5739C83.7366 16.644 81.6875 19.0457 76.0677 19.1606ZM187.129 23.2078C189.383 24.6809 192.477 25.5459 194.632 25.5459C196.964 25.5459 197.769 24.7988 197.757 23.8581C197.757 22.866 196.997 22.3215 195.792 21.8073C195.125 21.5227 194.351 21.2529 193.573 20.9819L193.573 20.9818C192.739 20.6912 191.902 20.3992 191.188 20.0862C186.33 17.978 183.826 15.4734 183.826 10.2618C183.826 3.66169 189.22 0.316291 196.13 0.316291C201.222 0.316291 205.224 2.31264 207.55 5.45841L202.126 11.1238C200.396 9.2666 198.471 8.12626 196.006 8.12626C194.397 8.12626 193.131 8.81288 193.131 10.0228C193.131 10.9605 193.571 11.5443 194.939 12.1704C195.854 12.5889 197.097 13.0777 198.342 13.5673C198.959 13.8101 199.577 14.0531 200.155 14.2877C203.729 15.7336 207.107 18.2532 207.107 23.5526C207.107 30.5913 200.653 33.2107 194.626 33.2107C190.745 33.2107 186.954 32.273 183.814 29.9924L187.129 23.2078ZM47.5197 0.630875C38.5281 0.630875 31.0491 7.33075 31.0491 16.8376C31.0491 26.3445 38.5281 33.0444 47.5197 33.0444C56.5114 33.0444 63.9904 26.3415 63.9904 16.8376C63.9904 7.33378 56.5114 0.630875 47.5197 0.630875ZM47.5951 24.3481C43.2258 24.3481 40.4566 20.9755 40.4566 16.7862C40.4566 12.5969 43.2258 9.22426 47.5951 9.22426C51.9643 9.22426 54.7336 12.5969 54.7336 16.7862C54.7336 20.9755 51.9613 24.3572 47.5951 24.3572V24.3481ZM111.748 25.2253C114.816 25.2253 117.504 24.2423 119.996 22.503L123.819 29.5265C120.42 32.1762 116.184 33.3559 111.338 33.3559C100.506 33.3559 94.3403 26.2961 94.3403 16.8134C94.3403 7.33074 100.885 0.449382 110.338 0.449382C121.906 0.449382 125.447 8.95202 125.507 15.7003C125.524 17.1758 125.416 18.6502 125.184 20.1074H104.344C105.267 23.353 107.671 25.2253 111.748 25.2253ZM116.096 13.4559C115.831 10.0008 113.535 8.14075 110.359 8.13836C107.027 8.14093 105.025 10.312 104.263 13.4559H116.096Z" fill="#FF7D00"/>
</svg>
