<svg width="120" height="120" viewBox="0 0 120 120" fill="none" xmlns="http://www.w3.org/2000/svg">
<path fill-rule="evenodd" clip-rule="evenodd" d="M102.86 112.873H102.007V112.506H104.11V112.873H103.252V115.422H102.86V112.873ZM105.023 112.506L105.932 114.599L106.84 112.506H107.347V115.422H106.971V113.084L106.117 115.026H105.751L104.898 113.084V115.422H104.522V112.506H105.023Z" fill="white"/>
<path fill-rule="evenodd" clip-rule="evenodd" d="M90.9003 94.5792L88.5515 96.8929L97.9317 106.393L99.9944 104.356L94.0471 98.3333L103.372 101.018L105.721 98.6997L96.3407 89.2041L94.278 91.2417L100.642 97.6859L90.9003 94.5792ZM17.4352 93.1238C20.572 90.0573 24.2357 90.2581 26.6497 92.7223C28.9333 95.0561 28.7878 97.3296 26.8053 99.6984L24.3562 98.0924C25.4452 96.8126 25.5406 95.6784 24.6071 94.7248C23.3675 93.4601 21.5055 93.5705 19.6385 95.4023C17.7715 97.2342 17.631 99.061 18.8857 100.326C19.8894 101.375 21.0187 101.279 22.3486 100.592L23.9245 103.101C21.3449 104.637 18.8706 104.396 16.843 102.323C14.3085 99.7185 14.3186 96.1853 17.4352 93.1238ZM32.8881 98.5391L35.5481 99.9594L33.1792 104.401L37.3548 106.624L39.7237 102.183L42.3837 103.598L36.1052 115.382L33.4452 113.967L36.0098 109.149L31.8342 106.925L29.2696 111.739L26.6096 110.323L32.8881 98.5391ZM48.4413 105.224L45.5405 104.411L41.947 117.269L44.8479 118.082L48.4413 105.224ZM50.4439 112.737C50.7249 108.361 53.5856 106.062 57.0285 106.283C60.2857 106.489 61.696 108.291 61.8064 111.367L58.9106 111.809C58.8654 110.127 58.1778 109.224 56.8478 109.134C55.0762 109.023 53.7663 110.353 53.6007 112.958C53.4351 115.563 54.5593 117.013 56.3309 117.129C57.7964 117.224 58.5542 116.411 59.0862 115.011L61.9369 115.829C61.0436 118.695 59.0411 120.17 56.1452 119.984C52.5116 119.748 50.1578 117.114 50.4439 112.737ZM70.4036 114.705L71.2769 112.988L75.4174 117.821L78.8552 117.038L72.7173 110.102L75.7938 104.04L72.2806 104.848L69.4651 110.594L68.3559 105.741L65.4199 106.414L68.3911 119.427L71.3271 118.76L70.4036 114.705ZM78.0773 102.946L85.9016 98.7298L87.2567 101.239L82.0873 104.025L83.1563 106.007L87.7535 103.528L89.1086 106.037L84.5114 108.516L85.7059 110.73L90.9756 107.889L92.3307 110.398L84.411 114.705L78.0773 102.946Z" fill="white"/>
<path fill-rule="evenodd" clip-rule="evenodd" d="M101.395 65.2093L99.5026 65.6008C99.9192 67.3473 100.908 68.0299 102.464 67.9898C104.336 67.9898 106.153 66.6999 106.153 62.971C106.153 59.6284 104.752 58.2583 102.559 58.2583C100.366 58.2583 99.2266 59.7238 99.2266 61.5657C99.2266 63.5682 100.391 64.6272 101.897 64.6272C102.313 64.6337 102.725 64.5321 103.091 64.3325C103.456 64.1328 103.764 63.8419 103.984 63.4879C103.984 65.2344 103.332 65.9973 102.479 65.9973C102.233 66.0226 101.986 65.9561 101.786 65.8107C101.586 65.6653 101.447 65.4512 101.395 65.2093ZM103.581 60.8371C103.717 61.0356 103.791 61.2699 103.794 61.5105V61.5055C103.809 61.6703 103.788 61.8364 103.732 61.9923C103.676 62.1481 103.587 62.29 103.471 62.408C103.355 62.526 103.215 62.6173 103.06 62.6755C102.905 62.7337 102.739 62.7575 102.574 62.7451C102.334 62.7451 102.098 62.6739 101.898 62.5406C101.698 62.4072 101.542 62.2176 101.449 61.9957C101.356 61.7737 101.331 61.5293 101.377 61.2931C101.423 61.0569 101.538 60.8396 101.707 60.6685C101.876 60.4973 102.092 60.38 102.327 60.3313C102.563 60.2825 102.807 60.3045 103.03 60.3945C103.254 60.4845 103.445 60.6385 103.581 60.8371ZM94.5139 61.0487H96.0196L96.0045 67.8944H98.1425V58.4089H96.7623L94.5139 59.5732V61.0487ZM110.057 60.3863H106.409V58.4089H112.291V60.2809L109.309 67.8944H107.061L110.057 60.3863ZM114.88 64.055L113.078 66.0224V67.8944H119.171V65.8869H115.784L117.641 63.9496C118.539 63.0412 119.146 62.1478 119.146 60.9383C119.146 59.5732 118.238 58.2984 116.195 58.2984C115.465 58.2851 114.748 58.4999 114.146 58.9127C113.543 59.3256 113.084 59.9161 112.833 60.6021L114.434 61.8066C114.506 61.4096 114.709 61.0483 115.012 60.7808C115.314 60.5132 115.697 60.3549 116.1 60.331C116.697 60.331 117.033 60.6021 117.033 61.1692C117.033 61.8695 116.219 62.6891 115.487 63.4257C115.27 63.6446 115.06 63.8561 114.88 64.055Z" fill="white"/>
<path d="M21.1443 48.5267L27.9749 56.7877C27.9749 56.7877 31.6336 51.4125 36.1455 55.021C40.6574 58.6296 37.5106 66.0222 37.1091 70.3083C36.5733 74.9581 37.6352 79.6518 40.1204 83.6181C42.9008 88.0548 49.3549 91.7486 56.2859 93.0585C56.8179 93.1539 57.3248 93.2291 57.8267 93.2944L58.5494 100.933H63.7689L64.4766 93.465C76.4565 92.5014 93.41 80.7775 85.8667 61.0386C82.3786 51.9696 75.0261 38.4189 75.0261 38.4189H75.1114C78.0173 37.6761 78.5844 33.9019 75.1817 31.8944L77.6158 29.641L74.0575 28.1855L75.3875 23.3273L67.7539 26.3386C67.7539 26.3386 65.8216 22.3236 62.8806 22.2734C62.176 22.2545 61.4771 22.4046 60.8424 22.7111C60.2076 23.0176 59.6554 23.4715 59.2319 24.035C59.2319 24.035 58.5745 22.1931 56.8781 21.6912C56.3234 21.5565 55.7458 21.5452 55.1862 21.6582C54.6266 21.7711 54.0986 22.0056 53.6396 22.345C53.1805 22.6843 52.8016 23.1204 52.5295 23.6223C52.2575 24.1241 52.0989 24.6796 52.0651 25.2495C51.9355 26.4056 52.1895 27.5723 52.7881 28.5698C53.3866 29.5674 54.2964 30.3405 55.3775 30.7702C56.4616 31.1215 57.9672 31.8242 61.124 30.4892C61.124 33.656 61.124 40.9985 61.0989 44.6873C61.0989 49.4702 61.5205 57.2343 59.4678 61.425C57.4151 65.6157 55.0764 67.3823 51.9798 67.021C48.5168 66.6145 47.3324 63.3723 48.5369 57.3598C49.7414 51.3473 50.7552 45.3598 45.7113 40.9032C40.6674 36.4465 31.6135 35.9095 21.1443 48.5267ZM68.4163 29.2144C68.7182 29.0125 69.0742 28.9071 69.4373 28.9121C69.8004 28.9171 70.1533 29.0324 70.4494 29.2425C70.7456 29.4527 70.9708 29.7478 71.0954 30.0889C71.22 30.43 71.238 30.8008 71.1471 31.1524C71.0561 31.5039 70.8605 31.8195 70.5862 32.0574C70.3118 32.2953 69.9717 32.4442 69.6108 32.4843C69.2499 32.5245 68.8853 32.4541 68.5654 32.2825C68.2454 32.1108 67.9852 31.8459 67.8191 31.523C67.5949 31.137 67.5318 30.6782 67.6436 30.2461C67.7554 29.8139 68.0331 29.4432 68.4163 29.2144Z" fill="white"/>
<path fill-rule="evenodd" clip-rule="evenodd" d="M8.54702 64.8729L6.84062 66.1727C7.2397 66.7536 7.77494 67.2279 8.39959 67.5543C9.02425 67.8806 9.7193 68.049 10.424 68.0448C12.4968 68.0448 13.8519 66.8101 13.8519 65.0335C13.8519 63.568 12.9284 62.7449 11.1417 62.243L10.138 61.957C9.50059 61.7813 9.26972 61.5253 9.26972 61.0636C9.26972 60.6019 9.68628 60.2807 10.409 60.2807C10.7719 60.2964 11.1205 60.4268 11.4046 60.6531C11.6887 60.8795 11.8936 61.1902 11.9899 61.5404L13.5508 60.361C13.3116 59.7279 12.8797 59.1858 12.316 58.8112C11.7524 58.4366 11.0853 58.2484 10.409 58.2732C8.51188 58.2732 7.12669 59.3572 7.12669 61.0887C7.12669 62.5943 7.9297 63.5429 9.63609 64.0197L10.5545 64.2756C11.3425 64.4915 11.6687 64.7324 11.6687 65.1941C11.6687 65.6558 11.2471 65.9971 10.5545 65.9971C10.1568 65.9734 9.76952 65.8599 9.42185 65.6652C9.07418 65.4705 8.77509 65.1996 8.54702 64.8729ZM6.31364 58.4087H0V67.844H6.39395V65.8365H2.13801V64.0448H5.85192V62.0122H2.13801V60.4162H6.31364V58.4087ZM21.2998 60.4413H18.7252V67.8942H16.5821V60.4413H14.0125V58.4338H21.2998V60.4413ZM21.4654 65.9218H23.6034V68.0598H21.4654V65.9218Z" fill="white"/>
<path fill-rule="evenodd" clip-rule="evenodd" d="M57.681 0L66.1176 0.276035L66.0272 2.98619L60.4463 2.78543L60.3711 4.9134L65.3196 5.07902L65.2292 7.78918L60.2807 7.62355L60.2004 10.0075L65.8717 10.1982L65.7813 12.9083L57.2494 12.6223L57.681 0ZM49.9821 9.16434C52.9232 8.5671 53.9269 6.69509 53.425 4.29108C52.9332 1.87202 51.2619 0.557098 48.341 1.17943L43.3824 2.18319L45.927 14.5696L48.7224 13.9974L47.8241 9.60599L49.9821 9.16434ZM48.883 3.81931C49.8416 3.62358 50.4188 4.00501 50.5944 4.86825V4.85821C50.7701 5.72646 50.3937 6.2986 49.4351 6.50939L47.277 6.95105L46.7249 4.26097L48.883 3.81931ZM30.0224 14.951C28.1404 11.2622 29.3047 8.01501 32.4264 6.41903C35.5481 4.82306 38.8656 5.7967 40.7426 9.4805C42.6196 13.1643 41.4603 16.4165 38.3386 18.0125C35.2169 19.6084 31.9045 18.6348 30.0224 14.951ZM38.0525 10.8456C36.9333 8.65742 35.2972 7.98992 33.641 8.83809C31.9848 9.68627 31.5582 11.3977 32.6774 13.5859C33.7966 15.7741 35.4277 16.4416 37.0889 15.5934C38.7501 14.7452 39.1968 13.0489 38.0726 10.8456H38.0525ZM25.9672 15.1869C27.6234 17.0037 27.6987 19.1266 25.4955 21.1342L23.8644 22.6398L26.8756 25.9522L24.7878 27.8794L16.2559 18.5244L19.9999 15.1216C22.2232 13.089 24.3361 13.3651 25.9672 15.1869ZM23.8292 17.1292C23.232 16.4767 22.5444 16.4416 21.8217 17.0991L20.1906 18.6047L22.0425 20.6122L23.6736 19.1066C24.4114 18.4742 24.4616 17.7866 23.8493 17.1292H23.8292ZM73.8967 14.9359L75.0711 10.8155L81.1941 3.86446L78.238 3.02131L74.5191 7.57838L73.7562 1.74151L70.8051 0.898354L72.3108 10.0326L71.1364 14.153L73.8967 14.9359ZM85.5905 5.90211L92.918 10.0577L91.578 12.4115L86.7399 9.66621L85.6859 11.5232L89.992 13.9623L88.657 16.3211L84.3509 13.877L83.1815 15.9548L88.115 18.7502L86.78 21.1091L79.3622 16.9033L85.5905 5.90211ZM92.4813 20.6273L89.6307 20.3512C89.4981 21.288 89.5987 22.2429 89.9235 23.1315C90.2483 24.0201 90.7872 24.8148 91.4926 25.4453C93.5453 27.3223 95.9543 27.3575 97.5603 25.6159C98.8853 24.1856 98.7197 22.5545 97.4349 20.4315L96.6971 19.232C96.2354 18.4842 96.2404 18.0225 96.657 17.5708C97.0735 17.1191 97.7812 17.1844 98.4838 17.8318C98.8255 18.1764 99.0493 18.6203 99.1232 19.0999C99.1971 19.5796 99.1174 20.0703 98.8953 20.5018L101.49 20.7577C101.827 19.9207 101.893 18.9993 101.68 18.1226C101.467 17.246 100.984 16.4581 100.301 15.8694C98.4436 14.153 96.1099 13.9623 94.539 15.6586C93.1789 17.1342 93.0986 18.7854 94.3433 20.7929L95.0108 21.882C95.5829 22.7853 95.6783 23.3374 95.2617 23.7891C94.8452 24.2408 94.1275 24.1906 93.455 23.5633C92.6971 22.8656 92.4161 21.892 92.4813 20.6273Z" fill="white"/>
</svg>
