<svg width="139" height="168" viewBox="0 0 139 168" fill="none" xmlns="http://www.w3.org/2000/svg">
<g clip-path="url(#clip0_18771_20624)">
<path fill-rule="evenodd" clip-rule="evenodd" d="M23.1961 7.81495C26.2216 12.6786 29.865 16.9724 33.9369 20.9748C34.1546 21.188 34.4028 21.4762 34.6651 21.7808L34.6655 21.7812L34.6656 21.7814C35.6184 22.8876 36.7565 24.209 37.2902 22.938C37.9312 21.4567 35.8017 18.6473 34.6231 17.0924L34.623 17.0922L34.6222 17.0913C34.4105 16.8119 34.2294 16.573 34.1008 16.3897C30.5961 11.3994 26.7637 6.56102 22.7801 1.95065C22.6903 1.84687 22.5942 1.73249 22.4935 1.61272L22.4929 1.61194C21.5617 0.503884 20.2442 -1.06399 19.994 1.03871C19.802 2.63524 21.5589 5.31046 22.6694 7.00157L22.6695 7.00174L22.6714 7.00461C22.8728 7.31128 23.0529 7.5855 23.1961 7.81495ZM49.5059 15.2371C49.4187 15.2839 49.3287 15.3226 49.2373 15.3619C49.1307 15.4077 49.022 15.4544 48.9134 15.5158C48.7261 15.6221 48.5599 15.7655 48.3943 15.9083L48.3942 15.9083C48.3035 15.9866 48.2129 16.0647 48.1192 16.1364C47.6024 16.5444 47.0136 16.7834 46.4348 17.0184L46.3921 17.0357C46.3462 17.0534 46.2942 17.0754 46.2379 17.0991C45.892 17.2449 45.3861 17.4582 45.1693 17.175C44.8261 16.7345 44.4126 16.3777 43.9963 16.0186C43.5868 15.6652 43.1746 15.3096 42.8244 14.8698C42.2698 14.1732 41.8159 13.3753 41.3873 12.552C41.1352 12.0833 40.8956 11.5514 40.7444 10.9941C40.6687 10.7408 40.6183 10.4874 40.5679 10.2341C40.5048 9.87949 40.5805 9.52484 40.6687 9.18286C40.82 8.51157 40.9839 7.82762 41.3117 7.21966C41.8159 6.29505 42.8244 5.77575 43.7825 5.72508C44.5642 5.68709 45.1819 5.85174 45.7618 6.39637C46.1904 6.80168 46.8333 7.52364 46.909 8.1316C47.325 7.4983 47.8419 6.92834 48.51 6.5737C49.3799 6.11773 50.5271 6.13039 51.3339 6.73835C51.586 6.92834 51.8129 7.18166 52.0146 7.43497C52.4811 8.03027 52.9979 8.79022 53.1114 9.58817C53.2249 10.4241 52.8971 11.2221 52.4054 11.868C52.2085 12.1288 52.0059 12.4216 51.7963 12.7244C51.1205 13.7011 50.372 14.7828 49.5059 15.2371ZM33.3946 29.3089C30.4819 29.0068 27.1771 27.2976 24.3047 25.8121C23.3232 25.3044 22.3921 24.8229 21.5445 24.4326C20.4688 23.9375 19.3609 23.4532 18.242 22.9641L18.2412 22.9637L18.2392 22.9629L18.239 22.9628C14.6641 21.4002 10.9765 19.7883 7.86635 17.6183C7.72579 17.5204 7.50688 17.3794 7.2339 17.2036L7.23347 17.2033L7.23301 17.203L7.23289 17.2029L7.23209 17.2024L7.23181 17.2022C5.34898 15.9895 0.900155 13.1241 1.80258 11.3107C2.89679 9.11203 7.64932 11.9348 9.39841 12.9737C9.58389 13.0839 9.73559 13.174 9.84558 13.2359C11.1186 13.9433 12.3885 14.6371 13.6521 15.3275L13.6522 15.3276L13.6523 15.3276L13.6524 15.3277L13.6526 15.3278L13.6527 15.3278C20.7599 19.211 27.6669 22.9848 33.8107 28.4476C34.151 28.7643 33.8737 29.3596 33.3946 29.3089ZM2.92462 40.1636C8.97576 39.6316 15.1278 39.3529 21.2041 39.4289C21.4185 39.4308 21.7028 39.4237 22.035 39.4153C23.9688 39.3669 27.5255 39.2777 28.3647 40.6829C29.0674 41.8663 27.3299 42.019 25.8797 42.1465C25.4829 42.1814 25.1075 42.2144 24.8096 42.2661C19.1871 43.2287 13.5898 43.672 7.90421 43.2794C7.617 43.2586 7.26409 43.2426 6.86862 43.2247C4.8513 43.1332 1.72663 42.9916 0.567187 41.9115C-0.989498 40.4616 1.03835 40.3083 2.47832 40.1994L2.47848 40.1993C2.63606 40.1874 2.78658 40.1761 2.92462 40.1636ZM20.4098 33.7546C22.8681 32.2221 18.3298 30.3855 17.1826 29.9929C14.863 29.1949 12.7072 28.5616 10.3498 29.5749C7.68982 30.7275 12.3164 33.2227 13.388 33.438C14.6991 33.704 19.1492 34.5399 20.4098 33.7546ZM25.3519 48.0037C26.5117 47.1931 30.6592 44.7993 29.8902 48.0291C29.7011 48.8143 27.2303 51.6008 26.5747 52.1455C25.9444 52.6648 22.2002 54.3747 22.3389 52.1581C22.4902 50.1316 23.7887 49.1057 25.3519 48.0037ZM126.835 89.2058L139 74.45C120.405 51.8921 104.282 52.7661 95.3182 60.7076C86.355 68.6617 88.1703 79.3391 90.3008 90.0797C92.4439 100.82 90.3387 106.609 84.1867 107.331C78.6776 107.977 74.5174 104.861 70.8741 97.3499C67.7398 90.9215 67.8579 79.829 67.9474 71.4152C67.9623 70.0151 67.9764 68.6891 67.9746 67.4712C67.9746 60.8849 67.9494 47.7757 67.9368 42.1268C73.118 44.326 75.7937 43.4244 77.6919 42.7849C77.849 42.732 78.0007 42.6808 78.1481 42.6334C79.787 42.1141 84.7287 38.935 84.0354 32.7794C83.4177 27.2824 78.5011 25.5218 75.4881 26.4211C72.4752 27.3204 71.3027 30.6135 71.3027 30.6135C71.3027 30.6135 69.2353 27.4217 64.823 27.4724C59.6039 27.523 56.1623 34.7299 56.1623 34.7299C56.1623 34.7299 56.1875 34.7426 56.2001 34.7552L42.6354 29.3596L44.9928 38.0357L38.677 40.6322L43.001 44.6473C36.9625 48.257 37.9584 55.0079 43.1271 56.3252L43.2783 56.3632C43.2783 56.3632 30.2053 80.5677 24.0407 96.7926C10.6399 132.029 40.757 152.953 62.0495 154.676L63.2976 168H72.576L73.8619 154.359C74.7443 154.258 75.652 154.118 76.5975 153.941C88.9015 151.61 100.373 145.024 105.315 137.095C109.198 130.864 111.568 123.024 110.635 113.334C110.465 111.562 110.03 109.486 109.565 107.263C108.031 99.9332 106.16 90.9982 112.312 86.052C120.33 79.6051 126.835 89.2058 126.835 89.2058ZM51.0692 41.5315C51.8634 39.9609 53.6283 39.2769 55.0151 39.9862C56.4018 40.6955 56.8808 42.5321 56.0866 44.1026C55.2924 45.6732 53.5275 46.3572 52.1408 45.6479C50.754 44.9386 50.275 43.0894 51.0692 41.5315Z" fill="#FF7D00"/>
</g>
<defs>
<clipPath id="clip0_18771_20624">
<rect width="139" height="168" fill="white" transform="matrix(-1 0 0 1 139 0)"/>
</clipPath>
</defs>
</svg>
